<?xml version="1.0" encoding="UTF-8" ?>
<!DOCTYPE svg PUBLIC "-//W3C//DTD SVG 1.1//EN" "http://www.w3.org/Graphics/SVG/1.1/DTD/svg11.dtd">
<svg width="1436pt" height="743pt" viewBox="0 0 1436 743" version="1.1" xmlns="http://www.w3.org/2000/svg">
<g id="#659089ff">
<path fill="#659089" opacity="1.00" d=" M 580.95 149.90 C 605.20 125.49 629.21 100.86 653.49 76.48 C 653.78 195.00 653.48 313.52 653.64 432.03 C 653.82 441.39 659.56 449.66 666.63 455.36 C 672.01 459.82 678.96 462.35 685.98 462.04 C 772.31 461.98 858.65 462.07 944.98 461.99 C 944.98 452.30 945.08 442.60 944.94 432.91 C 943.00 403.58 916.39 378.28 886.99 377.78 C 843.15 377.59 799.31 377.84 755.47 377.65 C 769.27 353.74 783.13 329.85 797.11 306.03 C 825.74 305.98 854.37 306.04 883.00 306.01 C 902.31 305.83 921.68 309.74 939.25 317.80 C 982.06 336.72 1012.70 380.16 1016.44 426.78 C 1017.36 438.49 1016.82 450.26 1016.97 462.00 C 1016.94 485.57 1017.01 509.15 1016.93 532.72 C 906.27 532.73 795.61 532.75 684.95 532.72 C 659.85 533.25 636.46 521.42 616.84 506.71 C 604.70 515.05 591.99 522.81 578.10 527.86 C 568.47 531.23 558.24 532.72 548.06 532.74 C 532.37 532.77 516.69 532.74 501.00 532.75 C 487.94 532.66 474.69 533.46 461.88 530.36 C 444.94 526.36 429.00 518.10 415.84 506.72 C 401.31 517.46 384.76 525.63 367.20 529.98 C 350.47 534.24 333.09 532.26 316.03 532.74 C 315.85 546.05 316.16 559.36 315.90 572.67 C 290.75 595.46 265.62 618.28 240.43 641.05 C 240.32 604.97 240.48 568.89 240.35 532.81 C 220.20 532.49 200.03 533.24 179.89 532.41 C 155.72 531.82 131.72 524.70 111.31 511.70 C 86.38 496.00 66.99 471.75 57.14 443.99 C 47.19 416.41 46.76 385.53 55.91 357.67 C 64.29 331.86 80.77 308.73 102.52 292.48 C 125.22 275.30 153.55 265.79 182.01 265.68 C 211.30 265.50 240.57 275.30 263.77 293.21 C 290.87 313.80 309.43 345.18 314.45 378.84 C 316.58 391.45 315.89 404.27 315.99 417.00 C 316.01 432.00 315.94 447.00 316.02 461.99 C 325.70 462.04 335.39 462.04 345.07 462.00 C 352.13 461.95 359.24 459.30 364.18 454.19 C 369.74 448.42 374.00 441.45 376.97 434.03 C 378.52 430.56 377.92 426.67 378.02 422.99 C 378.11 417.04 377.78 411.08 378.12 405.14 C 386.60 395.68 395.99 386.98 404.78 377.78 C 419.72 362.62 434.62 347.43 449.64 332.36 C 449.85 364.58 449.67 396.82 449.73 429.05 C 449.83 433.93 452.13 438.42 454.35 442.66 C 458.28 449.40 463.39 455.96 470.63 459.32 C 475.08 461.43 480.06 462.12 484.95 462.02 C 506.31 461.96 527.67 462.06 549.04 461.98 C 558.55 461.80 566.96 455.86 572.64 448.60 C 576.57 443.64 579.04 437.45 578.99 431.08 C 579.01 338.70 579.00 246.31 578.99 153.92 C 578.66 152.22 579.84 150.99 580.95 149.90 M 145.38 354.38 C 132.75 364.70 124.84 380.67 124.71 397.02 C 124.37 409.98 128.83 422.97 136.92 433.09 C 147.17 446.15 163.34 454.35 179.93 454.95 C 200.07 455.08 220.22 455.04 240.37 454.97 C 240.43 439.32 240.37 423.66 240.39 408.00 C 240.26 399.24 241.17 390.22 238.26 381.77 C 232.36 361.66 214.51 345.93 193.97 342.12 C 177.02 338.73 158.67 343.30 145.38 354.38 Z" />
<path fill="#659089" opacity="1.00" d=" M 1165.43 307.15 C 1194.61 306.79 1223.81 307.11 1253.00 307.00 C 1284.95 306.86 1316.36 319.70 1340.12 340.86 C 1366.95 364.71 1383.27 400.07 1383.54 436.02 C 1383.63 468.22 1383.58 500.42 1383.56 532.62 C 1268.33 532.71 1153.09 532.68 1037.85 532.63 C 1049.26 509.07 1061.04 485.69 1072.47 462.15 C 1152.19 461.81 1231.93 462.19 1311.66 461.96 C 1311.68 453.62 1311.64 445.29 1311.69 436.96 C 1312.00 413.26 1296.40 390.34 1274.45 381.60 C 1266.69 378.54 1258.29 377.50 1250.00 377.71 C 1208.00 377.72 1165.99 377.73 1123.99 377.70 C 1137.72 354.14 1151.76 330.75 1165.43 307.15 Z" />
</g>
<g id="#cc2a41ff">
<path fill="#cc2a41" opacity="1.00" d=" M 268.33 112.28 C 284.14 110.02 300.75 114.00 313.79 123.23 C 326.69 132.17 335.99 146.09 339.42 161.39 C 342.78 175.95 340.75 191.66 333.83 204.91 C 326.69 218.84 314.20 229.88 299.52 235.31 C 287.71 239.77 274.56 240.54 262.29 237.59 C 247.27 234.05 233.68 224.81 224.88 212.14 C 215.71 199.15 211.73 182.66 213.91 166.92 C 215.76 153.11 222.28 139.99 232.20 130.20 C 241.89 120.53 254.77 114.16 268.33 112.28 Z" />
<path fill="#cc2a41" opacity="1.00" d=" M 398.36 112.23 C 411.24 110.49 424.64 112.81 436.17 118.82 C 451.09 126.45 462.71 140.24 467.68 156.24 C 472.23 170.40 471.54 186.13 465.85 199.86 C 460.19 213.66 449.54 225.34 436.27 232.15 C 421.41 239.96 403.41 241.51 387.44 236.33 C 373.84 232.03 361.78 223.02 353.87 211.15 C 344.83 197.79 341.13 180.92 343.87 165.01 C 346.41 149.49 354.94 135.02 367.35 125.35 C 376.27 118.30 387.10 113.73 398.36 112.23 Z" />
<path fill="#cc2a41" opacity="1.00" d=" M 834.40 112.64 C 847.91 110.22 862.17 112.35 874.39 118.59 C 888.43 125.65 899.64 138.13 905.17 152.84 C 910.90 167.75 910.70 184.83 904.61 199.60 C 895.52 222.72 871.85 239.08 846.99 239.32 C 829.76 239.82 812.47 232.90 800.36 220.64 C 788.58 208.98 781.72 192.55 781.68 175.99 C 781.47 159.58 787.97 143.20 799.38 131.40 C 808.65 121.61 821.14 114.97 834.40 112.64 Z" />
<path fill="#cc2a41" opacity="1.00" d=" M 1144.40 267.91 C 1150.43 271.77 1156.48 275.63 1162.29 279.83 C 1142.92 312.35 1123.64 344.94 1104.06 377.33 C 1096.18 377.31 1088.31 377.40 1080.44 377.27 C 1101.62 340.74 1123.04 304.34 1144.40 267.91 Z" />
</g>
</svg>
