<svg xmlns="http://www.w3.org/2000/svg" viewBox="0 0 273.74 121.66"><defs><style>.cls-1{fill:#fff}.cls-2,.cls-3,.cls-4,.cls-8{fill:none;stroke:#2e80bd}.cls-2,.cls-3,.cls-4{stroke-miterlimit:10}.cls-2,.cls-8{stroke-width:2px}.cls-3{stroke-width:.5px}.cls-5,.cls-6{fill:#2e80bd}.cls-5{opacity:.3}.cls-7{opacity:.5}.cls-8{stroke-linejoin:round}</style></defs><title>Asset 10</title><g id="Layer_2" data-name="Layer 2"><g id="Layer_1-2" data-name="Layer 1"><rect class="cls-1" x="8.15" y="27.2" width="43.39" height="61.94" rx="7.47" ry="7.47"/><rect class="cls-2" x="8.15" y="27.2" width="43.39" height="61.94" rx="7.47" ry="7.47"/><rect class="cls-3" x="18.14" y="40.9" width="23.41" height="12.27" rx=".79" ry=".79"/><rect class="cls-3" x="15.57" y="59.17" width="8.28" height="4.57" rx="2.28" ry="2.28"/><rect class="cls-3" x="25.56" y="59.17" width="8.28" height="4.57" rx="2.28" ry="2.28"/><rect class="cls-3" x="35.55" y="59.17" width="8.28" height="4.57" rx="2.28" ry="2.28"/><rect class="cls-3" x="15.57" y="65.07" width="8.28" height="4.57" rx="2.28" ry="2.28"/><rect class="cls-3" x="25.56" y="65.07" width="8.28" height="4.57" rx="2.28" ry="2.28"/><rect class="cls-3" x="35.55" y="65.07" width="8.28" height="4.57" rx="2.28" ry="2.28"/><rect class="cls-3" x="15.57" y="70.97" width="8.28" height="4.57" rx="2.28" ry="2.28"/><rect class="cls-3" x="25.56" y="70.97" width="8.28" height="4.57" rx="2.28" ry="2.28"/><rect class="cls-3" x="35.55" y="70.97" width="8.28" height="4.57" rx="2.28" ry="2.28"/><rect class="cls-3" x="15.57" y="76.87" width="8.28" height="9.42" rx="2.32" ry="2.32"/><rect class="cls-3" x="25.56" y="76.87" width="8.28" height="4.57" rx="2.28" ry="2.28"/><rect class="cls-3" x="25.85" y="82.58" width="7.71" height="3.43" rx="1.71" ry="1.71"/><rect class="cls-3" x="35.55" y="76.87" width="8.28" height="9.42" rx="2.32" ry="2.32"/><path class="cls-4" d="M18.14 27.2V29.63z"/><path class="cls-4" d="M25.94 27.2V29.63z"/><path class="cls-4" d="M33.74 27.2V29.63z"/><path class="cls-4" d="M41.54 27.2V29.63z"/><rect class="cls-2" x="4.75" y="24.15" width="50.18" height="68.04" rx="10.65" ry="10.65"/><path class="cls-2" d="M41.54 24.83V22.67a7.24 7.24.0 0 0-7.22-7.22h-9a7.24 7.24.0 0 0-7.22 7.22v2.16"/><path class="cls-2" d="M18.14 92.19h23.41v21.63H18.14z"/><path class="cls-2" d="M41.4 107.16h17V120.49H1V107.16H18"/><path class="cls-5" d="M18.09 92.19h23.49v7.85H18.09z"/><rect class="cls-2" x="86.01" y="-11.81" width="81.88" height="116.13" rx="6.7" ry="6.7" transform="translate(173.2 -80.69) rotate(90)"/><path class="cls-3" d="M92 .67h75.45v91.16H92z" transform="translate(175.98 -83.47) rotate(90)"/><rect class="cls-2" x="63.9" y="1" width="125.91" height="90.51" rx="10.12" ry="10.12"/><path class="cls-2" d="M115.15 91.51h23.41v21.63H115.15z"/><path class="cls-2" d="M138.56 107.29H155.55V120.62H98.15V107.29h17"/><path class="cls-5" d="M115.06 92.44h23.49v7.85H115.06z"/><path class="cls-6" d="M175.3 80.4H84.14V12.45H175.3zm-90.84-.32H175V12.77H84.46z"/><path class="cls-6" d="M175.3 18.21H84.14V12.45H175.3zm-90.84-.32H175V12.77H84.46z"/><path class="cls-6" d="M95 29.2H85.1V19.3H95zm-9.58-.32h9.26V19.62H85.42z"/><path class="cls-6" d="M106.18 29.2h-9.9V19.3h9.9zm-9.58-.32h9.26V19.62H96.61z"/><path class="cls-6" d="M117.36 29.2h-9.9V19.3h9.9zm-9.58-.32H117V19.62h-9.26z"/><path class="cls-6" d="M128.54 29.2h-9.9V19.3h9.9zM119 28.88h9.26V19.62H119z"/><path class="cls-6" d="M139.73 29.2h-9.9V19.3h9.9zm-9.58-.32h9.26V19.62h-9.26z"/><path class="cls-6" d="M150.91 29.2H141V19.3h9.9zm-9.58-.32h9.26V19.62h-9.26z"/><path class="cls-6" d="M95 40.38H85.1v-9.9H95zm-9.58-.32h9.26V30.8H85.42z"/><path class="cls-6" d="M106.18 40.38h-9.9v-9.9h9.9zm-9.58-.32h9.26V30.8H96.61z"/><path class="cls-6" d="M117.36 40.38h-9.9v-9.9h9.9zm-9.58-.32H117V30.8h-9.26z"/><path class="cls-6" d="M128.54 40.38h-9.9v-9.9h9.9zM119 40.06h9.26V30.8H119z"/><path class="cls-6" d="M139.73 40.38h-9.9v-9.9h9.9zm-9.58-.32h9.26V30.8h-9.26z"/><path class="cls-6" d="M150.91 40.38H141v-9.9h9.9zm-9.58-.32h9.26V30.8h-9.26z"/><path class="cls-6" d="M95 51.56H85.1v-9.9H95zm-9.58-.32h9.26V42H85.42z"/><path class="cls-6" d="M106.18 51.56h-9.9v-9.9h9.9zm-9.58-.32h9.26V42H96.61z"/><path class="cls-6" d="M117.36 51.56h-9.9v-9.9h9.9zm-9.58-.32H117V42h-9.26z"/><path class="cls-6" d="M128.54 51.56h-9.9v-9.9h9.9zM119 51.24h9.26V42H119z"/><path class="cls-6" d="M139.73 51.56h-9.9v-9.9h9.9zm-9.58-.32h9.26V42h-9.26z"/><path class="cls-6" d="M150.91 51.56H141v-9.9h9.9zm-9.58-.32h9.26V42h-9.26z"/><path class="cls-6" d="M95 62.74H85.1v-9.9H95zm-9.58-.32h9.26V53.17H85.42z"/><path class="cls-6" d="M106.18 62.74h-9.9v-9.9h9.9zm-9.58-.32h9.26V53.17H96.61z"/><path class="cls-6" d="M117.36 62.74h-9.9v-9.9h9.9zm-9.58-.32H117V53.17h-9.26z"/><path class="cls-6" d="M128.54 62.74h-9.9v-9.9h9.9zM119 62.42h9.26V53.17H119z"/><path class="cls-6" d="M139.73 62.74h-9.9v-9.9h9.9zm-9.58-.32h9.26V53.17h-9.26z"/><path class="cls-6" d="M150.91 62.74H141v-9.9h9.9zm-9.58-.32h9.26V53.17h-9.26z"/><path class="cls-6" d="M95 73.92H85.1V64H95zm-9.58-.32h9.26V64.35H85.42z"/><path class="cls-6" d="M106.18 73.92h-9.9V64h9.9zm-9.58-.32h9.26V64.35H96.61z"/><path class="cls-6" d="M117.36 73.92h-9.9V64h9.9zm-9.58-.32H117V64.35h-9.26z"/><path class="cls-6" d="M128.54 73.92h-9.9V64h9.9zM119 73.6h9.26V64.35H119z"/><path class="cls-6" d="M139.73 73.92h-9.9V64h9.9zm-9.58-.32h9.26V64.35h-9.26z"/><path class="cls-6" d="M150.91 73.92H141V64h9.9zm-9.58-.32h9.26V64.35h-9.26z"/><path class="cls-6" d="M89.94 79.49H85.1V74.65h4.84zm-4.52-.32h4.2V75h-4.2z"/><path class="cls-6" d="M95 79.49H90.16V74.65H95zm-4.52-.32h4.2V75h-4.2z"/><path class="cls-6" d="M110.39 79.49H96.28V74.65h14.11zm-13.78-.32h13.46V75H96.61z"/><path class="cls-6" d="M125.21 79.49H111.1V74.65h14.11zm-13.78-.32h13.46V75H111.42z"/><path class="cls-6" d="M140 79.49H125.92V74.65H140zm-13.79-.32h13.46V75H126.24z"/><path class="cls-6" d="M150.91 79.49H140.74V74.65h10.16zm-9.84-.32h9.52V75h-9.52z"/><g class="cls-7"><path class="cls-6" d="M151.92 18.05h23.22v62.19H151.92z"/></g><path class="cls-8" d="M202.74 87.29h70v33.37h-70z"/><path class="cls-8" d="M256.91 73.53H259.74L272.74 87.29h-70L215.74 73.53H218.58"/><path class="cls-8" d="M218.58 56.98V80.61H256.91V56.98 48.32L253.71 50.32 250.51 48.32 247.31 50.32 244.12 48.32 240.92 50.32 237.73 48.32 234.54 50.32 231.34 48.32 228.15 50.32 224.96 48.32 221.77 50.32 218.58 48.32V56.98z"/><path class="cls-8" d="M215.08 80.61H260.41z"/><path class="cls-5" d="M218.58 76.06h38.33v4.56H218.58z"/><path class="cls-8" d="M202.83 110.11h-24.6a9.6 9.6.0 0 1-9.57-9.57V91.29"/></g></g></svg>