<svg xmlns="http://www.w3.org/2000/svg" viewBox="0 0 206.38 107.06"><defs><style>.cls-1,.cls-10,.cls-2,.cls-6{fill:none}.cls-1,.cls-10,.cls-2,.cls-6,.cls-7{stroke:#2e80bd;stroke-miterlimit:10}.cls-1,.cls-7{stroke-width:2px}.cls-2{stroke-width:.5px}.cls-3,.cls-4,.cls-8,.cls-9{fill:#2e80bd}.cls-3{opacity:.4}.cls-5,.cls-7{fill:#fff}.cls-8{font-size:6.9px}.cls-8,.cls-9{font-family:ProximaNova-Regular,Proxima Nova}.cls-9{font-size:3.06px}.cls-10{stroke-width:.25px}</style></defs><title>Asset 9</title><g id="Layer_2" data-name="Layer 2"><g id="Layer_1-2" data-name="Layer 1"><rect class="cls-1" x="57.69" y="-18.47" width="93.12" height="132.07" rx="6.7" ry="6.7" transform="translate(56.69 151.81) rotate(-90)"/><path class="cls-2" d="M58.18-4.28h85.81V99.4H58.18z" transform="translate(53.53 148.65) rotate(-90)"/><path class="cls-3" d="M129.11 5.92h22.48V89.2H129.11z" transform="translate(280.7 95.12) rotate(180)"/><path class="cls-2" d="M108.68 73.28h18.16v8.63H108.68z" transform="translate(235.53 155.19) rotate(180)"/><path class="cls-2" d="M48.97 73.28H89.5V81.91H107.66V73.28H128.83"/><path class="cls-2" d="M70.31 73.28h18.16v8.63H70.31z" transform="translate(158.78 155.19) rotate(180)"/><path class="cls-2" d="M51.12 73.28h18.16v8.63H51.12z" transform="translate(120.41 155.19) rotate(180)"/><path class="cls-2" d="M51.12 17.17h49.49v53.5H51.12z" transform="translate(151.73 87.84) rotate(180)"/><path class="cls-3" d="M51.12 64.72h49.49v5.94H51.12z" transform="translate(151.73 135.39) rotate(180)"/><path class="cls-3" d="M51.12 84.37h75.72v5.94H51.12z" transform="translate(177.97 174.68) rotate(180)"/><path class="cls-3" d="M102.49 64.72h24.36v5.94H102.49z"/><path class="cls-2" d="M102.49 64.72h24.36v5.94H102.49z"/><path class="cls-3" d="M102.49 8.04h24.36v5.94H102.49z"/><path class="cls-2" d="M102.49 17.17h24.36v15.85H102.49z"/><path class="cls-2" d="M102.49 33.02h24.36v15.85H102.49z"/><path class="cls-2" d="M102.49 48.87h24.36v15.85H102.49z"/><path class="cls-3" d="M76.8 8.04h24.36v5.94H76.8z"/><path class="cls-3" d="M51.12 8.04h24.36v5.94H51.12z"/><circle class="cls-4" cx="96.83" cy="20.94" r=".92"/><circle class="cls-4" cx="92.68" cy="26.02" r=".92"/><circle class="cls-4" cx="88.53" cy="34.78" r=".92"/><circle class="cls-4" cx="84.38" cy="30.07" r=".92"/><circle class="cls-4" cx="80.23" cy="26.94" r=".92"/><circle class="cls-4" cx="76.07" cy="42.06" r=".92"/><circle class="cls-4" cx="71.92" cy="30.72" r=".92"/><circle class="cls-4" cx="67.77" cy="35.28" r=".92"/><circle class="cls-4" cx="63.62" cy="44.84" r=".92"/><circle class="cls-4" cx="59.47" cy="54.84" r=".92"/><circle class="cls-4" cx="55.32" cy="58.9" r=".92"/><path class="cls-2" d="M96.83 20.94 92.68 26.02 88.53 34.78 84.38 30.07 80.22 26.94 76.08 42.06 71.92 30.72 67.77 35.28 63.62 44.84 59.47 54.84 55.32 58.9"/><rect class="cls-5" x="1" y="39.37" width="46.72" height="66.7" rx="7.47" ry="7.47"/><rect class="cls-1" x="1" y="39.37" width="46.72" height="66.7" rx="7.47" ry="7.47"/><rect class="cls-2" x="11.76" y="54.12" width="25.2" height="13.22" rx=".79" ry=".79"/><rect class="cls-2" x="8.99" y="73.79" width="8.91" height="4.92" rx="2.28" ry="2.28"/><rect class="cls-2" x="19.75" y="73.79" width="8.91" height="4.92" rx="2.28" ry="2.28"/><rect class="cls-2" x="30.51" y="73.79" width="8.91" height="4.92" rx="2.28" ry="2.28"/><rect class="cls-2" x="8.99" y="80.14" width="8.91" height="4.92" rx="2.28" ry="2.28"/><rect class="cls-2" x="19.75" y="80.14" width="8.91" height="4.92" rx="2.28" ry="2.28"/><rect class="cls-2" x="30.51" y="80.14" width="8.91" height="4.92" rx="2.28" ry="2.28"/><rect class="cls-2" x="8.99" y="86.5" width="8.91" height="4.92" rx="2.28" ry="2.28"/><rect class="cls-2" x="19.75" y="86.5" width="8.91" height="4.92" rx="2.28" ry="2.28"/><rect class="cls-2" x="30.51" y="86.5" width="8.91" height="4.92" rx="2.28" ry="2.28"/><rect class="cls-2" x="8.99" y="92.85" width="8.91" height="10.14" rx="2.32" ry="2.32"/><rect class="cls-2" x="19.75" y="92.85" width="8.91" height="4.92" rx="2.28" ry="2.28"/><rect class="cls-2" x="20.06" y="99" width="8.3" height="3.69" rx="1.71" ry="1.71"/><rect class="cls-2" x="30.51" y="92.85" width="8.91" height="10.14" rx="2.32" ry="2.32"/><path class="cls-6" d="M11.76 39.37V41.98z"/><path class="cls-6" d="M20.16 39.37V41.98z"/><path class="cls-6" d="M28.56 39.37V41.98z"/><path class="cls-6" d="M36.96 39.37V41.98z"/><rect class="cls-7" x="159.82" y="18.45" width="45.55" height="87.18" rx="4.33" ry="4.33"/><path class="cls-2" d="M164.06 26.38h37.08v65.18H164.06z"/><path class="cls-2" d="M164.06 38.93H201.14z"/><path class="cls-2" d="M164.06 38.93h12.45v10.51H164.06z"/><path class="cls-2" d="M188.69 38.93h12.45v10.51H188.69z"/><path class="cls-2" d="M164.06 49.43h12.45v10.51H164.06z"/><path class="cls-2" d="M176.51 49.43h12.18v10.51H176.51z"/><path class="cls-2" d="M188.69 49.43h12.45v10.51H188.69z"/><path class="cls-2" d="M164.06 59.94h12.45v10.51H164.06z"/><path class="cls-2" d="M188.69 59.94h12.45v10.51H188.69z"/><path class="cls-2" d="M164.06 70.44h12.45v10.51H164.06z"/><path class="cls-2" d="M176.51 70.44h12.18v10.51H176.51z"/><path class="cls-3" d="M165.5 82.53h34.2v7.22H165.5z"/><path class="cls-2" d="M188.69 70.44h12.45v10.51H188.69z"/><text class="cls-8" transform="translate(168.32 35.16)">ریال</text><text class="cls-9" transform="translate(169.77 45.27)">1</text><text class="cls-9" transform="translate(181.7 45.27)">2</text><text class="cls-9" transform="translate(194.06 45.27)">3</text><text class="cls-9" transform="translate(169.43 55.75)">4</text><text class="cls-9" transform="translate(181.69 55.75)">5</text><text class="cls-9" transform="translate(194.01 55.75)">6</text><text class="cls-9" transform="translate(169.5 66.22)">7</text><text class="cls-9" transform="translate(181.71 66.22)">8</text><text class="cls-9" transform="translate(194.01 66.22)">9</text><text class="cls-9" transform="translate(181.66 76.69)">0</text><text/><rect class="cls-10" x="192.84" y="74.45" width="4.15" height="2.49" rx="1.25" ry="1.25"/><path class="cls-10" d="M171.67 76.94H169a.77.77.0 0 1-.68-.4l-.47-.85.47-.85a.77.77.0 0 1 .68-.4h2.66a.69.69.0 0 1 .69.69v1.11A.69.69.0 0 1 171.67 76.94z"/></g></g></svg>