<svg id="Layer_1" data-name="Layer 1" xmlns="http://www.w3.org/2000/svg" xmlns:xlink="http://www.w3.org/1999/xlink" viewBox="0 0 961.99 961.99"><defs><style>.cls-1{fill:#fff;}.cls-2{fill:#8d0837;}.cls-3{fill:url(#linear-gradient);}.cls-4{fill:url(#linear-gradient-2);}</style><linearGradient id="linear-gradient" x1="320.08" y1="785.35" x2="1189.23" y2="310.65" gradientUnits="userSpaceOnUse"><stop offset="0.5" stop-color="#fff"/><stop offset="0.51" stop-color="#f7edf1"/><stop offset="0.57" stop-color="#deb8c6"/><stop offset="0.62" stop-color="#c9899f"/><stop offset="0.68" stop-color="#b6617f"/><stop offset="0.74" stop-color="#a74165"/><stop offset="0.8" stop-color="#9c2851"/><stop offset="0.86" stop-color="#931642"/><stop offset="0.92" stop-color="#8f0b3a"/><stop offset="1" stop-color="#8d0837"/></linearGradient><linearGradient id="linear-gradient-2" x1="339.36" y1="785.35" x2="1208.52" y2="310.65" gradientTransform="matrix(-1, 0, 0, 1, 1941.53, 0)" xlink:href="#linear-gradient"/></defs><title>Ramona_logo 1920*1080</title><path class="cls-1" d="M609.3,232.57c0,.25,0,.37,0,.37v-.37Z" transform="translate(-479.34 -59)"/><rect class="cls-2" width="961.99" height="961.99" rx="66.54" ry="66.54"/><path class="cls-1" d="M1394.5,785.09c-.07,2.12-.07,3.14-.07,3.14v-3.14Z" transform="translate(-479.34 -59)"/><path class="cls-1" d="M1310.2,459.85l-2.32-.64v-220l-3.14,2.69c-60.71,58.78-111.92,123.57-154.88,188.18a1588.18,1588.18,0,0,0-182.76-9.42c-69.61.3-135.77,4.8-195.58,12.63-43.39-65.67-95.3-131.64-157-191.39l-3.14-2.69V466.76l-.88.27h.88v47.53a217.92,217.92,0,0,0,109,188.71L958.49,840.8h2.25l238.18-137.54a217.92,217.92,0,0,0,109-188.71V459.87Z" transform="translate(-479.34 -59)"/><path class="cls-3" d="M765.77,498,619.5,260.52c157.3,143.91,325.69,517.64,332.05,538.43l1.3,2.1-.79-.43v0l0-.05-153.68-83a138.14,138.14,0,0,1-72.43-117.62L619.5,260.52Z" transform="translate(-479.34 -59)"/><path class="cls-4" d="M1156.48,498l146.26-237.47C1145.44,404.43,977,778.16,970.69,798.95l-1.3,2.1.79-.43v0l0-.05,153.68-83a138.14,138.14,0,0,0,72.43-117.62l106.43-339.43Z" transform="translate(-479.34 -59)"/></svg>