<?xml version="1.0" encoding="iso-8859-1"?>
<!-- Generator: Adobe Illustrator 19.0.0, SVG Export Plug-In . SVG Version: 6.00 Build 0)  -->
<svg version="1.1" id="Capa_1" xmlns="http://www.w3.org/2000/svg" xmlns:xlink="http://www.w3.org/1999/xlink" x="0px" y="0px"
	 viewBox="0 0 480 480" style="enable-background:new 0 0 480 480;" xml:space="preserve">
<rect x="16" y="48" style="fill:#827ED9;" width="80" height="48"/>
<g>
	<polygon style="fill:#FED27C;" points="64,224 120,224 128,224 128,208 120,208 64,208 	"/>
	<polygon style="fill:#FED27C;" points="112,192 112,176 48,176 48,192 56,192 	"/>
</g>
<path style="fill:#FFFFFF;" d="M233.112,135.584C238.272,153.664,260.408,168,272,168c12.28,0,36.416-16.104,39.624-35.696
	l-28.592-17.16C271.536,130.304,246.808,134.456,233.112,135.584z"/>
<g>
	<path style="fill:#FED27C;" d="M272.416,101.472c0.768-2.304,2.528-4.128,4.816-4.976c2.264-0.832,4.816-0.6,6.888,0.648
		l26.656,15.992c-0.208-1.312-0.432-2.616-0.712-3.848c-0.272-1.208-0.512-2.448-0.84-3.584C304.184,88.328,292.064,80,272,80
		s-32.184,8.328-37.224,25.704c-0.328,1.128-0.568,2.376-0.84,3.584c-0.376,1.68-0.704,3.408-0.968,5.24
		c-0.168,1.168-0.328,2.344-0.448,3.568c-0.04,0.456-0.04,0.976-0.072,1.44C246.512,118.2,268.368,113.616,272.416,101.472z"/>
	<polygon style="fill:#FED27C;" points="112,240 56,240 48,240 48,256 112,256 	"/>
</g>
<polygon style="fill:#827ED9;" points="278.608,214.072 272,197.536 265.392,214.072 272,220.688 "/>
<rect x="48" y="304" style="fill:#DD763E;" width="384" height="160"/>
<path style="fill:#FED27C;" d="M408,192c-4.416,0-8,3.592-8,8v8h16v-8C416,195.592,412.416,192,408,192z"/>
<path style="fill:#827ED9;" d="M260.184,184h-17.76c-5.232,0-10.296,1.536-14.656,4.44C220.4,193.344,216,201.568,216,210.424V256
	h112v-45.576c0-8.856-4.4-17.072-11.768-21.984c-4.36-2.904-9.416-4.44-14.656-4.44h-17.76l11.608,29.024
	c1.184,2.976,0.496,6.368-1.776,8.632l-16,16c-1.552,1.56-3.6,2.344-5.648,2.344s-4.096-0.784-5.656-2.344l-16-16
	c-2.264-2.264-2.96-5.656-1.776-8.632L260.184,184z"/>
<g>
	<path style="fill:#DD763E;" d="M306.904,168.392c6.488,0.816,12.704,3.072,18.208,6.736C336.936,183.008,344,196.2,344,210.424V256
		h16V104h-34.648c0,0.008,0,0.016,0,0.016c0.768,3.144,1.344,6.552,1.776,10.168c0.088,0.712,0.184,1.424,0.256,2.152
		C327.752,120,328,123.824,328,128C328,143.704,318.776,158.112,306.904,168.392z"/>
	<path style="fill:#DD763E;" d="M200,210.424c0-14.216,7.064-27.416,18.888-35.296c5.496-3.664,11.72-5.92,18.208-6.736
		C225.224,158.112,216,143.704,216,128c0-4.176,0.248-8,0.616-11.664c0.072-0.728,0.168-1.44,0.256-2.152
		c0.432-3.616,1.016-7.024,1.776-10.16v-0.016H184v152h16V210.424z"/>
	<polygon style="fill:#DD763E;" points="336,272 208,272 176,272 120,272 40,272 16,272 16,288 40,288 440,288 464,288 464,272 
		368,272 	"/>
</g>
<g>
	<path style="fill:#232323;" d="M472,256h-18.216l25.16-44.032c1.656-2.896,1.336-6.52-0.8-9.088l-40-48
		c-1.448-1.728-3.536-2.768-5.792-2.872c-2.208-0.048-4.432,0.752-6.016,2.336l-22.032,22.032C392.84,178.16,384,188.024,384,200v16
		c0,4.416,3.576,8,8,8h32c4.424,0,8-3.584,8-8v-16c0-7.816-3.808-14.696-9.608-19.08l9.064-9.064l30.832,37L435.36,256H376V96
		c0-4.416-3.576-8-8-8h-48.88C308.208,69.016,289.032,64,272,64s-36.208,5.016-47.12,24H176c-4.424,0-8,3.584-8,8v160h-40v-16h8
		c4.424,0,8-3.584,8-8v-32c0-4.416-3.576-8-8-8h-8v-24c0-4.416-3.576-8-8-8H40c-4.424,0-8,3.584-8,8v32c0,4.416,3.576,8,8,8h8v16h-8
		c-4.424,0-8,3.584-8,8v24H8c-4.424,0-8,3.584-8,8v32c0,4.416,3.576,8,8,8h24v168c0,4.416,3.576,8,8,8h400c4.424,0,8-3.584,8-8V304
		h24c4.424,0,8-3.584,8-8v-32C480,259.584,476.424,256,472,256z M416,208h-16v-8c0-4.408,3.584-8,8-8s8,3.592,8,8V208z M325.352,104
		H360v152h-16v-45.576c0-14.216-7.064-27.416-18.888-35.296c-5.496-3.664-11.72-5.92-18.208-6.736
		C318.776,158.112,328,143.704,328,128c0-4.176-0.248-8-0.616-11.664c-0.072-0.728-0.168-1.44-0.256-2.152
		c-0.432-3.616-1.016-7.024-1.776-10.16C325.352,104.016,325.352,104.008,325.352,104z M272,197.536l6.608,16.536L272,220.688
		l-6.608-6.616L272,197.536z M272,168c-11.592,0-33.728-14.336-38.888-32.416c13.696-1.128,38.424-5.28,49.92-20.432l28.592,17.16
		C308.416,151.896,284.28,168,272,168z M260.184,184l-11.608,29.024c-1.184,2.976-0.496,6.368,1.776,8.632l16,16
		c1.552,1.56,3.6,2.344,5.648,2.344s4.096-0.784,5.656-2.344l16-16c2.264-2.264,2.96-5.656,1.776-8.632L283.816,184h17.76
		c5.232,0,10.296,1.536,14.656,4.44C323.6,193.344,328,201.568,328,210.424V256H216v-45.576c0-8.856,4.4-17.072,11.768-21.984
		c4.36-2.904,9.416-4.44,14.656-4.44H260.184z M272,80c20.064,0,32.184,8.328,37.224,25.704c0.328,1.128,0.568,2.376,0.84,3.584
		c0.272,1.232,0.496,2.536,0.712,3.848L284.12,97.144c-2.08-1.248-4.624-1.48-6.888-0.648c-2.28,0.84-4.048,2.672-4.816,4.976
		c-4.048,12.144-25.904,16.736-39.968,18.072c0.04-0.464,0.032-0.984,0.072-1.44c0.12-1.224,0.28-2.4,0.448-3.568
		c0.256-1.832,0.592-3.56,0.968-5.24c0.272-1.208,0.512-2.448,0.84-3.584C239.816,88.328,251.936,80,272,80z M184,104h34.648
		c0,0.008,0,0.016,0,0.016c-0.768,3.144-1.344,6.552-1.776,10.168c-0.088,0.712-0.184,1.424-0.256,2.152
		C216.248,120,216,123.824,216,128c0,15.704,9.224,30.112,21.096,40.392c-6.488,0.816-12.704,3.072-18.208,6.736
		C207.064,183.008,200,196.2,200,210.424V256h-16V104z M48,176h64v16H56h-8V176z M64,208h56h8v16h-8H64V208z M48,240h8h56v16H48V240
		z M432,464H48V304h384V464z M464,288h-24H40H16v-16h24h80h56h32h128h32h96V288z"/>
	<path style="fill:#232323;" d="M8,112h96c4.424,0,8-3.584,8-8V40c0-4.416-3.576-8-8-8h-5.192L61,1.752c-2.92-2.336-7.08-2.336-10,0
		L13.192,32H8c-4.424,0-8,3.584-8,8v64C0,108.416,3.576,112,8,112z M96,96H16V48h80V96z M56,18.248L73.192,32H38.808L56,18.248z"/>
</g>
<g>
</g>
<g>
</g>
<g>
</g>
<g>
</g>
<g>
</g>
<g>
</g>
<g>
</g>
<g>
</g>
<g>
</g>
<g>
</g>
<g>
</g>
<g>
</g>
<g>
</g>
<g>
</g>
<g>
</g>
</svg>
