<?xml version="1.0" encoding="iso-8859-1"?>
<!-- Generator: Adobe Illustrator 19.0.0, SVG Export Plug-In . SVG Version: 6.00 Build 0)  -->
<svg version="1.1" id="Capa_1" xmlns="http://www.w3.org/2000/svg" xmlns:xlink="http://www.w3.org/1999/xlink" x="0px" y="0px"
	 viewBox="0 0 488 488" style="enable-background:new 0 0 488 488;" xml:space="preserve">
<path style="fill:#FED27C;" d="M40,404.024c2.28-3.032,4.992-5.744,8.024-8.024c-3.032-2.28-5.744-4.992-8.024-8.024
	c-2.28,3.032-4.992,5.744-8.024,8.024C35.008,398.28,37.72,400.992,40,404.024z"/>
<g>
	<rect x="384" y="212" style="fill:#827ED9;" width="24" height="48"/>
	<polygon style="fill:#827ED9;" points="232,452 216,452 216,468 280,468 280,452 264,452 	"/>
	<rect x="240" y="276" style="fill:#827ED9;" width="16" height="160"/>
	<polygon style="fill:#827ED9;" points="224,20 224,32.688 259.312,68 264,68 300.688,68 252.688,20 	"/>
	<path style="fill:#827ED9;" d="M232,116H74.128l-42,24l42,24H232h32h8v-48h-8H232z M96,140H80v-16h16V140z M128,140h-16v-16h16V140
		z M160,140h-16v-16h16V140z M192,140h-16v-16h16V140z M224,140h-16v-16h16V140z M256,140h-16v-16h16V140z"/>
	<rect x="240" y="84" style="fill:#827ED9;" width="16" height="16"/>
	<rect x="264" y="212" style="fill:#827ED9;" width="24" height="48"/>
	<rect x="304" y="212" style="fill:#827ED9;" width="24" height="48"/>
	<rect x="344" y="212" style="fill:#827ED9;" width="24" height="48"/>
	<rect x="240" y="180" style="fill:#827ED9;" width="16" height="16"/>
	<polygon style="fill:#827ED9;" points="248,260 248,212 232,212 224,212 224,260 232,260 	"/>
</g>
<path style="fill:#FED27C;" d="M448,131.976c-2.28,3.032-4.992,5.744-8.024,8.024c3.032,2.28,5.744,4.992,8.024,8.024
	c2.28-3.032,4.992-5.744,8.024-8.024C452.992,137.72,450.28,135.008,448,131.976z"/>
<g>
	<polygon style="fill:#827ED9;" points="387.312,20 430.424,63.112 463.872,44 421.872,20 	"/>
	<polygon style="fill:#827ED9;" points="275.312,20 323.312,68 356.688,68 308.688,20 	"/>
	<polygon style="fill:#827ED9;" points="331.312,20 379.312,68 412.688,68 364.688,20 	"/>
	<polygon style="fill:#827ED9;" points="236.688,68 224,55.312 224,68 232,68 	"/>
	<polygon style="fill:#827ED9;" points="424,213.216 424,258.784 463.872,236 	"/>
</g>
<g>
	<path style="fill:#232323;" d="M483.968,37.056l-56-32C426.76,4.36,425.392,4,424,4h-56h-56h-96c-4.416,0-8,3.584-8,8v64
		c0,4.416,3.584,8,8,8h8v16H72c-1.392,0-2.76,0.36-3.968,1.056l-56,32C9.536,134.48,8,137.128,8,140s1.536,5.52,4.032,6.944l56,32
		C69.24,179.64,70.608,180,72,180h152v16h-8c-4.416,0-8,3.584-8,8v64c0,4.416,3.584,8,8,8h8v160h-16c-4.416,0-8,3.584-8,8v32
		c0,4.416,3.584,8,8,8h80c4.416,0,8-3.584,8-8v-32c0-4.416-3.584-8-8-8h-16V276h152c1.392,0,2.76-0.36,3.968-1.056l56-32
		C486.464,241.52,488,238.872,488,236s-1.536-5.52-4.032-6.944l-56-32C426.76,196.36,425.392,196,424,196H272v-16h8
		c4.416,0,8-3.584,8-8v-64c0-4.416-3.584-8-8-8h-8V84h104h48c1.392,0,2.76-0.36,3.976-1.056l5.088-2.912l0,0l50.904-29.088
		C486.464,49.52,488,46.872,488,44S486.464,38.48,483.968,37.056z M308.688,20l48,48h-33.376l-48-48H308.688z M252.688,20l48,48H264
		h-4.688L224,32.688V20H252.688z M224,68V55.312L236.688,68H232H224z M224,212h8h16v48h-16h-8V212z M288,212v48h-24v-48H288z
		 M408,260h-24v-48h24V260z M368,260h-24v-48h24V260z M328,260h-24v-48h24V260z M280,468h-64v-16h16h32h16V468z M256,436h-16V276h16
		V436z M463.872,236L424,258.784v-45.568L463.872,236z M256,196h-16v-16h16V196z M272,164h-8h-32H74.128l-42-24l42-24H232h32h8V164z
		 M256,100h-16V84h16V100z M379.312,68l-48-48h33.376l48,48H379.312z M430.424,63.112L387.312,20h34.56l42,24L430.424,63.112z"/>
	<rect x="80" y="124" style="fill:#232323;" width="16" height="16"/>
	<rect x="112" y="124" style="fill:#232323;" width="16" height="16"/>
	<rect x="144" y="124" style="fill:#232323;" width="16" height="16"/>
	<rect x="176" y="124" style="fill:#232323;" width="16" height="16"/>
	<rect x="208" y="124" style="fill:#232323;" width="16" height="16"/>
	<rect x="240" y="124" style="fill:#232323;" width="16" height="16"/>
	<rect x="24" y="4" style="fill:#232323;" width="16" height="16"/>
	<polygon style="fill:#232323;" points="24,100 40,100 40,76 56,76 56,60 40,60 40,36 24,36 24,60 8,60 8,76 24,76 	"/>
	<rect x="392" y="316" style="fill:#232323;" width="16" height="16"/>
	<polygon style="fill:#232323;" points="392,372 376,372 376,388 392,388 392,412 408,412 408,388 424,388 424,372 408,372 408,348 
		392,348 	"/>
	<path style="fill:#232323;" d="M456,108c0-4.416-3.584-8-8-8s-8,3.584-8,8c0,13.232-10.768,24-24,24c-4.416,0-8,3.584-8,8
		s3.584,8,8,8c13.232,0,24,10.768,24,24c0,4.416,3.584,8,8,8s8-3.584,8-8c0-13.232,10.768-24,24-24c4.416,0,8-3.584,8-8
		s-3.584-8-8-8C466.768,132,456,121.232,456,108z M448,148.024c-2.28-3.032-4.992-5.744-8.024-8.024
		c3.032-2.28,5.744-4.992,8.024-8.024c2.28,3.032,4.992,5.744,8.024,8.024C452.992,142.28,450.28,144.992,448,148.024z"/>
	<path style="fill:#232323;" d="M32,428c0,4.416,3.584,8,8,8s8-3.584,8-8c0-13.232,10.768-24,24-24c4.416,0,8-3.584,8-8
		s-3.584-8-8-8c-13.232,0-24-10.768-24-24c0-4.416-3.584-8-8-8s-8,3.584-8,8c0,13.232-10.768,24-24,24c-4.416,0-8,3.584-8,8
		s3.584,8,8,8C21.232,404,32,414.768,32,428z M40,387.976c2.28,3.032,4.992,5.744,8.024,8.024c-3.032,2.28-5.744,4.992-8.024,8.024
		c-2.28-3.032-4.992-5.744-8.024-8.024C35.008,393.72,37.72,391.008,40,387.976z"/>
	<rect x="144" y="220" style="fill:#232323;" width="16" height="16"/>
	<polygon style="fill:#232323;" points="144,276 128,276 128,292 144,292 144,316 160,316 160,292 176,292 176,276 160,276 160,252 
		144,252 	"/>
</g>
<g>
</g>
<g>
</g>
<g>
</g>
<g>
</g>
<g>
</g>
<g>
</g>
<g>
</g>
<g>
</g>
<g>
</g>
<g>
</g>
<g>
</g>
<g>
</g>
<g>
</g>
<g>
</g>
<g>
</g>
</svg>
