<?xml version="1.0" encoding="iso-8859-1"?>
<!-- Generator: Adobe Illustrator 19.0.0, SVG Export Plug-In . SVG Version: 6.00 Build 0)  -->
<svg version="1.1" id="Capa_1" xmlns="http://www.w3.org/2000/svg" xmlns:xlink="http://www.w3.org/1999/xlink" x="0px" y="0px"
	 viewBox="0 0 480 480" style="enable-background:new 0 0 480 480;" xml:space="preserve">
<path style="fill:#DD763E;" d="M335.998,8c-75.112,0-136,60.888-136,136s60.888,136,136,136s136-60.888,136-136S411.11,8,335.998,8z
	 M335.998,248c-57.44,0-104-46.56-104-104s46.56-104,104-104s104,46.56,104,104S393.438,248,335.998,248z"/>
<circle style="fill:#FED27C;" cx="335.998" cy="144" r="104"/>
<g>
	<path style="fill:#FFFFFF;" d="M231.782,168h-15.784c-27.528,0-50.488-19.976-55.144-46.192c-4.888,1.152-9.728,2.432-14.536,3.792
		c-2.432,0.688-4.832,1.464-7.24,2.216c-2.28,0.704-4.56,1.384-6.824,2.136c-3.072,1.024-6.112,2.128-9.152,3.24
		c-1.472,0.536-2.952,1.064-4.416,1.624c-3.488,1.336-6.952,2.736-10.392,4.192c-0.896,0.376-1.784,0.752-2.672,1.136
		c-3.84,1.664-7.656,3.392-11.44,5.208c-0.336,0.16-0.68,0.328-1.016,0.488c-12.68,6.136-25.016,13.096-36.944,20.888
		c1.6,31.072,15.992,60.008,39.92,79.944c1.456,1.216,2.968,2.328,4.488,3.416c0.008,0,0.008,0.008,0.016,0.008
		c3.136,2.24,6.416,4.184,9.784,5.88c0.192,0.096,0.384,0.2,0.584,0.296c3.304,1.624,6.696,2.992,10.152,4.104
		c0.24,0.08,0.488,0.152,0.728,0.224c3.504,1.088,7.056,1.928,10.656,2.488c0.088,0.016,0.184,0.024,0.272,0.032
		c7.408,1.12,14.944,1.12,22.352,0c0.088-0.016,0.184-0.024,0.272-0.032c3.592-0.56,7.152-1.4,10.656-2.488
		c0.24-0.072,0.488-0.144,0.728-0.224c3.456-1.112,6.848-2.472,10.152-4.104c0.192-0.096,0.384-0.2,0.584-0.296
		c3.368-1.696,6.648-3.64,9.784-5.88c0.008,0,0.008-0.008,0.008-0.008c1.528-1.088,3.04-2.2,4.496-3.416
		C215.558,226.92,229.87,198.552,231.782,168z"/>
	<path style="fill:#FFFFFF;" d="M164.902,277.496c-0.44,0.104-0.88,0.184-1.32,0.288c-2.808,0.616-5.632,1.104-8.48,1.456
		c-0.456,0.056-0.904,0.128-1.36,0.176c-3.24,0.344-6.488,0.584-9.744,0.584s-6.504-0.24-9.744-0.584
		c-0.456-0.048-0.904-0.12-1.36-0.176c-2.848-0.352-5.672-0.832-8.48-1.456c-0.44-0.096-0.88-0.184-1.32-0.288
		c-6.424-1.52-12.704-3.744-18.736-6.68c-0.12-0.056-0.24-0.096-0.36-0.152V296v11.056l40,20l40-20V296v-25.328
		c-0.12,0.056-0.24,0.096-0.36,0.152C177.606,273.76,171.326,275.984,164.902,277.496z"/>
</g>
<g>
	<polygon style="fill:#827ED9;" points="257.726,336.832 256.582,325.96 199.998,307.104 199.998,312 199.998,352 199.998,464 
		271.11,464 	"/>
	<polygon style="fill:#827ED9;" points="183.998,340.896 183.998,324.944 164.854,334.52 	"/>
	<path style="fill:#827ED9;" d="M435.358,400h-51.36v8c0,4.424-3.584,8-8,8h-40c-4.416,0-8-3.576-8-8v-8h-47.536l4.632,44l2.104,20
		h176.8v-97.872l-14.752,25.816C446.406,396.912,441.078,400,435.358,400z"/>
	<polygon style="fill:#827ED9;" points="343.998,400 367.998,400 367.998,392 367.998,384 343.998,384 343.998,392 	"/>
	<path style="fill:#827ED9;" d="M327.998,376c0-4.424,3.584-8,8-8h40c4.416,0,8,3.576,8,8v8h51.36l22.856-40H274.566l4.208,39.968
		l49.224,0.024V376z"/>
	<polygon style="fill:#827ED9;" points="16.886,464 87.998,464 87.998,352 87.998,312 87.998,307.104 31.414,325.96 	"/>
</g>
<path style="fill:#FED27C;" d="M144.55,109.488c0.44-0.12,0.88-0.264,1.32-0.384c5.144-1.392,10.336-2.68,15.568-3.84l4.824-1.072
	c2.368-0.512,4.848,0.056,6.744,1.568c1.888,1.52,2.992,3.808,2.992,6.24c0,22.056,17.944,40,40,40h23.952h0.048
	c0-52.936-43.064-96-96-96s-96,43.064-96,96v0.856c25.704-16.72,53.272-29.808,82.352-39.152
	C135.046,112.2,139.782,110.8,144.55,109.488z"/>
<g>
	<polygon style="fill:#827ED9;" points="103.998,340.896 123.142,334.52 103.998,324.944 	"/>
	<polygon style="fill:#827ED9;" points="143.998,366.408 128.518,423.16 143.998,454.112 159.478,423.16 	"/>
	<path style="fill:#827ED9;" d="M112.278,421.896l20.072-73.584l-28.352,9.456V464h27.056l-18.208-36.424
		C111.966,425.824,111.766,423.8,112.278,421.896z"/>
	<path style="fill:#827ED9;" d="M175.718,421.896c0.512,1.896,0.32,3.92-0.56,5.68L156.942,464h27.056V357.768l-28.352-9.448
		L175.718,421.896z"/>
</g>
<g>
	<path style="fill:#232323;" d="M478.918,331.984c-1.432-2.472-4.072-3.984-6.92-3.984h-8H272.886l-0.928-8.832
		c-0.328-3.128-2.448-5.76-5.424-6.752l-66.536-22.176v-29.672c0.696-0.544,1.416-1.032,2.104-1.6
		c27.352-22.8,43.576-55.664,45.512-90.968h0.384c4.416,0,8-3.576,8-8v-8c0-61.76-50.24-112-112-112s-112,50.24-112,112v16
		c0,3,1.672,5.744,4.336,7.12c1.16,0.592,2.416,0.88,3.664,0.88c0.328,0,0.648-0.112,0.976-0.152
		c3.776,32.336,19.704,62.096,44.92,83.12c0.68,0.568,1.408,1.056,2.104,1.6v29.672L21.47,312.416
		c-2.976,0.992-5.096,3.624-5.424,6.752l-16,152c-0.24,2.248,0.496,4.504,2.008,6.184S5.734,480,7.998,480h88h96h88h184
		c8.824,0,16-7.176,16-16V344c0-1.648-0.32-3.2-0.784-4.696C480.286,336.96,480.23,334.24,478.918,331.984z M458.214,344l-22.856,40
		h-51.36v-8c0-4.424-3.584-8-8-8h-40c-4.416,0-8,3.576-8,8v7.992l-49.224-0.024L274.566,344H458.214z M343.998,392v-8h24v8v8h-24
		V392z M256.582,325.96l1.144,10.872l0,0L271.11,464h-71.112V352v-40v-4.896L256.582,325.96z M159.478,423.16l-15.48,30.952
		l-15.48-30.952l15.48-56.752L159.478,423.16z M183.998,340.896l-19.144-6.376l19.144-9.576V340.896z M103.998,340.896v-15.952
		l19.144,9.576L103.998,340.896z M47.998,152c0-52.936,43.064-96,96-96s96,43.064,96,96h-0.048h-23.952c-22.056,0-40-17.944-40-40
		c0-2.432-1.104-4.72-2.992-6.24c-1.888-1.512-4.376-2.088-6.744-1.568l-4.824,1.072c-5.232,1.16-10.416,2.448-15.568,3.84
		c-0.448,0.12-0.88,0.264-1.32,0.384c-4.768,1.312-9.512,2.712-14.2,4.216l0,0c-29.08,9.352-56.648,22.432-82.352,39.152V152z
		 M56.222,166.728c11.928-7.784,24.264-14.744,36.944-20.888c0.336-0.16,0.672-0.328,1.016-0.488c3.784-1.816,7.6-3.544,11.44-5.208
		c0.888-0.384,1.784-0.76,2.672-1.136c3.44-1.456,6.904-2.856,10.392-4.192c1.464-0.56,2.944-1.088,4.416-1.624
		c3.04-1.112,6.08-2.216,9.152-3.24c2.256-0.752,4.544-1.432,6.824-2.136c2.408-0.744,4.816-1.52,7.24-2.216
		c4.808-1.36,9.648-2.64,14.536-3.792C165.51,148.024,188.47,168,215.998,168h15.784c-1.912,30.552-16.224,58.92-39.92,78.672
		c-1.456,1.216-2.968,2.328-4.488,3.416c0,0-0.008,0.008-0.016,0.008c-3.136,2.24-6.416,4.184-9.784,5.88
		c-0.192,0.096-0.384,0.2-0.584,0.296c-3.304,1.624-6.696,2.992-10.152,4.104c-0.24,0.08-0.488,0.152-0.728,0.224
		c-3.504,1.088-7.056,1.928-10.656,2.488c-0.088,0.016-0.184,0.024-0.272,0.032c-7.408,1.12-14.944,1.12-22.352,0
		c-0.088-0.016-0.184-0.024-0.272-0.032c-3.592-0.56-7.152-1.4-10.656-2.488c-0.24-0.072-0.488-0.144-0.728-0.224
		c-3.456-1.112-6.848-2.472-10.152-4.104c-0.192-0.096-0.384-0.2-0.584-0.296c-3.368-1.696-6.648-3.64-9.784-5.88
		c-0.008,0-0.008-0.008-0.016-0.008c-1.52-1.088-3.032-2.2-4.488-3.416C72.214,226.736,57.822,197.8,56.222,166.728z
		 M123.094,277.496c0.44,0.104,0.88,0.184,1.32,0.288c2.808,0.616,5.64,1.104,8.48,1.456c0.456,0.056,0.904,0.128,1.36,0.176
		c3.24,0.344,6.488,0.584,9.744,0.584s6.504-0.24,9.744-0.584c0.456-0.048,0.904-0.12,1.36-0.176
		c2.848-0.352,5.672-0.832,8.48-1.456c0.44-0.096,0.88-0.184,1.32-0.288c6.424-1.52,12.696-3.744,18.736-6.68
		c0.12-0.056,0.24-0.096,0.36-0.152V296v11.056l-40,20l-40-20V296v-25.328c0.12,0.056,0.24,0.096,0.36,0.152
		C110.39,273.76,116.67,275.984,123.094,277.496z M31.414,325.96l56.584-18.856V312v40v112H16.886L31.414,325.96z M103.998,357.768
		l28.352-9.448l-20.072,73.584c-0.512,1.896-0.32,3.92,0.56,5.68L131.054,464h-27.056V357.768z M156.942,464l18.208-36.424
		c0.88-1.76,1.08-3.784,0.56-5.68l-20.072-73.584l28.36,9.456V464H156.942z M287.198,464l-2.104-20l-4.632-44h47.536v8
		c0,4.424,3.584,8,8,8h40c4.416,0,8-3.576,8-8v-8h51.36c5.72,0,11.048-3.088,13.888-8.064l14.752-25.808V464H287.198z"/>
	<path style="fill:#232323;" d="M335.998,0c-42.536,0-82.672,18.664-110.12,51.208L238.11,61.52C262.51,32.592,298.19,16,335.998,16
		c70.576,0,128,57.424,128,128s-57.424,128-128,128c-34.264,0-66.456-13.36-90.648-37.624l-11.328,11.296
		C261.238,272.968,297.454,288,335.998,288c79.4,0,144-64.6,144-144S415.398,0,335.998,0z"/>
	<path style="fill:#232323;" d="M293.022,135.432l40,16c0.96,0.384,1.976,0.568,2.976,0.568c1.376,0,2.744-0.352,3.968-1.056l56-32
		l-7.936-13.888l-52.648,30.088l-36.408-14.568L293.022,135.432z"/>
	<path style="fill:#232323;" d="M267.11,232.312C286.95,247.816,310.766,256,335.998,256c61.76,0,112-50.24,112-112
		s-50.24-112-112-112c-21.208,0-41.864,5.96-59.72,17.232l8.536,13.528c15.304-9.648,33-14.76,51.184-14.76
		c52.936,0,96,43.064,96,96s-43.064,96-96,96c-21.624,0-42.04-7.016-59.032-20.296L267.11,232.312z"/>
	<rect x="327.998" y="56" style="fill:#232323;" width="16" height="16"/>
	<rect x="407.998" y="136" style="fill:#232323;" width="16" height="16"/>
	<rect x="327.998" y="216" style="fill:#232323;" width="16" height="16"/>
</g>
<g>
</g>
<g>
</g>
<g>
</g>
<g>
</g>
<g>
</g>
<g>
</g>
<g>
</g>
<g>
</g>
<g>
</g>
<g>
</g>
<g>
</g>
<g>
</g>
<g>
</g>
<g>
</g>
<g>
</g>
</svg>
