<?xml version="1.0" encoding="iso-8859-1"?>
<!-- Generator: Adobe Illustrator 19.0.0, SVG Export Plug-In . SVG Version: 6.00 Build 0)  -->
<svg version="1.1" id="Capa_1" xmlns="http://www.w3.org/2000/svg" xmlns:xlink="http://www.w3.org/1999/xlink" x="0px" y="0px"
	 viewBox="0 0 480 480" style="enable-background:new 0 0 480 480;" xml:space="preserve">
<path style="fill:#827ED9;" d="M457.352,186.352c2.176,4.72,1.928,10.224-0.672,14.72c-2.6,4.504-7.24,7.464-12.416,7.928
	L440,209.392V384c0,3.104-1.8,5.928-4.608,7.248c-1.08,0.504-2.24,0.752-3.392,0.752c-1.832,0-3.656-0.632-5.12-1.856l-2.88-2.4V464
	h40V151.44l-17.184,12.12L457.352,186.352z"/>
<path style="fill:#FED27C;" d="M424,210.832l-4.744,0.424l-3.264,36.32c-0.232,2.592-1.712,4.912-3.968,6.208
	c-2.248,1.304-5,1.424-7.36,0.336l-10.288-4.76c-0.008,0-0.008,0-0.016-0.008l-22.792-10.544l-8.952,12.688l-5.528,7.84
	c0,0.008-0.008,0.008-0.008,0.016l-6.528,9.256c-0.488,0.688-1.096,1.248-1.752,1.744c-0.072,0.048-0.096,0.128-0.168,0.184
	c-0.112,0.08-0.24,0.104-0.352,0.176c-0.472,0.296-0.96,0.536-1.48,0.736c-0.208,0.08-0.408,0.176-0.616,0.232
	c-0.688,0.192-1.4,0.32-2.128,0.32c-0.008,0-0.024,0.008-0.032,0.008l0,0v34.544v41.632v18.744l34.88-29.064
	C380.36,336.616,382.176,336,384,336s3.64,0.616,5.12,1.856L424,366.92V210.832z"/>
<path style="fill:#FFFFFF;" d="M378.72,358.816l-37.6,31.336c-2.384,1.992-5.696,2.408-8.512,1.104
	C329.8,389.928,328,387.104,328,384v-27.368c-16.568,1.224-32.672,4.296-48,9.16V464h128v-89.584l-15.488-12.904
	C388.24,360.512,383.688,359.624,378.72,358.816z"/>
<g>
	<path style="fill:#827ED9;" d="M328,310.288l-8-6.664l-42.88,35.728c-1.464,1.224-3.288,1.856-5.12,1.856
		c-1.152,0-2.312-0.248-3.392-0.752c-2.808-1.32-4.608-4.144-4.608-7.248V210.824l-20.264-1.816
		c-5.176-0.464-9.824-3.424-12.424-7.928c-2.608-4.504-2.856-10-0.672-14.72l10.544-22.792L224,151.432V464h40V360
		c0-3.448,2.2-6.504,5.472-7.592l2.696-0.896c17.76-5.92,36.536-9.448,55.832-10.784V310.288z"/>
	<path style="fill:#827ED9;" d="M16,464h16V312c0-3.448,2.2-6.504,5.472-7.592l2.696-0.896c46.312-15.44,97.336-15.448,143.664,0
		l2.696,0.896C189.8,305.496,192,308.552,192,312v152h16V136V16H16V464z M144,48c0-4.416,3.584-8,8-8h32c4.416,0,8,3.584,8,8v48
		c0,4.416-3.584,8-8,8h-32c-4.416,0-8-3.584-8-8V48z M144,128c0-4.416,3.584-8,8-8h32c4.416,0,8,3.584,8,8v48c0,4.416-3.584,8-8,8
		h-32c-4.416,0-8-3.584-8-8V128z M144,208c0-4.416,3.584-8,8-8h32c4.416,0,8,3.584,8,8v48c0,4.416-3.584,8-8,8h-32
		c-4.416,0-8-3.584-8-8V208z M88,48c0-4.416,3.584-8,8-8h32c4.416,0,8,3.584,8,8v48c0,4.416-3.584,8-8,8H96c-4.416,0-8-3.584-8-8V48
		z M88,128c0-4.416,3.584-8,8-8h32c4.416,0,8,3.584,8,8v48c0,4.416-3.584,8-8,8H96c-4.416,0-8-3.584-8-8V128z M88,208
		c0-4.416,3.584-8,8-8h32c4.416,0,8,3.584,8,8v48c0,4.416-3.584,8-8,8H96c-4.416,0-8-3.584-8-8V208z M32,48c0-4.416,3.584-8,8-8h32
		c4.416,0,8,3.584,8,8v48c0,4.416-3.584,8-8,8H40c-4.416,0-8-3.584-8-8V48z M32,128c0-4.416,3.584-8,8-8h32c4.416,0,8,3.584,8,8v48
		c0,4.416-3.584,8-8,8H40c-4.416,0-8-3.584-8-8V128z M32,208c0-4.416,3.584-8,8-8h32c4.416,0,8,3.584,8,8v48c0,4.416-3.584,8-8,8H40
		c-4.416,0-8-3.584-8-8V208z"/>
</g>
<g>
	<rect x="48" y="136" style="fill:#FFFFFF;" width="16" height="32"/>
	<rect x="48" y="56" style="fill:#FFFFFF;" width="16" height="32"/>
</g>
<circle style="fill:#DD763E;" cx="344" cy="136" r="64"/>
<path style="fill:#FED27C;" d="M256.648,159.424c0.16,0.6,0.24,1.216,0.328,1.832c0.04,0.288,0.128,0.56,0.152,0.848
	c0.248,2.728-0.192,5.544-1.416,8.168l-10.544,22.792l25.008,2.24c0.616,0.056,1.2,0.2,1.784,0.32c0.256,0,0.488-0.112,0.744-0.096
	l4.12,0.368c3.856,0.344,6.912,3.4,7.256,7.256l0.6,6.648l0,0l2.248,25.016l22.792-10.544c0.008,0,0.008,0,0.016-0.008l6.04-2.792
	c3.512-1.616,7.672-0.496,9.896,2.648l3.816,5.4c0.008,0.016,0.024,0.024,0.032,0.04L344,250.12l10.216-14.488l4.264-6.048
	c0.008-0.008,0.008-0.008,0.016-0.016l3.832-5.432c2.224-3.144,6.392-4.264,9.896-2.648l6.04,2.792c0.008,0,0.008,0,0.016,0.008
	l22.792,10.544l2.24-25.008c0-0.016,0.008-0.024,0.008-0.04l0.592-6.616c0.344-3.856,3.4-6.904,7.256-7.256l6.632-0.592
	c0.008,0,0.008,0,0.016,0l25.016-2.248l-10.544-22.792c-3.24-7.008-1.016-15.336,5.296-19.792L458.12,136l-20.536-14.488
	c-6.312-4.448-8.536-12.776-5.296-19.784l10.544-22.8l-25.008-2.24c-7.712-0.696-13.816-6.8-14.504-14.504l-2.248-25.016
	L378.28,47.712c-7.016,3.248-15.336,1.008-19.792-5.296L344,21.88l-14.488,20.536c-4.448,6.312-12.768,8.544-19.784,5.296
	l-22.8-10.544l-2.24,25.008c-0.696,7.712-6.8,13.816-14.504,14.504l-25.016,2.248l10.544,22.792
	c3.24,7.008,1.016,15.336-5.296,19.792L229.88,136l20.536,14.488C253.568,152.712,255.704,155.912,256.648,159.424z M344,56
	c44.112,0,80,35.888,80,80s-35.888,80-80,80s-80-35.888-80-80S299.888,56,344,56z"/>
<rect x="104" y="216" style="fill:#FFFFFF;" width="16" height="32"/>
<path style="fill:#FED27C;" d="M293.648,249.352c-0.008,0-0.008,0-0.016,0l-10.296,4.76c-1.064,0.488-2.2,0.736-3.336,0.736v61.264
	l34.88-29.064c2.968-2.48,7.272-2.48,10.24,0l2.88,2.4V255.2l-1.872-2.656l-9.688-13.736L293.648,249.352z"/>
<g>
	<rect x="48" y="216" style="fill:#FFFFFF;" width="16" height="32"/>
	<rect x="160" y="216" style="fill:#FFFFFF;" width="16" height="32"/>
	<rect x="160" y="56" style="fill:#FFFFFF;" width="16" height="32"/>
	<path style="fill:#FFFFFF;" d="M48,317.792V464h128V317.792C134.608,304.64,89.392,304.64,48,317.792z"/>
	<rect x="160" y="136" style="fill:#FFFFFF;" width="16" height="32"/>
	<rect x="104" y="56" style="fill:#FFFFFF;" width="16" height="32"/>
	<rect x="104" y="136" style="fill:#FFFFFF;" width="16" height="32"/>
</g>
<g>
	<path style="fill:#232323;" d="M40,104h32c4.416,0,8-3.584,8-8V48c0-4.416-3.584-8-8-8H40c-4.416,0-8,3.584-8,8v48
		C32,100.416,35.584,104,40,104z M48,56h16v32H48V56z"/>
	<path style="fill:#232323;" d="M96,104h32c4.416,0,8-3.584,8-8V48c0-4.416-3.584-8-8-8H96c-4.416,0-8,3.584-8,8v48
		C88,100.416,91.584,104,96,104z M104,56h16v32h-16V56z"/>
	<path style="fill:#232323;" d="M40,184h32c4.416,0,8-3.584,8-8v-48c0-4.416-3.584-8-8-8H40c-4.416,0-8,3.584-8,8v48
		C32,180.416,35.584,184,40,184z M48,136h16v32H48V136z"/>
	<path style="fill:#232323;" d="M96,184h32c4.416,0,8-3.584,8-8v-48c0-4.416-3.584-8-8-8H96c-4.416,0-8,3.584-8,8v48
		C88,180.416,91.584,184,96,184z M104,136h16v32h-16V136z"/>
	<path style="fill:#232323;" d="M40,264h32c4.416,0,8-3.584,8-8v-48c0-4.416-3.584-8-8-8H40c-4.416,0-8,3.584-8,8v48
		C32,260.416,35.584,264,40,264z M48,216h16v32H48V216z"/>
	<path style="fill:#232323;" d="M96,264h32c4.416,0,8-3.584,8-8v-48c0-4.416-3.584-8-8-8H96c-4.416,0-8,3.584-8,8v48
		C88,260.416,91.584,264,96,264z M104,216h16v32h-16V216z"/>
	<path style="fill:#232323;" d="M152,264h32c4.416,0,8-3.584,8-8v-48c0-4.416-3.584-8-8-8h-32c-4.416,0-8,3.584-8,8v48
		C144,260.416,147.584,264,152,264z M160,216h16v32h-16V216z"/>
	<path style="fill:#232323;" d="M472,128h-0.112c-1.144-1.968-2.64-3.728-4.544-5.072l-20.536-14.488l10.544-22.792
		c2.184-4.72,1.936-10.224-0.672-14.72c-2.6-4.504-7.248-7.472-12.424-7.928l-25.008-2.248L417,35.736
		c-0.472-5.176-3.432-9.816-7.928-12.416c-4.504-2.608-10.008-2.848-14.72-0.672l-22.8,10.544l-14.488-20.528
		C354.08,8.416,349.192,5.88,344,5.88s-10.08,2.536-13.072,6.776L316.44,33.192l-22.792-10.544
		c-4.72-2.176-10.224-1.928-14.72,0.672c-4.504,2.6-7.472,7.248-7.928,12.424l-2.248,25.008L243.736,63
		c-5.176,0.472-9.816,3.432-12.416,7.928s-2.848,10-0.672,14.72l10.544,22.8L224,120.568V8c0-4.416-3.584-8-8-8H8
		C3.584,0,0,3.584,0,8v464c0,4.416,3.584,8,8,8h32h144h32h56h144h56c4.416,0,8-3.584,8-8V136C480,131.584,476.416,128,472,128z
		 M250.416,121.512c6.312-4.456,8.536-12.784,5.296-19.792l-10.544-22.792l25.016-2.248c7.704-0.696,13.808-6.8,14.504-14.504
		l2.24-25.008l22.8,10.544c7.016,3.248,15.336,1.008,19.784-5.296L344,21.88l14.488,20.536c4.464,6.312,12.776,8.544,19.792,5.296
		l22.792-10.544l2.248,25.016c0.696,7.704,6.8,13.808,14.504,14.504l25.008,2.24l-10.544,22.8
		c-3.24,7.008-1.008,15.336,5.296,19.784L458.12,136l-20.536,14.488c-6.312,4.456-8.536,12.784-5.296,19.792l10.544,22.792
		l-25.016,2.248c-0.008,0-0.008,0-0.016,0l-6.632,0.592c-3.848,0.344-6.904,3.4-7.256,7.256l-0.592,6.616
		c0,0.016-0.008,0.024-0.008,0.04l-2.24,25.008l-22.792-10.544c-0.008,0-0.008,0-0.016-0.008l-6.04-2.792
		c-3.504-1.616-7.664-0.496-9.896,2.648l-3.832,5.432c-0.008,0.008-0.008,0.008-0.016,0.016l-4.264,6.048L344,250.12l-14.488-20.536
		c-0.008-0.016-0.024-0.024-0.032-0.04l-3.816-5.4c-2.224-3.144-6.376-4.264-9.896-2.648l-6.04,2.792c-0.008,0-0.008,0-0.016,0.008
		L286.92,234.84l-2.248-25.016l0,0l-0.6-6.648c-0.344-3.856-3.4-6.912-7.256-7.256l-4.12-0.368
		c-0.256-0.016-0.496,0.088-0.744,0.096c-0.592-0.12-1.176-0.264-1.784-0.32l-25.008-2.24l10.544-22.792
		c1.216-2.632,1.664-5.448,1.416-8.168c-0.024-0.288-0.112-0.568-0.152-0.848c-0.088-0.616-0.168-1.232-0.328-1.832
		c-0.944-3.512-3.072-6.712-6.232-8.936L229.88,136L250.416,121.512z M280,254.856c1.136,0,2.272-0.248,3.336-0.736l10.296-4.76
		c0.008,0,0.008,0,0.016,0l22.792-10.544l9.688,13.736L328,255.2v34.264l-2.88-2.4c-2.968-2.48-7.272-2.48-10.24,0L280,316.128
		V254.856z M389.12,337.856c-1.48-1.24-3.296-1.856-5.12-1.856s-3.64,0.616-5.12,1.856L344,366.92v-18.744v-41.632V272
		c0,0,0,0,0.008,0s0.024-0.008,0.032-0.008c0.728,0,1.44-0.128,2.128-0.32c0.208-0.056,0.408-0.152,0.616-0.232
		c0.52-0.192,1.008-0.432,1.48-0.736c0.112-0.072,0.24-0.096,0.352-0.176c0.072-0.048,0.104-0.128,0.168-0.184
		c0.656-0.496,1.264-1.056,1.752-1.744l6.528-9.256c0-0.008,0.008-0.008,0.008-0.016l5.528-7.84l8.952-12.688l22.792,10.544
		c0.008,0,0.008,0,0.016,0.008l10.288,4.76c2.368,1.088,5.112,0.968,7.36-0.336s3.728-3.616,3.968-6.208l3.264-36.32l4.76-0.416
		V366.92L389.12,337.856z M16,16h192v120v328h-16V312c0-3.448-2.2-6.504-5.472-7.592l-2.696-0.896
		c-46.328-15.448-97.344-15.44-143.664,0l-2.696,0.896C34.2,305.496,32,308.552,32,312v152H16V16z M48,464V317.792
		c41.392-13.152,86.608-13.152,128,0V464H48z M224,151.432l17.184,12.128l-10.544,22.792c-2.184,4.72-1.936,10.224,0.672,14.72
		c2.6,4.504,7.248,7.472,12.424,7.928L264,210.824v122.384c0,3.104,1.8,5.928,4.608,7.248c1.088,0.504,2.24,0.752,3.392,0.752
		c1.832,0,3.656-0.632,5.12-1.856L320,303.624l8,6.664v30.44c-19.296,1.336-38.064,4.864-55.832,10.784l-2.696,0.896
		C266.2,353.496,264,356.552,264,360v104h-40V151.432z M280,464v-98.208c15.328-4.864,31.432-7.936,48-9.16V384
		c0,3.104,1.8,5.928,4.608,7.248c2.816,1.312,6.128,0.888,8.512-1.104l37.6-31.336c4.968,0.808,9.52,1.696,13.792,2.696L408,374.416
		V464H280z M464,464h-40v-76.256l2.88,2.4c1.464,1.224,3.288,1.856,5.12,1.856c1.152,0,2.312-0.248,3.392-0.752
		C438.2,389.928,440,387.104,440,384V209.392l4.264-0.384c5.176-0.472,9.816-3.432,12.416-7.928c2.6-4.496,2.848-10,0.672-14.72
		l-10.544-22.792L464,151.44V464z"/>
	<path style="fill:#232323;" d="M152,104h32c4.416,0,8-3.584,8-8V48c0-4.416-3.584-8-8-8h-32c-4.416,0-8,3.584-8,8v48
		C144,100.416,147.584,104,152,104z M160,56h16v32h-16V56z"/>
	<path style="fill:#232323;" d="M152,184h32c4.416,0,8-3.584,8-8v-48c0-4.416-3.584-8-8-8h-32c-4.416,0-8,3.584-8,8v48
		C144,180.416,147.584,184,152,184z M160,136h16v32h-16V136z"/>
	<path style="fill:#232323;" d="M344,216c44.112,0,80-35.888,80-80s-35.888-80-80-80s-80,35.888-80,80S299.888,216,344,216z M344,72
		c35.288,0,64,28.712,64,64s-28.712,64-64,64s-64-28.712-64-64S308.712,72,344,72z"/>
</g>
<g>
</g>
<g>
</g>
<g>
</g>
<g>
</g>
<g>
</g>
<g>
</g>
<g>
</g>
<g>
</g>
<g>
</g>
<g>
</g>
<g>
</g>
<g>
</g>
<g>
</g>
<g>
</g>
<g>
</g>
</svg>
