<?xml version="1.0" encoding="iso-8859-1"?>
<!-- Generator: Adobe Illustrator 19.0.0, SVG Export Plug-In . SVG Version: 6.00 Build 0)  -->
<svg version="1.1" id="Capa_1" xmlns="http://www.w3.org/2000/svg" xmlns:xlink="http://www.w3.org/1999/xlink" x="0px" y="0px"
	 viewBox="0 0 480 480" style="enable-background:new 0 0 480 480;" xml:space="preserve">
<rect x="428" y="56" style="fill:#FED27C;" width="16" height="16"/>
<g>
	<path style="fill:#827ED9;" d="M179.72,381.896c0.512,1.896,0.32,3.92-0.56,5.68l-24,48C153.8,438.288,151.032,440,148,440
		c-3.032,0-5.8-1.712-7.16-4.424l-24-48c-0.88-1.76-1.08-3.784-0.56-5.68l20.072-73.584L108,317.768V464h80V317.768l-28.352-9.448
		L179.72,381.896z"/>
	<rect x="172" y="144" style="fill:#827ED9;" width="32" height="16"/>
</g>
<path style="fill:#FFFFFF;" d="M235.784,128H220c-27.528,0-50.496-19.976-55.144-46.192c-4.888,1.152-9.728,2.432-14.536,3.792
	c-2.44,0.696-4.856,1.472-7.28,2.224c-2.264,0.696-4.536,1.376-6.784,2.128c-3.08,1.024-6.128,2.128-9.176,3.248
	c-1.472,0.536-2.944,1.064-4.4,1.616c-3.488,1.336-6.952,2.736-10.392,4.192c-0.896,0.376-1.784,0.752-2.672,1.136
	c-3.84,1.664-7.648,3.392-11.432,5.2c-0.344,0.168-0.688,0.336-1.04,0.504c-12.672,6.136-25,13.096-36.928,20.88
	c1.592,31.072,15.992,60.008,39.92,79.944c1.456,1.216,2.968,2.328,4.496,3.416h0.008c3.128,2.232,6.4,4.168,9.752,5.864
	c0.216,0.104,0.424,0.224,0.64,0.328c3.28,1.616,6.656,2.976,10.096,4.08c0.264,0.088,0.528,0.168,0.8,0.248
	c3.48,1.072,7.016,1.912,10.584,2.472c0.12,0.016,0.24,0.024,0.352,0.048c7.376,1.112,14.872,1.112,22.248,0
	c0.12-0.016,0.232-0.024,0.352-0.048c3.576-0.552,7.112-1.392,10.6-2.472c0.264-0.08,0.52-0.16,0.784-0.24
	c3.44-1.104,6.824-2.464,10.112-4.08c0.208-0.104,0.416-0.216,0.624-0.32c3.36-1.696,6.632-3.632,9.76-5.864h0.008
	c1.528-1.088,3.04-2.208,4.496-3.416C219.552,186.92,233.864,158.552,235.784,128z M164,176c-4.424,0-8-3.576-8-8v-8h-16v8
	c0,4.424-3.576,8-8,8H84c-4.424,0-8-3.576-8-8v-32c0-4.424,3.576-8,8-8h48c4.424,0,8,3.576,8,8v8h16v-8c0-4.424,3.576-8,8-8h48
	c4.424,0,8,3.576,8,8v32c0,4.424-3.576,8-8,8H164z"/>
<polygon style="fill:#827ED9;" points="204,312 204,464 276,464 276,310.336 204,293.4 "/>
<g>
	<path style="fill:#FED27C;" d="M376.112,313.728C373.328,317.656,368.808,320,364,320s-9.328-2.344-12.104-6.264l-11.768-16.68
		L324,304.512v76.176l34.344-34.344c1.56-1.56,3.608-2.344,5.656-2.344s4.096,0.784,5.656,2.344L404,380.688v-76.176l-16.136-7.456
		L376.112,313.728z"/>
	<rect x="340" y="16" style="fill:#FED27C;" width="16" height="16"/>
</g>
<rect x="92" y="144" style="fill:#827ED9;" width="32" height="16"/>
<circle style="fill:#DD763E;" cx="364" cy="208" r="56"/>
<path style="fill:#FED27C;" d="M438.12,178.304l8.264-17.864l-19.624-1.768c-7.152-0.648-12.792-6.304-13.424-13.448l-1.768-19.608
	l-17.88,8.264c-6.512,3.008-14.208,0.944-18.328-4.904L364,112.864l-11.368,16.12c-4.112,5.856-11.808,7.904-18.328,4.896
	l-17.864-8.264l-1.768,19.624c-0.648,7.152-6.304,12.792-13.448,13.424l-19.608,1.768l8.264,17.88
	c3.016,6.504,0.952,14.2-4.904,18.328L268.864,208l16.12,11.368c5.848,4.12,7.912,11.824,4.896,18.328l-8.264,17.864l19.624,1.768
	c7.152,0.648,12.792,6.304,13.424,13.448l1.768,19.608l17.88-8.264c0.92-0.424,1.864-0.72,2.816-0.952
	c0.32-0.08,0.64-0.112,0.96-0.16c0.648-0.112,1.296-0.184,1.944-0.208c0.168-0.008,0.328-0.056,0.496-0.056s0.328,0.056,0.488,0.056
	c0.848,0.024,1.688,0.128,2.512,0.296c0.2,0.04,0.408,0.056,0.608,0.112c1.008,0.256,1.976,0.616,2.912,1.08
	c0.224,0.112,0.432,0.248,0.648,0.368c0.72,0.4,1.4,0.856,2.056,1.384c0.24,0.192,0.472,0.376,0.696,0.576
	c0.792,0.72,1.544,1.504,2.184,2.408L364,303.136l11.368-16.12c4.128-5.84,11.824-7.896,18.328-4.896l17.864,8.264l1.768-19.616
	c0.648-7.152,6.304-12.792,13.448-13.424l19.608-1.768l-8.264-17.88c-3.016-6.504-0.952-14.2,4.904-18.328L459.136,208
	l-16.12-11.368C437.168,192.512,435.104,184.816,438.12,178.304z M364,280c-39.704,0-72-32.296-72-72s32.296-72,72-72
	s72,32.296,72,72S403.704,280,364,280z"/>
<path style="fill:#FFFFFF;" d="M168.824,237.52c-0.36,0.088-0.72,0.152-1.08,0.232c-2.936,0.656-5.888,1.16-8.864,1.52
	c-0.328,0.04-0.656,0.088-0.984,0.128c-3.288,0.36-6.584,0.608-9.888,0.608c-3.304,0-6.6-0.248-9.888-0.608
	c-0.328-0.04-0.656-0.088-0.984-0.128c-2.976-0.36-5.928-0.864-8.864-1.52c-0.36-0.08-0.72-0.152-1.08-0.232
	c-6.424-1.512-12.712-3.728-18.752-6.664c-0.136-0.064-0.288-0.112-0.424-0.176v36.376l40,20l40-20V230.68
	c-0.136,0.072-0.288,0.112-0.424,0.176C181.528,233.792,175.248,236.008,168.824,237.52z"/>
<polygon style="fill:#827ED9;" points="108,300.896 127.144,294.52 108,284.944 "/>
<path style="fill:#FED27C;" d="M134.456,73.68c4.4-1.416,8.848-2.712,13.312-3.952c0.728-0.2,1.44-0.44,2.168-0.632
	c5.128-1.384,10.296-2.672,15.512-3.832l4.824-1.072c2.392-0.512,4.84,0.056,6.744,1.568C178.896,67.28,180,69.568,180,72
	c0,22.056,17.944,40,40,40h23.952H244c0-52.936-43.064-96-96-96s-96,43.064-96,96v0.856c25.472-16.568,52.776-29.552,81.56-38.88
	C133.864,73.888,134.152,73.776,134.456,73.68z"/>
<g>
	<polygon style="fill:#827ED9;" points="188,300.896 188,284.944 168.856,294.52 	"/>
	<polygon style="fill:#827ED9;" points="163.48,383.16 148,326.408 132.52,383.16 148,414.112 	"/>
	<polygon style="fill:#827ED9;" points="20,464 92,464 92,312 92,293.4 20,310.336 	"/>
</g>
<g>
	<path style="fill:#232323;" d="M285.832,296.208L204,276.96V272v-51.432c0.696-0.544,1.416-1.032,2.104-1.6
		c27.352-22.8,43.576-55.664,45.512-90.968H252c4.424,0,8-3.576,8-8v-8C260,50.24,209.76,0,148,0S36,50.24,36,112v16
		c0,3,1.672,5.744,4.336,7.12c1.16,0.592,2.416,0.88,3.664,0.88c0.328,0,0.648-0.112,0.976-0.152
		c3.776,32.336,19.712,62.104,44.92,83.12c0.68,0.568,1.408,1.056,2.104,1.6V272v4.96l-81.832,19.248C6.552,297.064,4,300.288,4,304
		v168c0,4.424,3.576,8,8,8h88h96h88c4.424,0,8-3.576,8-8V304C292,300.288,289.448,297.064,285.832,296.208z M163.48,383.16
		L148,414.112l-15.48-30.952L148,326.408L163.48,383.16z M188,300.896l-19.144-6.376L188,284.944V300.896z M108,300.896v-15.952
		l19.144,9.576L108,300.896z M52,112c0-52.936,43.064-96,96-96s96,43.064,96,96h-0.048H220c-22.056,0-40-17.944-40-40
		c0-2.432-1.104-4.72-2.992-6.24c-1.896-1.512-4.352-2.088-6.744-1.568l-4.824,1.072c-5.216,1.16-10.384,2.44-15.512,3.832
		c-0.728,0.2-1.44,0.432-2.168,0.632c-4.472,1.24-8.912,2.544-13.312,3.952c-0.304,0.096-0.592,0.208-0.896,0.304
		c-28.784,9.328-56.088,22.312-81.56,38.88V112H52z M60.224,126.728c11.928-7.784,24.248-14.744,36.928-20.88
		c0.344-0.168,0.688-0.336,1.04-0.504c3.776-1.816,7.592-3.536,11.432-5.2c0.888-0.384,1.784-0.76,2.672-1.136
		c3.44-1.456,6.904-2.856,10.392-4.192c1.464-0.56,2.936-1.08,4.4-1.616c3.048-1.12,6.096-2.224,9.176-3.248
		c2.248-0.744,4.52-1.424,6.784-2.128c2.424-0.752,4.84-1.528,7.28-2.224c4.808-1.36,9.648-2.64,14.536-3.792
		C169.504,108.024,192.472,128,220,128h15.784c-1.912,30.552-16.224,58.92-39.928,78.672c-1.456,1.216-2.968,2.328-4.488,3.416
		c0,0-0.008,0-0.008,0.008c-3.128,2.232-6.4,4.168-9.76,5.864c-0.208,0.104-0.416,0.216-0.624,0.32
		c-3.288,1.616-6.664,2.976-10.112,4.08c-0.256,0.08-0.52,0.16-0.784,0.24c-3.48,1.08-7.024,1.92-10.6,2.472
		c-0.12,0.016-0.232,0.024-0.352,0.048c-7.376,1.112-14.872,1.112-22.248,0c-0.12-0.016-0.24-0.024-0.352-0.048
		c-3.576-0.552-7.112-1.392-10.584-2.472c-0.264-0.08-0.536-0.16-0.8-0.248c-3.44-1.104-6.808-2.464-10.096-4.08
		c-0.216-0.104-0.424-0.224-0.64-0.328c-3.36-1.696-6.624-3.624-9.752-5.856h-0.008c-1.52-1.088-3.032-2.2-4.496-3.416
		C76.216,186.736,61.824,157.8,60.224,126.728z M127.176,237.52c0.36,0.088,0.72,0.152,1.08,0.232
		c2.936,0.656,5.888,1.16,8.864,1.52c0.328,0.04,0.656,0.088,0.984,0.128c3.288,0.36,6.584,0.608,9.888,0.608
		c3.304,0,6.6-0.248,9.888-0.608c0.328-0.04,0.656-0.088,0.984-0.128c2.976-0.36,5.928-0.864,8.864-1.52
		c0.36-0.08,0.72-0.152,1.08-0.232c6.424-1.512,12.712-3.728,18.752-6.664c0.136-0.064,0.288-0.112,0.424-0.176v36.376l-40,20
		l-40-20V230.68c0.136,0.072,0.288,0.112,0.424,0.176C114.472,233.792,120.752,236.008,127.176,237.52z M20,310.336L92,293.4V312
		v152H20V310.336z M108,464V317.768l28.352-9.448l-20.072,73.584c-0.512,1.896-0.32,3.92,0.56,5.68l24,48
		c1.36,2.704,4.128,4.416,7.16,4.416c3.032,0,5.8-1.712,7.16-4.424l24-48c0.88-1.76,1.08-3.784,0.56-5.68l-20.072-73.584
		L188,317.768V464H108z M276,464h-72V312v-18.6l72,16.936V464z"/>
	<path style="fill:#232323;" d="M140,168v-8h16v8c0,4.424,3.576,8,8,8h48c4.424,0,8-3.576,8-8v-32c0-4.424-3.576-8-8-8h-48
		c-4.424,0-8,3.576-8,8v8h-16v-8c0-4.424-3.576-8-8-8H84c-4.424,0-8,3.576-8,8v32c0,4.424,3.576,8,8,8h48
		C136.424,176,140,172.424,140,168z M172,144h32v16h-32V144z M124,160H92v-16h32V160z"/>
	<path style="fill:#232323;" d="M469.728,195.888l-16.672-11.76l8.552-18.512c2.024-4.368,1.792-9.464-0.616-13.624
		s-6.712-6.912-11.504-7.344l-20.304-1.824l-1.832-20.32c-0.432-4.792-3.168-9.088-7.344-11.504
		c-4.168-2.416-9.256-2.64-13.632-0.616l-18.512,8.552l-11.768-16.68C373.328,98.344,368.808,96,364,96s-9.328,2.344-12.112,6.272
		l-11.76,16.672l-18.512-8.552c-4.376-2.024-9.472-1.8-13.624,0.616c-4.168,2.408-6.912,6.712-7.344,11.504l-1.824,20.304
		l-20.32,1.832c-4.792,0.432-9.088,3.168-11.504,7.344c-2.408,4.168-2.64,9.256-0.616,13.632l8.552,18.512l-16.672,11.76
		c-0.008,0-0.008,0.008-0.008,0.008C254.344,198.672,252,203.192,252,208s2.344,9.328,6.272,12.112l16.672,11.76l-8.552,18.512
		c-2.024,4.368-1.792,9.464,0.616,13.624c2.408,4.16,6.712,6.912,11.504,7.344l20.304,1.824l1.832,20.32
		c0.432,4.792,3.168,9.088,7.344,11.504c0.008,0,0.008,0,0.016,0.008V400c0,3.232,1.944,6.16,4.936,7.392
		c2.992,1.248,6.432,0.552,8.72-1.736L364,363.312l42.344,42.344C407.872,407.184,409.92,408,412,408
		c1.032,0,2.072-0.192,3.064-0.608c2.992-1.232,4.936-4.16,4.936-7.392v-95.008h0.008c4.168-2.408,6.912-6.712,7.344-11.504
		l1.824-20.304l20.32-1.832c4.792-0.432,9.088-3.168,11.504-7.344c2.408-4.168,2.64-9.256,0.616-13.632l-8.552-18.512l16.68-11.768
		C473.656,217.328,476,212.808,476,208S473.656,198.672,469.728,195.888z M369.656,346.344c-1.56-1.56-3.608-2.344-5.656-2.344
		s-4.096,0.784-5.656,2.344L324,380.688v-76.176l16.136-7.456l11.768,16.68c2.768,3.92,7.288,6.264,12.096,6.264
		s9.328-2.344,12.112-6.272l11.76-16.672L404,304.512v76.176L369.656,346.344z M443.024,219.36
		c-5.856,4.128-7.92,11.832-4.904,18.328l8.264,17.88l-19.608,1.768c-7.144,0.632-12.8,6.272-13.448,13.424l-1.768,19.616
		l-17.864-8.264c-6.504-3-14.2-0.944-18.328,4.896L364,303.136l-11.36-16.112c-0.64-0.904-1.392-1.688-2.184-2.408
		c-0.224-0.208-0.456-0.384-0.696-0.576c-0.648-0.52-1.336-0.984-2.056-1.384c-0.216-0.12-0.424-0.264-0.648-0.368
		c-0.936-0.456-1.904-0.824-2.912-1.08c-0.2-0.048-0.408-0.064-0.608-0.112c-0.832-0.168-1.664-0.272-2.512-0.296
		c-0.168-0.008-0.328-0.056-0.488-0.056c-0.168,0-0.328,0.048-0.496,0.056c-0.648,0.024-1.296,0.104-1.944,0.208
		c-0.32,0.056-0.64,0.088-0.96,0.16c-0.952,0.224-1.896,0.52-2.816,0.952l-17.88,8.264l-1.768-19.608
		c-0.632-7.144-6.272-12.8-13.424-13.448l-19.624-1.768l8.264-17.864c3.016-6.504,0.952-14.208-4.896-18.328L268.864,208
		l16.112-11.36c5.856-4.128,7.92-11.832,4.904-18.328l-8.264-17.88l19.608-1.768c7.144-0.632,12.8-6.272,13.448-13.424l1.768-19.624
		l17.864,8.264c6.52,3.008,14.216,0.96,18.328-4.896L364,112.864l11.36,16.112c4.12,5.848,11.816,7.912,18.328,4.904l17.88-8.264
		l1.768,19.608c0.632,7.144,6.272,12.8,13.424,13.448l19.624,1.768l-8.264,17.864c-3.016,6.504-0.952,14.208,4.896,18.328
		L459.136,208L443.024,219.36z"/>
	<path style="fill:#232323;" d="M364,136c-39.704,0-72,32.296-72,72s32.296,72,72,72s72-32.296,72-72S403.704,136,364,136z M364,264
		c-30.872,0-56-25.128-56-56s25.128-56,56-56s56,25.128,56,56S394.872,264,364,264z"/>
	<rect x="412" y="56" style="fill:#232323;" width="16" height="16"/>
	<rect x="444" y="56" style="fill:#232323;" width="16" height="16"/>
	<rect x="428" y="40" style="fill:#232323;" width="16" height="16"/>
	<rect x="428" y="72" style="fill:#232323;" width="16" height="16"/>
	<rect x="324" y="16" style="fill:#232323;" width="16" height="16"/>
	<rect x="356" y="16" style="fill:#232323;" width="16" height="16"/>
	<rect x="340" y="0" style="fill:#232323;" width="16" height="16"/>
	<rect x="340" y="32" style="fill:#232323;" width="16" height="16"/>
</g>
<g>
</g>
<g>
</g>
<g>
</g>
<g>
</g>
<g>
</g>
<g>
</g>
<g>
</g>
<g>
</g>
<g>
</g>
<g>
</g>
<g>
</g>
<g>
</g>
<g>
</g>
<g>
</g>
<g>
</g>
</svg>
