<?xml version="1.0" encoding="iso-8859-1"?>
<!-- Generator: Adobe Illustrator 19.0.0, SVG Export Plug-In . SVG Version: 6.00 Build 0)  -->
<svg version="1.1" id="Capa_1" xmlns="http://www.w3.org/2000/svg" xmlns:xlink="http://www.w3.org/1999/xlink" x="0px" y="0px"
	 viewBox="0 0 480.568 480.568" style="enable-background:new 0 0 480.568 480.568;" xml:space="preserve">
<path style="fill:#FED27C;" d="M361.656,273.94c-4.864,4.864-11.264,7.304-17.656,7.304s-12.792-2.432-17.656-7.304
	c-9.736-9.736-9.736-25.576,0-35.312l46.344-46.344L352,171.596L179.312,344.284L248,412.972l122.344-122.344l50.344-50.344
	L408,227.596L361.656,273.94z"/>
<g>
	<path style="fill:#DD763E;" d="M337.656,262.628c3.504,3.504,9.184,3.504,12.688,0l46.344-46.344L384,203.596l-46.344,46.344
		C334.16,253.444,334.16,259.124,337.656,262.628z"/>
	<path style="fill:#DD763E;" d="M383.592,140.356c-0.592,1.872-1.824,3.504-3.576,4.52c-2.12,1.232-3.704,2.408-4.992,3.688
		l-11.712,11.72l26.344,26.344l24,24L432,228.972l18.344-18.344c9.176-9.176,14.224-21.368,14.224-34.344
		c0-12.976-5.048-25.168-14.224-34.344C432.008,123.612,402.648,123.196,383.592,140.356z"/>
</g>
<path style="fill:#FFFFFF;" d="M232,448.284h-80c-4.416,0-8-3.584-8-8v-80c0-2.12,0.84-4.16,2.344-5.656L363.712,137.26l4.288-4.288
	V16.284H16v448h352V315.596L237.656,445.94C236.16,447.444,234.12,448.284,232,448.284z M264,208.284H120v-16h144V208.284z
	 M328,144.284h-96v-16h96V144.284z M328,112.284H152v-16h176V112.284z M216,128.284v16h-80v-16H216z M112,48.284h160v16H112V48.284z
	 M56,96.284h80v16H56V96.284z M56,128.284h64v16H56V128.284z M56,160.284h232v16H56V160.284z M56,192.284h48v16H56V192.284z
	 M56,224.284h136v16H56V224.284z M128,448.284H32v-16h96V448.284z"/>
<polygon style="fill:#DD763E;" points="228.688,432.284 236.688,424.284 168,355.596 160,363.596 160,432.284 "/>
<g>
	<rect x="32" y="432.284" style="fill:#232323;" width="96" height="16"/>
	<path style="fill:#232323;" d="M384,120.276V8.284c0-4.416-3.584-8-8-8H8c-4.416,0-8,3.584-8,8v464c0,4.416,3.584,8,8,8h368
		c4.416,0,8-3.584,8-8V299.596l77.656-77.656c12.192-12.192,18.912-28.408,18.912-45.664c0-17.248-6.72-33.464-18.912-45.656
		C440.64,109.612,408.648,106.204,384,120.276z M368,464.284H16v-448h352v116.688l-4.288,4.288L146.344,354.628
		c-1.504,1.496-2.344,3.536-2.344,5.656v80c0,4.416,3.584,8,8,8h80c2.12,0,4.16-0.84,5.656-2.344L368,315.596V464.284z
		 M396.688,216.284l-46.344,46.344c-3.504,3.504-9.184,3.504-12.688,0c-3.496-3.504-3.496-9.184,0-12.688L384,203.596
		L396.688,216.284z M326.344,238.628c-9.736,9.736-9.736,25.576,0,35.312c4.864,4.864,11.264,7.304,17.656,7.304
		s12.792-2.432,17.656-7.304L408,227.596l12.688,12.688l-50.344,50.344L248,412.972l-68.688-68.688L352,171.596l20.688,20.688
		L326.344,238.628z M168,355.596l68.688,68.688l-8,8H160v-68.688L168,355.596z M450.344,210.628L432,228.972l-18.344-18.344l-24-24
		l-26.344-26.344l11.712-11.712c1.288-1.28,2.872-2.456,4.992-3.688c1.744-1.016,2.984-2.648,3.576-4.52
		c19.048-17.16,48.416-16.752,66.752,1.576c9.176,9.168,14.224,21.368,14.224,34.344C464.568,189.26,459.52,201.452,450.344,210.628
		z"/>
	<rect x="112" y="48.284" style="fill:#232323;" width="160" height="16"/>
	<rect x="56" y="96.284" style="fill:#232323;" width="80" height="16"/>
	<rect x="152" y="96.284" style="fill:#232323;" width="176" height="16"/>
	<rect x="56" y="128.284" style="fill:#232323;" width="64" height="16"/>
	<rect x="136" y="128.284" style="fill:#232323;" width="80" height="16"/>
	<rect x="232" y="128.284" style="fill:#232323;" width="96" height="16"/>
	<rect x="56" y="160.284" style="fill:#232323;" width="232" height="16"/>
	<rect x="56" y="192.284" style="fill:#232323;" width="48" height="16"/>
	<rect x="120" y="192.284" style="fill:#232323;" width="144" height="16"/>
	<rect x="56" y="224.284" style="fill:#232323;" width="136" height="16"/>
</g>
<g>
</g>
<g>
</g>
<g>
</g>
<g>
</g>
<g>
</g>
<g>
</g>
<g>
</g>
<g>
</g>
<g>
</g>
<g>
</g>
<g>
</g>
<g>
</g>
<g>
</g>
<g>
</g>
<g>
</g>
</svg>
