<?xml version="1.0" encoding="iso-8859-1"?>
<!-- Generator: Adobe Illustrator 19.0.0, SVG Export Plug-In . SVG Version: 6.00 Build 0)  -->
<svg version="1.1" id="Capa_1" xmlns="http://www.w3.org/2000/svg" xmlns:xlink="http://www.w3.org/1999/xlink" x="0px" y="0px"
	 viewBox="0 0 480 480" style="enable-background:new 0 0 480 480;" xml:space="preserve">
<path style="fill:#827ED9;" d="M240,172.103c-17.648,0-32,14.352-32,32v24h64v-24C272,186.455,257.648,172.103,240,172.103z"/>
<path style="fill:#DD763E;" d="M240,268.103c-8.824,0-16,7.176-16,16c0,4.512,1.904,8.72,5.36,11.832
	c1.68,1.512,2.64,3.672,2.64,5.936v30.232h16v-30.224c0-2.264,0.96-4.424,2.64-5.936c3.456-3.12,5.36-7.328,5.36-11.84
	C256,275.279,248.824,268.103,240,268.103z"/>
<path style="fill:#FED27C;" d="M296,244.103h-16h-80h-16c-4.408,0-8,3.584-8,8v48v48c0,4.416,3.592,8,8,8h112c4.408,0,8-3.584,8-8
	v-48v-48C304,247.687,300.408,244.103,296,244.103z M264,305.143v34.96c0,4.424-3.584,8-8,8h-32c-4.416,0-8-3.576-8-8v-34.96
	c-5.12-5.832-8-13.312-8-21.04c0-17.648,14.352-32,32-32s32,14.352,32,32C272,291.831,269.12,299.311,264,305.143z"/>
<path style="fill:#827ED9;" d="M413.792,197.631c-3.968-0.864-6.648-4.576-6.24-8.616c1.328-13.176-0.304-26.2-4.84-38.704
	c-10.816-29.784-37.696-52.184-68.488-57.08c-21.064-3.344-41.768,0.712-59.888,11.76c-2.224,1.36-4.968,1.544-7.352,0.504
	c-2.384-1.032-4.12-3.168-4.648-5.712c-8.208-39.616-44.992-66.952-85.44-63.384c-28.72,2.48-54.872,21.976-66.64,49.688
	c-7.208,16.984-8.184,34-2.984,52.016c0.68,2.352,0.248,4.888-1.176,6.88c-1.432,1.992-3.688,3.216-6.144,3.328
	C52.872,150.463,16,189.023,16,236.103c0.232,31.176,26.136,56,57.736,56H160v-40c0-13.232,10.768-24,24-24h8v-24
	c0-26.472,21.528-48,48-48s48,21.528,48,48v24h8c13.232,0,24,10.768,24,24v40h96c26.472,0,48-21.528,48-48
	C464,218.607,449.92,205.583,413.792,197.631z M120,276.103H96c-30.88,0-56-25.128-56-56h16c0,22.056,17.944,40,40,40h24V276.103z
	 M360,156.103c0-17.648-14.352-32-32-32v-16c26.472,0,48,21.528,48,48H360z"/>
<g>
	<path style="fill:#232323;" d="M423.936,183.599c0.44-13.192-1.632-26.192-6.192-38.752
		c-12.968-35.704-44.008-61.528-81.016-67.408c-21.344-3.384-42.384-0.336-61.456,8.84c-13.64-41.896-54.664-69.68-99.76-65.816
		c-34.544,2.976-65.944,26.28-79.992,59.376c-7.336,17.264-9.296,35.176-5.856,53.36C38.672,140.199,0,183.727,0,236.903
		c0.296,39.256,33.368,71.2,73.736,71.2H160v40c0,13.232,10.768,24,24,24h112c13.232,0,24-10.768,24-24v-40h96
		c35.288,0,64-28.712,64-64C480,204.551,451.352,190.559,423.936,183.599z M304,348.103c0,4.416-3.592,8-8,8H184
		c-4.408,0-8-3.584-8-8v-48v-48c0-4.416,3.592-8,8-8h16h80h16c4.408,0,8,3.584,8,8v48V348.103z M272,228.103h-64v-24
		c0-17.648,14.352-32,32-32s32,14.352,32,32V228.103z M416,292.103h-96v-40c0-13.232-10.768-24-24-24h-8v-24
		c0-26.472-21.528-48-48-48s-48,21.528-48,48v24h-8c-13.232,0-24,10.768-24,24v40H73.736c-31.6,0-57.504-24.824-57.736-56
		c0-47.08,36.872-85.64,83.952-87.784c2.448-0.112,4.712-1.336,6.144-3.328c1.424-1.992,1.864-4.528,1.176-6.88
		c-5.208-18.016-4.232-35.032,2.984-52.016c11.768-27.712,37.92-47.208,66.64-49.688c40.448-3.568,77.232,23.768,85.44,63.384
		c0.528,2.544,2.256,4.68,4.648,5.712c2.384,1.04,5.128,0.848,7.352-0.504c18.12-11.048,38.832-15.104,59.888-11.76
		c30.792,4.888,57.672,27.296,68.488,57.08c4.544,12.504,6.168,25.52,4.84,38.704c-0.408,4.04,2.28,7.752,6.24,8.616
		C449.92,205.583,464,218.607,464,244.103C464,270.575,442.472,292.103,416,292.103z"/>
	<path style="fill:#232323;" d="M81.992,325.439c0.872,5.48,2.048,10.984,3.496,16.368l15.456-4.16
		c-1.304-4.84-2.36-9.8-3.144-14.728L81.992,325.439z"/>
	<path style="fill:#232323;" d="M105.936,387.479c3.056,4.672,6.376,9.216,9.856,13.504l12.416-10.096
		c-3.136-3.856-6.128-7.952-8.888-12.168L105.936,387.479z"/>
	<path style="fill:#232323;" d="M90.688,357.735c2,5.168,4.304,10.312,6.848,15.272l14.232-7.312
		c-2.288-4.456-4.36-9.072-6.152-13.728L90.688,357.735z"/>
	<path style="fill:#232323;" d="M149.52,412.135c-3.896-3.16-7.672-6.536-11.208-10.072l-11.296,11.328
		c3.936,3.92,8.12,7.68,12.448,11.176L149.52,412.135z"/>
	<path style="fill:#232323;" d="M161.72,420.983L153,434.407c4.672,3.032,9.552,5.848,14.504,8.376l7.256-14.264
		C170.312,426.255,165.92,423.719,161.72,420.983z"/>
	<path style="fill:#232323;" d="M330.64,411.999l10.064,12.44c4.304-3.48,8.488-7.248,12.44-11.2l-11.32-11.312
		C338.272,405.487,334.504,408.879,330.64,411.999z"/>
	<path style="fill:#232323;" d="M351.92,390.727l12.432,10.08c3.512-4.336,6.832-8.888,9.848-13.528l-13.408-8.736
		C358.064,382.727,355.08,386.823,351.92,390.727z"/>
	<path style="fill:#232323;" d="M305.416,428.423l7.296,14.232c4.984-2.552,9.848-5.376,14.472-8.384l-8.728-13.408
		C314.296,423.583,309.904,426.119,305.416,428.423z"/>
	<path style="fill:#232323;" d="M398.048,325.175l-15.808-2.488c-0.784,4.96-1.832,9.912-3.12,14.712l15.456,4.16
		C396.008,336.215,397.176,330.695,398.048,325.175z"/>
	<path style="fill:#232323;" d="M247.664,443.887l0.824,15.984c5.56-0.288,11.16-0.864,16.648-1.744l-2.504-15.8
		C257.704,443.103,252.664,443.631,247.664,443.887z"/>
	<path style="fill:#232323;" d="M188.52,434.623l-5.712,14.952c5.216,1.992,10.576,3.728,15.928,5.152l4.128-15.456
		C198.04,437.983,193.216,436.423,188.52,434.623z"/>
	<path style="fill:#232323;" d="M368.328,365.503l14.248,7.28c2.536-4.968,4.832-10.12,6.824-15.304l-14.936-5.736
		C372.672,356.407,370.616,361.031,368.328,365.503z"/>
	<path style="fill:#232323;" d="M277.36,439.215l4.152,15.456c5.352-1.44,10.704-3.176,15.912-5.176l-5.736-14.936
		C287,436.351,282.176,437.927,277.36,439.215z"/>
	<path style="fill:#232323;" d="M217.592,442.367l-2.456,15.816c5.48,0.848,11.072,1.424,16.632,1.712l0.824-15.984
		C227.576,443.655,222.528,443.135,217.592,442.367z"/>
	<path style="fill:#232323;" d="M56,220.103H40c0,30.872,25.12,56,56,56h24v-16H96C73.944,260.103,56,242.159,56,220.103z"/>
	<path style="fill:#232323;" d="M328,108.103v16c17.648,0,32,14.352,32,32h16C376,129.631,354.472,108.103,328,108.103z"/>
	<path style="fill:#232323;" d="M240,252.103c-17.648,0-32,14.352-32,32c0,7.728,2.88,15.208,8,21.04v34.96c0,4.424,3.584,8,8,8h32
		c4.416,0,8-3.576,8-8v-34.96c5.12-5.832,8-13.312,8-21.04C272,266.455,257.648,252.103,240,252.103z M250.64,295.935
		c-1.68,1.52-2.64,3.672-2.64,5.944v30.224h-16v-30.224c0-2.264-0.96-4.424-2.64-5.936c-3.456-3.12-5.36-7.328-5.36-11.84
		c0-8.824,7.176-16,16-16s16,7.176,16,16C256,288.615,254.096,292.823,250.64,295.935z"/>
</g>
<g>
</g>
<g>
</g>
<g>
</g>
<g>
</g>
<g>
</g>
<g>
</g>
<g>
</g>
<g>
</g>
<g>
</g>
<g>
</g>
<g>
</g>
<g>
</g>
<g>
</g>
<g>
</g>
<g>
</g>
</svg>
