<?xml version="1.0" encoding="iso-8859-1"?>
<!-- Generator: Adobe Illustrator 19.0.0, SVG Export Plug-In . SVG Version: 6.00 Build 0)  -->
<svg version="1.1" id="Capa_1" xmlns="http://www.w3.org/2000/svg" xmlns:xlink="http://www.w3.org/1999/xlink" x="0px" y="0px"
	 viewBox="0 0 480 480" style="enable-background:new 0 0 480 480;" xml:space="preserve">
<g>
	<polygon style="fill:#827ED9;" points="20.886,464 91.998,464 91.998,352 91.998,312 91.998,307.104 35.414,325.96 	"/>
	<path style="fill:#827ED9;" d="M116.278,421.896l20.072-73.584l-28.352,9.456V464h27.056l-18.208-36.424
		C115.966,425.824,115.766,423.8,116.278,421.896z"/>
</g>
<path style="fill:#FFFFFF;" d="M100.142,246.672c1.456,1.216,2.968,2.328,4.488,3.416c0.008,0,0.008,0.008,0.016,0.008
	c3.136,2.24,6.416,4.184,9.784,5.88c0.192,0.096,0.384,0.2,0.584,0.296c3.304,1.624,6.696,2.992,10.152,4.104
	c0.24,0.08,0.488,0.152,0.728,0.224c3.504,1.088,7.056,1.928,10.656,2.488c0.088,0.016,0.184,0.024,0.272,0.032
	c7.408,1.12,14.944,1.12,22.352,0c0.088-0.016,0.184-0.024,0.272-0.032c3.592-0.56,7.152-1.4,10.656-2.488
	c0.24-0.072,0.488-0.144,0.728-0.224c3.456-1.112,6.848-2.472,10.152-4.104c0.192-0.096,0.384-0.2,0.584-0.296
	c3.368-1.696,6.648-3.64,9.784-5.88l0,0c1.528-1.096,3.048-2.208,4.512-3.432c2.8-2.336,5.456-4.816,8-7.408
	c0.848-0.864,1.616-1.808,2.44-2.696c1.632-1.776,3.256-3.56,4.76-5.432c0.896-1.112,1.712-2.288,2.568-3.44
	c1.304-1.752,2.6-3.52,3.792-5.344c0.824-1.264,1.592-2.568,2.36-3.864c1.08-1.808,2.144-3.632,3.12-5.504
	c0.712-1.368,1.384-2.752,2.04-4.152c0.888-1.888,1.736-3.792,2.52-5.72c0.584-1.44,1.144-2.896,1.672-4.36
	c0.704-1.96,1.336-3.944,1.928-5.944c0.448-1.496,0.888-2.992,1.264-4.512c0.512-2.04,0.936-4.112,1.336-6.184
	c0.296-1.52,0.608-3.032,0.84-4.56c0.08-0.512,0.104-1.032,0.168-1.544H61.262C64.998,203.56,78.886,228.96,100.142,246.672z"/>
<path style="fill:#FED27C;" d="M259.998,160v-16h-9.352c-3.944,0-7.304-2.872-7.904-6.776c-0.544-3.504-1.312-7.04-2.224-10.584
	c-0.112-0.44-0.216-0.888-0.336-1.328c-3.04-11.24-7.872-22.528-14.288-33.192c-0.032-0.056-0.04-0.112-0.072-0.168
	c-11.656-19.2-27.912-35.176-45.808-44.032V72h-16V36.016V16h-32v20.016V72h-16V47.92c-30.84,15.264-56.904,51.616-62.736,89.304
	C52.654,141.128,49.302,144,45.35,144h-9.352v16h16.456h191.16H259.998z"/>
<path style="fill:#827ED9;" d="M179.718,421.896c0.512,1.896,0.32,3.92-0.56,5.68L160.942,464h27.056V357.768l-28.352-9.448
	L179.718,421.896z"/>
<path style="fill:#DD763E;" d="M248.494,101.16c0.52,1.192,1.064,2.376,1.552,3.576c0.408,1,0.76,1.992,1.144,2.992
	c0.632,1.656,1.28,3.312,1.848,4.976c0.2,0.592,0.368,1.184,0.56,1.784c0.648,1.992,1.296,3.984,1.848,5.984
	c0.016,0.064,0.032,0.136,0.048,0.2c0.672,2.448,1.288,4.888,1.808,7.328h10.696c4.416,0,8,3.576,8,8v32c0,4.424-3.584,8-8,8
	h-17.072c-0.12,1-0.352,1.968-0.496,2.96c-0.264,1.864-0.584,3.704-0.928,5.544c-0.432,2.304-0.928,4.584-1.48,6.856
	c-0.448,1.824-0.92,3.632-1.448,5.432c-0.656,2.24-1.384,4.448-2.16,6.64c-0.616,1.76-1.24,3.504-1.936,5.232
	c-0.88,2.184-1.848,4.312-2.84,6.44c-0.776,1.656-1.528,3.32-2.376,4.944c-1.104,2.128-2.328,4.192-3.552,6.256
	c-0.904,1.528-1.768,3.064-2.736,4.552c-1.376,2.112-2.872,4.128-4.368,6.152c-0.984,1.328-1.912,2.696-2.944,3.992
	c-1.76,2.192-3.664,4.272-5.568,6.344c-0.928,1.008-1.776,2.072-2.736,3.056c-2.936,3-6.008,5.872-9.256,8.576
	c-0.688,0.568-1.392,1.136-2.104,1.672v29.592l66.528,22.176c2.976,0.992,5.096,3.624,5.424,6.752L281.094,368h106.904V168
	c0-4.424,3.584-8,8-8h32c17.648,0,32-14.352,32-32s-14.352-32-32-32H246.166c0.088,0.176,0.16,0.36,0.24,0.544
	C247.142,98.072,247.822,99.616,248.494,101.16z"/>
<g>
	<polygon style="fill:#827ED9;" points="107.998,340.896 127.142,334.52 107.998,324.944 	"/>
	<polygon style="fill:#827ED9;" points="147.998,366.408 132.518,423.16 147.998,454.112 163.478,423.16 	"/>
	<polygon style="fill:#827ED9;" points="187.998,340.896 187.998,324.944 168.854,334.52 	"/>
</g>
<path style="fill:#DD763E;" d="M453.582,168.544c-0.336,0.216-0.672,0.416-1.016,0.616c-2.16,1.296-4.424,2.44-6.784,3.384
	c-0.328,0.128-0.656,0.24-0.984,0.36c-2.448,0.92-4.976,1.672-7.6,2.184c-0.232,0.048-0.472,0.064-0.712,0.112
	c-2.76,0.496-5.584,0.8-8.488,0.8h-24v200v32h24c17.648,0,32-14.352,32-32V163.752c-0.144,0.128-0.312,0.216-0.456,0.336
	C457.678,165.72,455.686,167.208,453.582,168.544z"/>
<polygon style="fill:#827ED9;" points="265.934,376.832 260.582,325.96 203.998,307.104 203.998,312 203.998,352 203.998,464 
	275.11,464 265.934,376.84 "/>
<path style="fill:#FFFFFF;" d="M168.902,277.496c-0.44,0.104-0.88,0.184-1.32,0.288c-2.808,0.616-5.632,1.104-8.48,1.456
	c-0.456,0.056-0.904,0.128-1.36,0.176c-3.24,0.344-6.488,0.584-9.744,0.584s-6.504-0.24-9.744-0.584
	c-0.456-0.048-0.904-0.12-1.36-0.176c-2.848-0.352-5.672-0.832-8.48-1.456c-0.44-0.096-0.88-0.184-1.32-0.288
	c-6.424-1.52-12.704-3.744-18.736-6.68c-0.12-0.056-0.24-0.096-0.36-0.152V296v11.056l40,20l40-20V296v-25.328
	c-0.12,0.056-0.24,0.096-0.36,0.152C181.606,273.76,175.326,275.984,168.902,277.496z"/>
<g>
	<path style="fill:#232323;" d="M25.47,312.416c-2.976,0.992-5.096,3.624-5.424,6.752l-16,152c-0.24,2.248,0.496,4.504,2.008,6.184
		S9.734,480,11.998,480h88h96h88c2.264,0,4.432-0.96,5.944-2.648s2.248-3.936,2.008-6.184L282.782,384h105.216v32
		c0,4.424,3.584,8,8,8h32c26.472,0,48-21.528,48-48V128c0-26.472-21.528-48-48-48h-190.8c-13.704-21.456-33.192-40.048-57.2-49.52V8
		c0-4.424-3.584-8-8-8h-48c-4.416,0-8,3.576-8,8v22.48C74.83,46.728,46.878,89.84,38.702,128H27.998c-4.416,0-8,3.576-8,8v32
		c0,4.424,3.584,8,8,8h17.304c3.84,32.312,19.728,62.24,44.592,82.968c0.68,0.568,1.408,1.056,2.104,1.6v29.672L25.47,312.416z
		 M35.414,325.96l56.584-18.856V312v40v112H20.886L35.414,325.96z M163.478,423.16l-15.48,30.952l-15.48-30.952l15.48-56.752
		L163.478,423.16z M187.998,340.896l-19.144-6.376l19.144-9.576V340.896z M107.998,340.896v-15.952l19.144,9.576L107.998,340.896z
		 M107.998,357.768l28.352-9.448l-20.072,73.584c-0.512,1.896-0.32,3.92,0.56,5.68L135.054,464h-27.056V357.768z M160.942,464
		l18.208-36.424c0.88-1.76,1.08-3.784,0.56-5.68l-20.072-73.584l28.36,9.456V464H160.942z M203.998,464V352v-40v-4.896
		l56.584,18.856l5.352,50.872l0,0L275.11,464H203.998z M459.998,376c0,17.648-14.352,32-32,32h-24v-32V176h24
		c2.904,0,5.728-0.304,8.488-0.8c0.24-0.04,0.48-0.064,0.712-0.112c2.624-0.512,5.144-1.264,7.6-2.184
		c0.328-0.12,0.656-0.232,0.984-0.36c2.368-0.952,4.624-2.088,6.784-3.384c0.344-0.208,0.68-0.408,1.016-0.616
		c2.104-1.336,4.096-2.816,5.96-4.448c0.144-0.128,0.312-0.216,0.456-0.336V376z M246.166,96h181.832c17.648,0,32,14.352,32,32
		s-14.352,32-32,32h-32c-4.416,0-8,3.576-8,8v200H281.094l-5.144-48.832c-0.328-3.128-2.448-5.76-5.424-6.752l-66.528-22.184V260.64
		c0.704-0.536,1.408-1.104,2.104-1.672c3.24-2.704,6.32-5.576,9.256-8.576c0.96-0.976,1.816-2.048,2.736-3.056
		c1.904-2.08,3.808-4.152,5.568-6.344c1.032-1.288,1.96-2.656,2.944-3.992c1.496-2.024,3-4.04,4.368-6.152
		c0.968-1.488,1.832-3.024,2.736-4.552c1.224-2.064,2.44-4.128,3.552-6.256c0.84-1.624,1.6-3.28,2.376-4.944
		c0.992-2.128,1.96-4.256,2.84-6.44c0.696-1.728,1.312-3.472,1.936-5.232c0.776-2.2,1.504-4.4,2.16-6.64
		c0.528-1.8,1-3.608,1.448-5.432c0.56-2.272,1.048-4.552,1.48-6.856c0.344-1.84,0.664-3.688,0.928-5.544
		c0.144-0.992,0.376-1.96,0.496-2.96h17.072c4.416,0,8-3.576,8-8v-32c0-4.424-3.584-8-8-8h-10.696
		c-0.52-2.44-1.136-4.888-1.808-7.328c-0.016-0.064-0.032-0.136-0.048-0.2c-0.552-2-1.192-3.992-1.848-5.984
		c-0.192-0.592-0.36-1.184-0.56-1.784c-0.568-1.664-1.208-3.32-1.848-4.976c-0.384-1-0.736-2-1.144-2.992
		c-0.488-1.2-1.032-2.384-1.552-3.576c-0.672-1.544-1.352-3.088-2.08-4.624C246.326,96.36,246.254,96.176,246.166,96z M35.998,144
		h9.352c3.944,0,7.304-2.872,7.904-6.776c5.84-37.688,31.904-74.04,62.744-89.304V72h16V36.016V16h32v20.016V72h16V47.92
		c17.896,8.856,34.152,24.84,45.808,44.032c0.032,0.056,0.04,0.112,0.072,0.168c6.424,10.664,11.248,21.952,14.288,33.192
		c0.12,0.44,0.224,0.888,0.336,1.328c0.912,3.544,1.688,7.08,2.224,10.584c0.616,3.904,3.968,6.776,7.92,6.776h9.352v16h-16.392
		H52.454H35.998V144z M61.262,176h173.424c-0.072,0.512-0.096,1.032-0.168,1.544c-0.232,1.536-0.544,3.048-0.84,4.56
		c-0.4,2.072-0.824,4.144-1.336,6.184c-0.384,1.52-0.824,3.016-1.264,4.512c-0.592,2-1.232,3.984-1.928,5.944
		c-0.528,1.464-1.088,2.92-1.672,4.36c-0.784,1.936-1.632,3.84-2.52,5.72c-0.656,1.392-1.328,2.784-2.04,4.152
		c-0.976,1.872-2.04,3.688-3.12,5.504c-0.776,1.296-1.536,2.6-2.36,3.864c-1.2,1.832-2.488,3.592-3.792,5.344
		c-0.856,1.144-1.664,2.32-2.568,3.44c-1.512,1.872-3.136,3.656-4.76,5.432c-0.824,0.896-1.584,1.832-2.44,2.696
		c-2.544,2.584-5.192,5.072-8,7.408c-1.464,1.224-2.984,2.328-4.512,3.432l0,0c-3.136,2.24-6.416,4.184-9.784,5.88
		c-0.192,0.096-0.384,0.2-0.584,0.296c-3.304,1.624-6.696,2.992-10.152,4.104c-0.24,0.08-0.488,0.152-0.728,0.224
		c-3.504,1.088-7.056,1.928-10.656,2.488c-0.088,0.016-0.184,0.024-0.272,0.032c-7.408,1.12-14.944,1.12-22.352,0
		c-0.088-0.016-0.184-0.024-0.272-0.032c-3.592-0.56-7.152-1.4-10.656-2.488c-0.24-0.072-0.488-0.144-0.728-0.224
		c-3.456-1.112-6.848-2.472-10.152-4.104c-0.192-0.096-0.384-0.2-0.584-0.296c-3.368-1.696-6.648-3.64-9.784-5.88
		c-0.008,0-0.008-0.008-0.016-0.008c-1.52-1.088-3.032-2.2-4.488-3.416C78.886,228.96,64.998,203.56,61.262,176z M127.094,277.496
		c0.44,0.104,0.88,0.184,1.32,0.288c2.808,0.616,5.64,1.104,8.48,1.456c0.456,0.056,0.904,0.128,1.36,0.176
		c3.24,0.344,6.488,0.584,9.744,0.584s6.504-0.24,9.744-0.584c0.456-0.048,0.904-0.12,1.36-0.176
		c2.848-0.352,5.672-0.832,8.48-1.456c0.44-0.096,0.88-0.184,1.32-0.288c6.424-1.52,12.696-3.744,18.736-6.68
		c0.12-0.056,0.24-0.096,0.36-0.152V296v11.056l-40,20l-40-20V296v-25.328c0.12,0.056,0.24,0.096,0.36,0.152
		C114.39,273.76,120.67,275.984,127.094,277.496z"/>
	<rect x="259.998" y="48" style="fill:#232323;" width="16" height="16"/>
	<rect x="291.998" y="48" style="fill:#232323;" width="16" height="16"/>
	<rect x="323.998" y="48" style="fill:#232323;" width="112" height="16"/>
</g>
<g>
</g>
<g>
</g>
<g>
</g>
<g>
</g>
<g>
</g>
<g>
</g>
<g>
</g>
<g>
</g>
<g>
</g>
<g>
</g>
<g>
</g>
<g>
</g>
<g>
</g>
<g>
</g>
<g>
</g>
</svg>
