<?xml version="1.0" encoding="iso-8859-1"?>
<!-- Generator: Adobe Illustrator 19.0.0, SVG Export Plug-In . SVG Version: 6.00 Build 0)  -->
<svg version="1.1" id="Capa_1" xmlns="http://www.w3.org/2000/svg" xmlns:xlink="http://www.w3.org/1999/xlink" x="0px" y="0px"
	 viewBox="0 0 480.012 480.012" style="enable-background:new 0 0 480.012 480.012;" xml:space="preserve">
<g>
	<polygon style="fill:#827ED9;" points="45.774,383.934 20.95,383.934 28.95,399.934 147.062,399.934 155.062,383.934 
		130.238,383.934 	"/>
	<polygon style="fill:#827ED9;" points="224.006,447.934 184.006,447.934 184.006,463.934 296.006,463.934 296.006,447.934 
		256.006,447.934 	"/>
	<path style="fill:#827ED9;" d="M192.654,71.446l-19.848,14.888c-1.16,0.864-2.52,1.408-3.96,1.56l-144.84,15.24v0.8h189.52
		C202.558,96.654,194.79,84.974,192.654,71.446z"/>
</g>
<g>
	<path style="fill:#DD763E;" d="M72.006,257.742c0.168-0.04,0.352-0.048,0.52-0.088c1.896-0.416,3.832-0.728,5.792-0.992
		c0.64-0.088,1.28-0.224,1.92-0.296c2.552-0.272,5.144-0.432,7.768-0.432s5.216,0.16,7.768,0.44c0.648,0.072,1.28,0.208,1.92,0.296
		c1.952,0.264,3.888,0.568,5.792,0.992c0.176,0.04,0.352,0.048,0.52,0.088v-9.816h-32C72.006,247.934,72.006,257.742,72.006,257.742
		z"/>
	<path style="fill:#DD763E;" d="M103.334,274.118c-1.536-0.44-3.088-0.832-4.648-1.136c-0.104-0.016-0.208-0.024-0.304-0.048
		c-6.848-1.288-13.88-1.288-20.728,0c-0.104,0.016-0.208,0.024-0.312,0.048c-1.56,0.304-3.112,0.696-4.648,1.136
		c-0.208,0.056-0.424,0.104-0.632,0.16c-1.472,0.44-2.928,0.968-4.368,1.528c-20.864,8.168-35.688,28.424-35.688,52.128
		c0,15.056,6.128,29.472,16.896,40h78.2c10.776-10.528,16.904-24.944,16.904-40c0-23.704-14.824-43.96-35.672-52.12
		c-1.44-0.56-2.896-1.088-4.368-1.528C103.758,274.222,103.542,274.182,103.334,274.118z"/>
</g>
<g>
	<path style="fill:#827ED9;" d="M307.206,86.334l-19.848-14.888c-2.136,13.528-9.904,25.208-20.872,32.488h189.52v-0.8
		L311.174,87.886C309.734,87.742,308.366,87.198,307.206,86.334z"/>
	<rect x="232.006" y="119.934" style="fill:#827ED9;" width="16" height="312"/>
</g>
<rect x="328.006" y="159.934" style="fill:#FED27C;" width="16" height="16"/>
<g>
	<path style="fill:#827ED9;" d="M272.006,58.83l-32-38.4l-32,38.4v5.104c0,17.648,14.352,32,32,32s32-14.352,32-32V58.83z"/>
	<polygon style="fill:#827ED9;" points="360.006,383.934 324.95,383.934 332.95,399.934 451.062,399.934 459.062,383.934 
		392.006,383.934 	"/>
</g>
<g>
	<path style="fill:#FED27C;" d="M383.99,343.358c-2.624,0.36-5.28,0.576-7.984,0.576s-5.36-0.216-7.984-0.576h-0.016v24.576h16
		v-24.576C383.998,343.358,383.99,343.358,383.99,343.358z"/>
	<path style="fill:#FED27C;" d="M320.006,255.934c0,3.248,0.224,6.464,0.56,9.648c0.08,0.76,0.168,1.512,0.272,2.264
		c0.84,6.424,2.344,12.664,4.504,18.568c0.16,0.44,0.328,0.888,0.496,1.328c1.16,3,2.456,5.936,3.944,8.736
		c0.016,0.032,0.016,0.064,0.032,0.096c7.624,14.28,19.152,24.792,32.584,29.128c0.016,0.008,0.04,0,0.056,0.008
		c2.184,0.704,4.312,1.208,6.424,1.584c0.208,0.032,0.416,0.088,0.624,0.12c1.808,0.296,3.592,0.4,5.376,0.456
		c0.384,0,0.752,0.064,1.128,0.064s0.744-0.064,1.12-0.072c1.784-0.048,3.568-0.16,5.376-0.456c0.208-0.032,0.416-0.088,0.624-0.12
		c2.112-0.376,4.24-0.88,6.424-1.584c0.016-0.008,0.04,0,0.056-0.008c13.424-4.336,24.952-14.848,32.576-29.12
		c0.016-0.032,0.016-0.072,0.04-0.104c1.496-2.8,2.784-5.736,3.944-8.736c0.168-0.44,0.336-0.872,0.496-1.32
		c2.168-5.904,3.664-12.144,4.504-18.568c0.096-0.752,0.192-1.504,0.272-2.264c0.344-3.176,0.568-6.392,0.568-9.648v-16h-112
		V255.934z"/>
</g>
<g>
	<path style="fill:#232323;" d="M472.006,111.934v-16c0-4.096-3.096-7.528-7.168-7.96L315.03,72.206L285.558,50.11l-39.4-47.296
		c-3.048-3.648-9.248-3.648-12.296,0L194.446,50.11l-29.472,22.096l-149.8,15.768c-4.072,0.432-7.168,3.864-7.168,7.96v16
		c0,4.416,3.576,8,8,8h35.496l-42.76,92.648l14.528,6.704l40.736-88.264l30.536,66.16c-8.736,5.72-14.536,15.56-14.536,26.752v8h-16
		c-4.424,0-8,3.584-8,8v23.6c-23.664,11.808-40,36.2-40,64.4c0,14.376,4.416,28.248,12.312,40H8.006
		c-2.776,0-5.344,1.44-6.808,3.792c-1.464,2.36-1.592,5.304-0.352,7.784l16,32c1.36,2.712,4.128,4.424,7.16,4.424h128
		c3.032,0,5.8-1.712,7.16-4.424l16-32c1.24-2.48,1.112-5.424-0.352-7.784c-1.464-2.352-4.032-3.792-6.808-3.792h-20.312
		c7.896-11.752,12.312-25.624,12.312-40c0-28.2-16.336-52.592-40-64.4v-23.6c0-4.416-3.576-8-8-8h-16v-8
		c0-4.736,2.112-8.952,5.392-11.888l3.344,7.24l14.528-6.704l-2.376-5.144c15.32-2.376,27.112-15.536,27.112-31.504h-16
		c0,8.824-7.176,16-16,16c-0.744,0-1.432,0.168-2.16,0.216L76.51,119.934h139.496v312h-40c-4.424,0-8,3.584-8,8v32
		c0,4.416,3.576,8,8,8h128c4.424,0,8-3.584,8-8v-32c0-4.416-3.576-8-8-8h-40v-312h139.496l-42.76,92.648l14.528,6.704l40.736-88.264
		l40.736,88.264l14.528-6.704l-42.76-92.648h35.496C468.43,119.934,472.006,116.35,472.006,111.934z M147.062,399.934H28.95l-8-16
		h24.824h84.472h24.824L147.062,399.934z M144.006,327.934c0,15.056-6.128,29.472-16.896,40H48.902
		c-10.768-10.528-16.896-24.944-16.896-40c0-23.704,14.824-43.96,35.672-52.12c1.44-0.56,2.896-1.088,4.368-1.528
		c0.208-0.064,0.424-0.104,0.632-0.16c1.536-0.44,3.088-0.832,4.648-1.136c0.104-0.024,0.208-0.032,0.312-0.048
		c6.848-1.288,13.88-1.288,20.728,0c0.104,0.016,0.208,0.024,0.304,0.048c1.56,0.304,3.112,0.696,4.648,1.136
		c0.208,0.056,0.424,0.104,0.632,0.16c1.472,0.44,2.928,0.968,4.368,1.528C129.182,283.974,144.006,304.23,144.006,327.934z
		 M104.006,257.742c-0.168-0.04-0.352-0.048-0.52-0.088c-1.896-0.416-3.832-0.728-5.792-0.992c-0.64-0.088-1.28-0.224-1.92-0.296
		c-2.552-0.272-5.144-0.432-7.768-0.432s-5.216,0.16-7.768,0.44c-0.648,0.072-1.28,0.208-1.92,0.296
		c-1.952,0.264-3.888,0.568-5.792,0.992c-0.176,0.04-0.352,0.048-0.52,0.088v-9.816h32
		C104.006,247.934,104.006,257.742,104.006,257.742z M208.006,58.83l32-38.4l32,38.4v5.104c0,17.648-14.352,32-32,32
		s-32-14.352-32-32V58.83z M24.006,103.134l144.832-15.248c1.44-0.152,2.808-0.688,3.96-1.56l19.848-14.888
		c2.144,13.536,9.912,25.216,20.88,32.496H24.006V103.134z M296.006,463.934h-112v-16h40h32h40V463.934z M248.006,431.934h-16v-312
		h16V431.934z M456.006,103.934h-189.52c10.968-7.28,18.736-18.96,20.872-32.488l19.848,14.888c1.16,0.864,2.52,1.408,3.96,1.56
		l144.84,15.24V103.934z"/>
	<rect x="328.006" y="175.934" style="fill:#232323;" width="16" height="16"/>
	<rect x="344.006" y="159.934" style="fill:#232323;" width="16" height="16"/>
	<rect x="328.006" y="143.934" style="fill:#232323;" width="16" height="16"/>
	<rect x="312.006" y="159.934" style="fill:#232323;" width="16" height="16"/>
	<path style="fill:#232323;" d="M472.006,223.934h-32h-128h-32c-4.424,0-8,3.584-8,8v8c0,29.368,18.08,55.632,45.168,66.56
		c8.52,14.768,20.664,26.152,34.832,32.304v29.136h-40c-2.776,0-5.344,1.44-6.808,3.792c-1.464,2.36-1.592,5.304-0.352,7.784l16,32
		c1.36,2.712,4.128,4.424,7.16,4.424h128c3.032,0,5.8-1.712,7.16-4.424l16-32c1.24-2.48,1.112-5.424-0.352-7.784
		c-1.464-2.352-4.032-3.792-6.808-3.792h-72v-29.136c14.176-6.152,26.312-17.536,34.832-32.304
		c27.088-10.936,45.168-37.192,45.168-66.56v-8C480.006,227.518,476.43,223.934,472.006,223.934z M307.246,282.11
		c-11.96-10.432-19.24-25.704-19.24-42.176h16v16c0,4.024,0.296,7.952,0.728,11.824c0.112,0.984,0.232,1.96,0.368,2.936
		c0.528,3.768,1.176,7.488,2.08,11.08C307.214,281.886,307.222,281.998,307.246,282.11z M451.062,399.934H332.95l-8-16h35.056h32
		h67.056L451.062,399.934z M384.006,343.358v24.576h-16v-24.576c0.008,0,0.016,0,0.016,0c2.624,0.36,5.28,0.576,7.984,0.576
		s5.36-0.216,7.984-0.576C383.99,343.358,383.998,343.358,384.006,343.358z M389.614,325.694c-0.016,0.008-0.04,0-0.056,0.008
		c-2.184,0.704-4.312,1.208-6.424,1.584c-0.208,0.032-0.416,0.088-0.624,0.12c-1.808,0.296-3.592,0.4-5.376,0.456
		c-0.384,0.008-0.752,0.072-1.128,0.072s-0.744-0.064-1.12-0.072c-1.784-0.048-3.568-0.16-5.376-0.456
		c-0.208-0.032-0.416-0.088-0.624-0.12c-2.112-0.376-4.24-0.88-6.424-1.584c-0.016-0.008-0.04,0-0.056-0.008
		c-13.424-4.336-24.96-14.848-32.584-29.128c-0.016-0.032-0.016-0.064-0.032-0.096c-1.496-2.8-2.784-5.736-3.944-8.736
		c-0.168-0.44-0.336-0.88-0.496-1.328c-2.168-5.904-3.664-12.144-4.504-18.568c-0.096-0.752-0.192-1.504-0.272-2.264
		c-0.344-3.176-0.568-6.392-0.568-9.64v-16h112v16c0,3.248-0.224,6.464-0.56,9.648c-0.08,0.76-0.168,1.512-0.272,2.264
		c-0.84,6.424-2.344,12.664-4.504,18.568c-0.16,0.44-0.328,0.88-0.496,1.32c-1.16,3-2.456,5.936-3.944,8.736
		c-0.016,0.032-0.016,0.072-0.04,0.104C414.566,310.854,403.038,321.366,389.614,325.694z M444.774,282.102
		c0.048-0.184,0.064-0.384,0.104-0.576c0.872-3.512,1.52-7.128,2.032-10.808c0.136-0.984,0.264-1.968,0.368-2.96
		c0.432-3.88,0.728-7.8,0.728-11.824v-16h16C464.006,256.398,456.734,271.678,444.774,282.102z"/>
	<rect x="128.006" y="151.934" style="fill:#232323;" width="16" height="16"/>
	
		<rect x="151.054" y="163.934" transform="matrix(-0.8944 0.4472 -0.4472 -0.8944 379.9958 254.1631)" style="fill:#232323;" width="17.887" height="16"/>
</g>
<g>
</g>
<g>
</g>
<g>
</g>
<g>
</g>
<g>
</g>
<g>
</g>
<g>
</g>
<g>
</g>
<g>
</g>
<g>
</g>
<g>
</g>
<g>
</g>
<g>
</g>
<g>
</g>
<g>
</g>
</svg>
