<?xml version="1.0" encoding="iso-8859-1"?>
<!-- Generator: Adobe Illustrator 19.0.0, SVG Export Plug-In . SVG Version: 6.00 Build 0)  -->
<svg version="1.1" id="Capa_1" xmlns="http://www.w3.org/2000/svg" xmlns:xlink="http://www.w3.org/1999/xlink" x="0px" y="0px"
	 viewBox="0 0 480 480" style="enable-background:new 0 0 480 480;" xml:space="preserve">
<g>
	<path style="fill:#FED27C;" d="M440,343.976c-2.28,3.032-4.984,5.744-8.024,8.024c3.04,2.28,5.744,4.992,8.024,8.024
		c2.28-3.032,4.984-5.744,8.024-8.024C444.984,349.72,442.28,347.008,440,343.976z"/>
	<path style="fill:#FED27C;" d="M168,80.024c2.28-3.032,4.984-5.744,8.024-8.024c-3.04-2.28-5.744-4.992-8.024-8.024
		c-2.28,3.032-4.984,5.744-8.024,8.024C163.016,74.28,165.72,76.992,168,80.024z"/>
</g>
<g>
	<path style="fill:#DD763E;" d="M208,408h-72c-13.232,0-24,10.768-24,24v32h24v-24c0-4.416,3.576-8,8-8h192c4.424,0,8,3.584,8,8v24
		h24v-32c0-13.232-10.768-24-24-24h-72H208z"/>
	<path style="fill:#DD763E;" d="M252.136,303.408c-2.488,0.232-4.968,0.272-7.448,0.36C243.112,303.824,241.576,304,240,304
		s-3.112-0.176-4.68-0.232c-2.48-0.088-4.96-0.128-7.448-0.36c-4.008-0.36-7.96-0.928-11.864-1.632V392h48v-90.224
		C260.096,302.48,256.144,303.048,252.136,303.408z"/>
	<rect x="152" y="448" style="fill:#DD763E;" width="176" height="16"/>
	<path style="fill:#DD763E;" d="M121.328,175.736c2.928,52.6,39.848,95.568,88.68,108.304l0,0c4.168,1.088,8.304,1.888,12.432,2.528
		c1.176,0.176,2.344,0.376,3.528,0.52c1.536,0.192,3.064,0.328,4.6,0.456c2.712,0.216,5.432,0.368,8.184,0.4
		c0.824,0.008,1.656,0.008,2.48,0c2.752-0.032,5.48-0.184,8.184-0.4c1.528-0.128,3.064-0.264,4.6-0.456
		c1.184-0.144,2.352-0.344,3.528-0.52c4.128-0.64,8.264-1.44,12.432-2.528l0,0c48.832-12.744,85.76-55.704,88.68-108.304L367.544,16
		H112.456L121.328,175.736z M240,248h8c39.704,0,72-32.304,72-72h16c0,48.52-39.48,88-88,88h-8V248z M136,64
		c13.232,0,24-10.768,24-24c0-4.416,3.576-8,8-8s8,3.584,8,8c0,13.232,10.768,24,24,24c4.424,0,8,3.584,8,8s-3.576,8-8,8
		c-13.232,0-24,10.768-24,24c0,4.416-3.576,8-8,8s-8-3.584-8-8c0-13.232-10.768-24-24-24c-4.424,0-8-3.584-8-8S131.576,64,136,64z"
		/>
</g>
<g>
	<path style="fill:#232323;" d="M408.576,0H376H104H71.424C32.04,0,0,32.04,0,71.424c0,27.76,16.288,53.208,41.496,64.84L104,165.12
		V208c0,13.232-10.768,24-24,24s-24-10.768-24-24v-24H40v24c0,22.056,17.944,40,40,40c16.488,0,30.664-10.032,36.776-24.304
		c15.688,35.392,46.04,62.64,83.224,74.2V392h-64c-22.056,0-40,17.944-40,40v40c0,4.416,3.576,8,8,8h40h192h40c4.424,0,8-3.584,8-8
		v-40c0-22.056-17.944-40-40-40h-64v-94.112c37.184-11.56,67.536-38.808,83.224-74.2C369.336,237.968,383.512,248,400,248
		c22.056,0,40-17.944,40-40v-24h-16v24c0,13.232-10.768,24-24,24s-24-10.768-24-24v-42.88l62.504-28.848
		C463.712,124.632,480,99.176,480,71.424C480,32.04,447.96,0,408.576,0z M16,71.424C16,40.864,40.856,16,71.424,16H96.44
		l7.296,131.376L48.2,121.744C28.64,112.712,16,92.96,16,71.424z M152,464v-16h176v16H152z M368,432v32h-24v-24c0-4.416-3.576-8-8-8
		H144c-4.424,0-8,3.584-8,8v24h-24v-32c0-13.232,10.768-24,24-24h72h64h72C357.232,408,368,418.768,368,432z M264,392h-48v-90.224
		c3.904,0.704,7.856,1.272,11.864,1.632c2.488,0.232,4.968,0.272,7.448,0.36c1.576,0.056,3.112,0.232,4.688,0.232
		c1.576,0,3.112-0.176,4.68-0.232c2.48-0.088,4.96-0.128,7.448-0.36c4.008-0.36,7.96-0.928,11.864-1.632V392H264z M269.992,284.04
		C269.984,284.04,269.984,284.04,269.992,284.04c-4.168,1.08-8.304,1.888-12.432,2.528c-1.176,0.176-2.344,0.376-3.528,0.52
		c-1.536,0.192-3.064,0.328-4.6,0.456c-2.712,0.216-5.432,0.368-8.184,0.4c-0.824,0.008-1.656,0.008-2.48,0
		c-2.752-0.032-5.48-0.184-8.184-0.4c-1.528-0.128-3.064-0.264-4.6-0.456c-1.184-0.144-2.352-0.344-3.528-0.52
		c-4.128-0.64-8.264-1.44-12.432-2.528l0,0c-48.832-12.744-85.76-55.704-88.68-108.304L112.456,16h255.096l-8.872,159.736
		C355.744,228.344,318.824,271.304,269.992,284.04z M431.808,121.744l-55.536,25.632L383.568,16h25.016
		C439.144,16,464,40.864,464,71.424C464,92.96,451.36,112.712,431.808,121.744z"/>
	<path style="fill:#232323;" d="M200,64c-13.232,0-24-10.768-24-24c0-4.416-3.576-8-8-8s-8,3.584-8,8c0,13.232-10.768,24-24,24
		c-4.424,0-8,3.584-8,8s3.576,8,8,8c13.232,0,24,10.768,24,24c0,4.416,3.576,8,8,8s8-3.584,8-8c0-13.232,10.768-24,24-24
		c4.424,0,8-3.584,8-8S204.424,64,200,64z M168,80.024c-2.28-3.032-4.984-5.744-8.024-8.024c3.04-2.28,5.744-4.992,8.024-8.024
		c2.28,3.032,4.984,5.744,8.024,8.024C172.984,74.28,170.28,76.992,168,80.024z"/>
	<path style="fill:#232323;" d="M472,344c-13.232,0-24-10.768-24-24c0-4.416-3.576-8-8-8s-8,3.584-8,8c0,13.232-10.768,24-24,24
		c-4.424,0-8,3.584-8,8s3.576,8,8,8c13.232,0,24,10.768,24,24c0,4.416,3.576,8,8,8s8-3.584,8-8c0-13.232,10.768-24,24-24
		c4.424,0,8-3.584,8-8S476.424,344,472,344z M440,360.024c-2.28-3.032-4.984-5.744-8.024-8.024c3.04-2.28,5.744-4.992,8.024-8.024
		c2.28,3.032,4.984,5.744,8.024,8.024C444.984,354.28,442.28,356.992,440,360.024z"/>
	<path style="fill:#232323;" d="M248,248h-8v16h8c48.52,0,88-39.48,88-88h-16C320,215.696,287.704,248,248,248z"/>
</g>
<g>
</g>
<g>
</g>
<g>
</g>
<g>
</g>
<g>
</g>
<g>
</g>
<g>
</g>
<g>
</g>
<g>
</g>
<g>
</g>
<g>
</g>
<g>
</g>
<g>
</g>
<g>
</g>
<g>
</g>
</svg>
