<?xml version="1.0" encoding="iso-8859-1"?>
<!-- Generator: Adobe Illustrator 19.0.0, SVG Export Plug-In . SVG Version: 6.00 Build 0)  -->
<svg version="1.1" id="Capa_1" xmlns="http://www.w3.org/2000/svg" xmlns:xlink="http://www.w3.org/1999/xlink" x="0px" y="0px"
	 viewBox="0 0 480 480" style="enable-background:new 0 0 480 480;" xml:space="preserve">
<g>
	<polygon style="fill:#827ED9;" points="143.997,366.408 128.517,423.16 143.997,454.112 159.477,423.16 	"/>
	<polygon style="fill:#827ED9;" points="103.997,340.896 123.141,334.52 103.997,324.944 	"/>
	<polygon style="fill:#827ED9;" points="16.885,464 87.997,464 87.997,352 87.997,312 87.997,307.104 31.413,325.96 	"/>
	<path style="fill:#827ED9;" d="M112.277,421.896l20.072-73.584l-28.352,9.456V464h27.056l-18.208-36.424
		C111.965,425.824,111.765,423.8,112.277,421.896z"/>
	<path style="fill:#827ED9;" d="M175.717,421.896c0.512,1.896,0.32,3.92-0.56,5.68L156.941,464h27.056V357.768l-28.352-9.448
		L175.717,421.896z"/>
</g>
<circle style="fill:#DD763E;" cx="383.997" cy="40" r="8"/>
<path style="fill:#FED27C;" d="M417.981,192l-17.224-36.592c-0.496-1.064-0.76-2.232-0.76-3.408V96h-48v56
	c0,1.176-0.264,2.344-0.76,3.408L334.013,192H417.981z"/>
<path style="fill:#FFFFFF;" d="M164.901,277.496c-0.44,0.104-0.88,0.184-1.32,0.288c-2.808,0.616-5.632,1.104-8.48,1.456
	c-0.456,0.056-0.904,0.128-1.36,0.176c-3.24,0.344-6.488,0.584-9.744,0.584s-6.504-0.24-9.744-0.584
	c-0.456-0.048-0.904-0.12-1.36-0.176c-2.848-0.352-5.672-0.832-8.48-1.456c-0.44-0.096-0.88-0.184-1.32-0.288
	c-6.424-1.52-12.704-3.744-18.736-6.68c-0.12-0.056-0.24-0.096-0.36-0.152V296v11.056l40,20l40-20V296v-25.328
	c-0.12,0.056-0.24,0.096-0.36,0.152C177.605,273.76,171.325,275.984,164.901,277.496z"/>
<g>
	<polygon style="fill:#827ED9;" points="183.997,340.896 183.997,324.944 164.853,334.52 	"/>
	<polygon style="fill:#827ED9;" points="199.997,312 199.997,352 199.997,464 271.109,464 256.581,325.96 199.997,307.104 	"/>
</g>
<polygon style="fill:#DD763E;" points="292.605,280 459.389,280 425.509,208 326.485,208 "/>
<path style="fill:#FFFFFF;" d="M100.621,250.08c0.008,0.008,0.016,0.008,0.016,0.008c3.144,2.24,6.424,4.184,9.792,5.88
	c0.192,0.096,0.376,0.2,0.568,0.288c3.304,1.632,6.704,2.992,10.168,4.104c0.232,0.072,0.472,0.144,0.712,0.216
	c3.504,1.088,7.064,1.928,10.664,2.488c0.088,0.016,0.176,0.024,0.264,0.032c7.408,1.12,14.944,1.12,22.36,0
	c0.096-0.016,0.192-0.024,0.288-0.04c3.592-0.56,7.144-1.4,10.64-2.48c0.248-0.08,0.496-0.152,0.744-0.232
	c3.456-1.112,6.84-2.472,10.136-4.096c0.2-0.096,0.4-0.208,0.6-0.304c3.368-1.696,6.64-3.632,9.776-5.872
	c0.008,0,0.008-0.008,0.008-0.008c1.528-1.088,3.04-2.2,4.496-3.416c23.696-19.752,38.008-48.12,39.92-78.672h-15.776
	c-27.528,0-50.488-19.976-55.144-46.192c-4.888,1.152-9.728,2.432-14.536,3.792c-2.432,0.688-4.832,1.464-7.24,2.216
	c-2.28,0.704-4.56,1.384-6.824,2.136c-3.072,1.024-6.112,2.128-9.152,3.24c-1.472,0.536-2.952,1.064-4.416,1.624
	c-3.488,1.336-6.952,2.736-10.392,4.192c-0.896,0.376-1.784,0.752-2.672,1.136c-3.84,1.664-7.656,3.392-11.44,5.208
	c-0.336,0.16-0.68,0.328-1.016,0.488c-12.68,6.136-25.016,13.096-36.944,20.888c1.6,31.072,15.992,60.008,39.92,79.944
	C97.597,247.888,99.101,249,100.621,250.08z"/>
<path style="fill:#FED27C;" d="M144.549,109.488c0.44-0.12,0.88-0.264,1.32-0.384c5.144-1.392,10.336-2.68,15.568-3.84l4.824-1.072
	c2.368-0.504,4.848,0.056,6.744,1.568c1.888,1.52,2.992,3.808,2.992,6.24c0,22.056,17.944,40,40,40h23.952h0.048
	c0-52.936-43.064-96-96-96s-96,43.064-96,96v0.856c25.704-16.72,53.272-29.808,82.352-39.152
	C135.045,112.2,139.781,110.8,144.549,109.488z"/>
<circle style="fill:#DD763E;" cx="455.997" cy="24" r="8"/>
<g>
	<path style="fill:#232323;" d="M21.469,312.416c-2.976,0.992-5.096,3.624-5.424,6.752l-16,152c-0.24,2.248,0.496,4.504,2.008,6.184
		S5.733,480,7.997,480h88h96h88c2.264,0,4.432-0.96,5.944-2.648s2.248-3.936,2.008-6.184L276.253,360h51.744v120h16V352
		c0-4.424-3.584-8-8-8h-61.432l-2.616-24.832c-0.328-3.128-2.448-5.76-5.424-6.752l-66.528-22.176v-29.672
		c0.696-0.544,1.416-1.032,2.104-1.6c27.352-22.8,43.576-55.664,45.512-90.968h0.384c4.416,0,8-3.576,8-8v-8
		c0-61.76-50.24-112-112-112s-112,50.24-112,112v16c0,3,1.672,5.744,4.336,7.12c1.16,0.592,2.416,0.88,3.664,0.88
		c0.328,0,0.648-0.112,0.976-0.152c3.776,32.336,19.704,62.096,44.92,83.12c0.68,0.568,1.408,1.056,2.104,1.6v29.672L21.469,312.416
		z M31.413,325.96l56.584-18.856V312v40v112H16.885L31.413,325.96z M159.477,423.16l-15.48,30.952l-15.48-30.952l15.48-56.752
		L159.477,423.16z M183.997,340.896l-19.144-6.376l19.144-9.576V340.896z M103.997,340.896v-15.952l19.144,9.576L103.997,340.896z
		 M103.997,357.768l28.352-9.448l-20.072,73.584c-0.512,1.896-0.32,3.92,0.56,5.68L131.053,464h-27.056V357.768z M156.941,464
		l18.208-36.424c0.88-1.76,1.08-3.784,0.56-5.68l-20.072-73.584l28.36,9.456V464H156.941z M256.581,325.96L271.109,464h-71.112V352
		v-40v-4.896L256.581,325.96z M47.997,152c0-52.936,43.064-96,96-96s96,43.064,96,96h-0.048h-23.952c-22.056,0-40-17.944-40-40
		c0-2.432-1.104-4.72-2.992-6.24c-1.888-1.512-4.368-2.08-6.744-1.568l-4.824,1.072c-5.232,1.16-10.416,2.448-15.568,3.84
		c-0.448,0.12-0.88,0.264-1.32,0.384c-4.768,1.312-9.512,2.712-14.2,4.216l0,0c-29.08,9.352-56.648,22.432-82.352,39.152V152z
		 M56.221,166.728c11.928-7.784,24.264-14.744,36.944-20.888c0.336-0.16,0.672-0.328,1.016-0.488c3.784-1.816,7.6-3.544,11.44-5.208
		c0.888-0.384,1.784-0.76,2.672-1.136c3.44-1.456,6.904-2.856,10.392-4.192c1.464-0.56,2.944-1.088,4.416-1.624
		c3.04-1.112,6.08-2.216,9.152-3.24c2.256-0.752,4.544-1.432,6.824-2.136c2.408-0.744,4.816-1.52,7.24-2.216
		c4.808-1.36,9.648-2.64,14.536-3.792C165.509,148.024,188.469,168,215.997,168h15.784c-1.912,30.552-16.224,58.92-39.92,78.672
		c-1.456,1.216-2.968,2.328-4.488,3.416c0,0-0.008,0.008-0.016,0.008c-3.136,2.24-6.408,4.176-9.776,5.872
		c-0.2,0.104-0.4,0.208-0.6,0.304c-3.296,1.624-6.688,2.984-10.136,4.096c-0.248,0.08-0.496,0.152-0.744,0.232
		c-3.496,1.08-7.048,1.928-10.64,2.48c-0.096,0.016-0.192,0.024-0.288,0.04c-7.408,1.12-14.952,1.12-22.36,0
		c-0.088-0.016-0.176-0.024-0.264-0.032c-3.6-0.56-7.16-1.4-10.664-2.488c-0.24-0.072-0.472-0.144-0.712-0.216
		c-3.464-1.112-6.864-2.48-10.168-4.104c-0.192-0.096-0.376-0.192-0.568-0.288c-3.368-1.696-6.656-3.64-9.792-5.88
		c-0.008-0.008-0.016-0.008-0.016-0.008c-1.52-1.088-3.032-2.2-4.488-3.416C72.213,226.736,57.821,197.8,56.221,166.728z
		 M123.093,277.496c0.44,0.104,0.88,0.184,1.32,0.288c2.808,0.616,5.64,1.104,8.48,1.456c0.456,0.056,0.904,0.128,1.36,0.176
		c3.24,0.344,6.488,0.584,9.744,0.584s6.504-0.24,9.744-0.584c0.456-0.048,0.904-0.12,1.36-0.176
		c2.848-0.352,5.672-0.832,8.48-1.456c0.44-0.096,0.88-0.184,1.32-0.288c6.424-1.52,12.696-3.744,18.736-6.68
		c0.12-0.056,0.24-0.096,0.36-0.152V296v11.056l-40,20l-40-20V296v-25.328c0.12,0.056,0.24,0.096,0.36,0.152
		C110.389,273.76,116.669,275.984,123.093,277.496z"/>
	<path style="fill:#232323;" d="M335.997,88v62.208l-21.824,46.376c0,0,0,0,0,0.008l-41.408,88c-1.168,2.48-0.984,5.384,0.488,7.696
		c1.456,2.312,4.008,3.712,6.744,3.712h192c2.736,0,5.288-1.4,6.752-3.712c1.472-2.312,1.656-5.216,0.488-7.696l-41.408-88
		c0,0,0,0,0-0.008l-21.832-46.376V88c0-4.424-3.584-8-8-8h-64C339.581,80,335.997,83.576,335.997,88z M292.605,280l33.88-72h99.024
		l33.88,72H292.605z M351.997,152V96h48v56c0,1.176,0.264,2.344,0.76,3.408L417.981,192h-83.968l17.224-36.592
		C351.733,154.344,351.997,153.176,351.997,152z"/>
	<path style="fill:#232323;" d="M407.997,40c0-13.232-10.768-24-24-24s-24,10.768-24,24s10.768,24,24,24S407.997,53.232,407.997,40z
		 M375.997,40c0-4.416,3.592-8,8-8s8,3.584,8,8s-3.592,8-8,8S375.997,44.416,375.997,40z"/>
	<path style="fill:#232323;" d="M455.997,0c-13.232,0-24,10.768-24,24s10.768,24,24,24s24-10.768,24-24S469.229,0,455.997,0z
		 M455.997,32c-4.408,0-8-3.584-8-8s3.592-8,8-8s8,3.584,8,8S460.405,32,455.997,32z"/>
	<rect x="367.997" y="312" style="fill:#232323;" width="16" height="16"/>
	<rect x="367.997" y="344" style="fill:#232323;" width="16" height="16"/>
	<rect x="367.997" y="376" style="fill:#232323;" width="16" height="104"/>
	<path style="fill:#232323;" d="M407.997,352v128h16V360h56v-16h-64C411.581,344,407.997,347.576,407.997,352z"/>
	<rect x="335.997" y="312" style="fill:#232323;" width="16" height="16"/>
	<rect x="399.997" y="312" style="fill:#232323;" width="16" height="16"/>
	<rect x="431.997" y="312" style="fill:#232323;" width="16" height="16"/>
	<rect x="303.997" y="312" style="fill:#232323;" width="16" height="16"/>
</g>
<g>
</g>
<g>
</g>
<g>
</g>
<g>
</g>
<g>
</g>
<g>
</g>
<g>
</g>
<g>
</g>
<g>
</g>
<g>
</g>
<g>
</g>
<g>
</g>
<g>
</g>
<g>
</g>
<g>
</g>
</svg>
