<?xml version="1.0" encoding="iso-8859-1"?>
<!-- Generator: Adobe Illustrator 19.0.0, SVG Export Plug-In . SVG Version: 6.00 Build 0)  -->
<svg version="1.1" id="Capa_1" xmlns="http://www.w3.org/2000/svg" xmlns:xlink="http://www.w3.org/1999/xlink" x="0px" y="0px"
	 viewBox="0 0 480 480" style="enable-background:new 0 0 480 480;" xml:space="preserve">
<g>
	<path style="fill:#DD763E;" d="M294.687,260.424c-1.416,0.624-2.84,1.2-4.28,1.776c-1.656,0.648-3.328,1.248-5.008,1.832
		c-6.904,2.456-14.04,4.392-21.408,5.712V288h16c4.416,0,8,3.584,8,8v32c0,4.416-3.584,8-8,8v104c0,9.04-3.128,17.296-8.208,24
		h136.216V256H303.951C300.927,257.616,297.823,259.064,294.687,260.424z M383.999,400c4.416,0,8,3.584,8,8v32c0,4.416-3.584,8-8,8
		h-80c-4.416,0-8-3.584-8-8v-32c0-4.416,3.584-8,8-8H383.999z"/>
	<rect x="311.999" y="416" style="fill:#DD763E;" width="64" height="16"/>
	<path style="fill:#DD763E;" d="M199.999,336c-4.416,0-8-3.584-8-8v-32c0-4.416,3.584-8,8-8h16v-18.248
		c-7.368-1.32-14.504-3.248-21.408-5.712c-1.68-0.584-3.352-1.184-5.008-1.832c-1.44-0.576-2.864-1.152-4.28-1.776
		c-3.136-1.368-6.24-2.808-9.264-4.424H71.999v208h136.208c-5.08-6.712-8.208-14.968-8.208-24.008V336z"/>
	<path style="fill:#DD763E;" d="M455.999,360c-0.128,0-0.256,0-0.384-0.008c-3.168-0.16-5.944-2.16-7.08-5.12l-24.536-63.784V448.68
		l40-51.432v-43.36l-0.84,1.688C461.799,358.296,459.015,360,455.999,360z"/>
	<polygon style="fill:#DD763E;" points="456.959,332.2 463.999,318.112 463.999,199.32 425.087,249.344 	"/>
	<path style="fill:#DD763E;" d="M367.191,184c-0.288,0.776-0.64,1.52-0.944,2.28c-0.592,1.472-1.176,2.936-1.816,4.384
		c-1.432,3.256-2.952,6.464-4.624,9.576c-0.344,0.632-0.72,1.24-1.072,1.872c-1.68,3.016-3.472,5.952-5.368,8.824
		c-0.368,0.56-0.728,1.12-1.104,1.672c-4.68,6.872-9.984,13.28-15.848,19.176c-0.176,0.176-0.344,0.352-0.512,0.528
		c-2.672,2.656-5.408,5.248-8.304,7.68h84.488l43.56-56h-88.456V184z"/>
</g>
<path style="fill:#FED27C;" d="M439.999,31.976c-2.28,3.032-4.992,5.744-8.024,8.024c3.032,2.28,5.744,4.992,8.024,8.024
	c2.28-3.032,4.992-5.744,8.024-8.024C444.991,37.72,442.279,35.008,439.999,31.976z"/>
<path style="fill:#827ED9;" d="M215.999,440c0,13.232,10.768,24,24,24s24-10.768,24-24V336h-48V440z"/>
<polygon style="fill:#DD763E;" points="55.999,322.728 55.999,279.728 25.903,335.624 "/>
<path style="fill:#FED27C;" d="M271.999,136.024c2.28-3.032,4.992-5.744,8.024-8.024c-3.032-2.28-5.744-4.992-8.024-8.024
	c-2.28,3.032-4.992,5.744-8.024,8.024C267.007,130.28,269.719,132.992,271.999,136.024z"/>
<path style="fill:#DD763E;" d="M148.919,236.704c-2.048-1.856-4.104-3.704-6.04-5.68c-1.4-1.432-2.696-2.944-4.024-4.432
	c-1.84-2.048-3.648-4.12-5.36-6.28c-1.128-1.424-2.192-2.896-3.264-4.368c-1.816-2.48-3.544-5.016-5.192-7.624
	c-0.784-1.256-1.56-2.512-2.304-3.792c-1.832-3.128-3.52-6.328-5.104-9.608c-0.272-0.576-0.624-1.104-0.896-1.68L80.351,240h72.064
	C151.191,238.96,150.104,237.784,148.919,236.704z"/>
<g>
	<path style="fill:#827ED9;" d="M231.999,271.72V288h16v-16.28C242.447,272.104,237.551,272.104,231.999,271.72z"/>
	<polygon style="fill:#827ED9;" points="207.999,304 207.999,320 271.999,320 271.999,304 255.999,304 223.999,304 	"/>
	<path style="fill:#827ED9;" d="M130.488,184.832c0.224,0.504,0.48,0.976,0.712,1.48c1.304,2.824,2.68,5.608,4.192,8.312
		c0.504,0.896,1.072,1.752,1.6,2.632c1.336,2.248,2.68,4.488,4.152,6.64c1.056,1.536,2.216,2.984,3.344,4.464
		c1.088,1.44,2.12,2.912,3.272,4.296c2.056,2.472,4.24,4.84,6.488,7.136c0.344,0.352,0.648,0.736,0.992,1.08
		c5.368,5.36,11.24,10.208,17.536,14.488c0.992,0.672,2.056,1.248,3.072,1.888c2.176,1.384,4.344,2.776,6.608,4.016
		c0.568,0.312,1.152,0.584,1.728,0.88c2.28,1.2,4.616,2.312,6.984,3.368c1.32,0.584,2.64,1.176,3.976,1.712
		c1.088,0.44,2.216,0.808,3.328,1.224c26.568,9.632,56.496,9.632,83.064,0c1.104-0.408,2.232-0.776,3.328-1.224
		c1.344-0.536,2.656-1.128,3.976-1.712c2.36-1.056,4.704-2.168,6.984-3.368c0.568-0.304,1.16-0.568,1.728-0.88
		c2.104-1.152,4.112-2.456,6.144-3.736c1.184-0.744,2.424-1.424,3.584-2.208c12.616-8.568,23.52-19.48,32.088-32.096
		c0.712-1.056,1.328-2.184,2.016-3.272c1.288-2.04,2.592-4.064,3.76-6.184c1.28-2.328,2.408-4.752,3.536-7.168
		c0.44-0.936,0.936-1.848,1.352-2.792c1.248-2.872,2.336-5.832,3.368-8.816c4.192-12.256,6.6-25.336,6.6-38.992
		c0-66.168-53.832-120-120-120s-120,53.832-120,120c0,13.888,2.488,27.168,6.848,39.584
		C127.943,178.72,129.143,181.816,130.488,184.832z M239.999,32c57.344,0,104,46.656,104,104s-46.656,104-104,104
		s-104-46.656-104-104S182.656,32,239.999,32z"/>
</g>
<path style="fill:#FFFFFF;" d="M239.999,224c48.52,0,88-39.48,88-88s-39.48-88-88-88s-88,39.48-88,88S191.479,224,239.999,224z
	 M239.999,120c13.232,0,24-10.768,24-24c0-4.416,3.584-8,8-8s8,3.584,8,8c0,13.232,10.768,24,24,24c4.416,0,8,3.584,8,8
	s-3.584,8-8,8c-13.232,0-24,10.768-24,24c0,4.416-3.584,8-8,8s-8-3.584-8-8c0-13.232-10.768-24-24-24c-4.416,0-8-3.584-8-8
	S235.583,120,239.999,120z"/>
<g>
	<path style="fill:#232323;" d="M239.999,240c57.344,0,104-46.656,104-104s-46.656-104-104-104s-104,46.656-104,104
		S182.656,240,239.999,240z M239.999,48c48.52,0,88,39.48,88,88s-39.48,88-88,88s-88-39.48-88-88S191.479,48,239.999,48z"/>
	<path style="fill:#232323;" d="M479.183,172.488c-1.344-2.744-4.128-4.488-7.184-4.488h-99.96c2.496-10.28,3.96-20.96,3.96-32
		c0-74.992-61.008-136-136-136s-136,61.008-136,136c0,13.864,2.112,27.24,5.984,39.848l-52.304,67.24
		c-0.28,0.36-0.448,0.76-0.664,1.152l-0.056-0.032l-56,104c-1.616,3-1.16,6.68,1.144,9.192c1.544,1.696,3.696,2.6,5.896,2.6
		c1.056,0,2.128-0.208,3.152-0.648l44.848-19.224V472c0,4.416,3.584,8,8,8h352c2.568,0,4.752-1.288,6.216-3.168l0.104,0.08l56-72
		c1.088-1.408,1.68-3.136,1.68-4.912V176h-0.072C479.927,174.8,479.735,173.6,479.183,172.488z M463.999,318.112l-7.04,14.088
		l-31.864-82.856l38.904-50.024V318.112z M367.191,184h88.448l-43.56,56h-84.48c2.896-2.432,5.632-5.024,8.304-7.68
		c0.176-0.176,0.344-0.352,0.512-0.528c5.864-5.896,11.168-12.304,15.848-19.176c0.376-0.552,0.736-1.112,1.104-1.672
		c1.896-2.872,3.688-5.808,5.368-8.824c0.352-0.632,0.728-1.24,1.072-1.872c1.672-3.12,3.192-6.32,4.624-9.576
		c0.64-1.448,1.224-2.912,1.816-4.384C366.551,185.52,366.903,184.776,367.191,184z M239.999,16c66.168,0,120,53.832,120,120
		c0,13.656-2.408,26.736-6.624,38.984c-1.024,2.984-2.12,5.944-3.368,8.816c-0.416,0.952-0.912,1.856-1.352,2.792
		c-1.128,2.424-2.256,4.84-3.536,7.168c-1.168,2.12-2.472,4.144-3.76,6.184c-0.68,1.08-1.296,2.208-2.016,3.272
		c-8.568,12.624-19.472,23.528-32.088,32.096c-1.16,0.784-2.392,1.464-3.584,2.208c-2.024,1.28-4.04,2.576-6.144,3.736
		c-0.568,0.312-1.152,0.584-1.728,0.88c-2.28,1.2-4.616,2.312-6.984,3.368c-1.32,0.584-2.64,1.176-3.976,1.712
		c-1.088,0.44-2.216,0.808-3.328,1.224c-26.568,9.632-56.496,9.632-83.064,0c-1.104-0.408-2.232-0.776-3.328-1.224
		c-1.344-0.536-2.656-1.128-3.976-1.712c-2.36-1.056-4.704-2.168-6.984-3.368c-0.568-0.304-1.16-0.568-1.728-0.88
		c-2.264-1.24-4.432-2.632-6.608-4.016c-1.016-0.64-2.08-1.216-3.072-1.888c-6.296-4.272-12.168-9.128-17.536-14.488
		c-0.344-0.344-0.648-0.728-0.992-1.08c-2.224-2.296-4.4-4.664-6.464-7.136c-1.152-1.384-2.184-2.856-3.272-4.296
		c-1.128-1.48-2.288-2.936-3.344-4.464c-1.472-2.152-2.824-4.392-4.152-6.64c-0.528-0.88-1.096-1.736-1.6-2.632
		c-1.512-2.704-2.888-5.48-4.192-8.312c-0.232-0.496-0.488-0.976-0.712-1.48c-1.344-3.016-2.544-6.104-3.64-9.248
		c-4.36-12.408-6.848-25.688-6.848-39.576C119.999,69.832,173.831,16,239.999,16z M263.999,440c0,13.232-10.768,24-24,24
		s-24-10.768-24-24V336h48V440z M271.999,320h-64v-16h16h32h16V320z M247.999,288h-16v-16.28c5.552,0.384,10.448,0.384,16,0V288z
		 M116.719,193.24c0.272,0.576,0.616,1.104,0.896,1.68c1.584,3.272,3.272,6.48,5.104,9.608c0.744,1.28,1.52,2.536,2.304,3.792
		c1.648,2.608,3.376,5.144,5.192,7.624c1.072,1.472,2.136,2.936,3.264,4.368c1.712,2.16,3.52,4.224,5.36,6.28
		c1.336,1.488,2.632,3,4.024,4.432c1.936,1.976,3.992,3.824,6.04,5.68c1.192,1.08,2.272,2.264,3.504,3.296H80.343L116.719,193.24z
		 M25.903,335.624l30.096-55.896v42.992L25.903,335.624z M71.999,256h104.048c3.024,1.616,6.128,3.064,9.264,4.424
		c1.416,0.624,2.84,1.2,4.28,1.776c1.656,0.648,3.328,1.248,5.008,1.832c6.904,2.456,14.04,4.392,21.408,5.712V288h-16
		c-4.416,0-8,3.584-8,8v32c0,4.416,3.584,8,8,8v104c0,9.04,3.128,17.296,8.208,24H71.999V256z M407.999,464H271.791
		c5.08-6.704,8.208-14.96,8.208-24V336c4.416,0,8-3.584,8-8v-32c0-4.416-3.584-8-8-8h-16v-18.248
		c7.368-1.32,14.496-3.248,21.408-5.712c1.68-0.584,3.352-1.184,5.008-1.832c1.44-0.576,2.864-1.152,4.28-1.776
		c3.136-1.368,6.24-2.808,9.264-4.424h104.04V464z M423.999,448.68V291.088l24.528,63.784c1.144,2.96,3.92,4.968,7.08,5.12
		c0.136,0.008,0.264,0.008,0.392,0.008c3.016,0,5.8-1.704,7.16-4.424l0.84-1.688v43.36L423.999,448.68z"/>
	<path style="fill:#232323;" d="M471.999,32c-13.232,0-24-10.768-24-24c0-4.416-3.584-8-8-8s-8,3.584-8,8c0,13.232-10.768,24-24,24
		c-4.416,0-8,3.584-8,8s3.584,8,8,8c13.232,0,24,10.768,24,24c0,4.416,3.584,8,8,8s8-3.584,8-8c0-13.232,10.768-24,24-24
		c4.416,0,8-3.584,8-8S476.415,32,471.999,32z M439.999,48.024c-2.28-3.032-4.992-5.744-8.024-8.024
		c3.032-2.28,5.744-4.992,8.024-8.024c2.28,3.032,4.992,5.744,8.024,8.024C444.991,42.28,442.279,44.992,439.999,48.024z"/>
	<path style="fill:#232323;" d="M239.999,136c13.232,0,24,10.768,24,24c0,4.416,3.584,8,8,8s8-3.584,8-8c0-13.232,10.768-24,24-24
		c4.416,0,8-3.584,8-8s-3.584-8-8-8c-13.232,0-24-10.768-24-24c0-4.416-3.584-8-8-8s-8,3.584-8,8c0,13.232-10.768,24-24,24
		c-4.416,0-8,3.584-8,8S235.583,136,239.999,136z M271.999,119.976c2.28,3.032,4.992,5.744,8.024,8.024
		c-3.032,2.28-5.744,4.992-8.024,8.024c-2.28-3.032-4.992-5.744-8.024-8.024C267.007,125.72,269.719,123.008,271.999,119.976z"/>
	<path style="fill:#232323;" d="M295.999,408v32c0,4.416,3.584,8,8,8h80c4.416,0,8-3.584,8-8v-32c0-4.416-3.584-8-8-8h-80
		C299.583,400,295.999,403.584,295.999,408z M311.999,416h64v16h-64V416z"/>
</g>
<g>
</g>
<g>
</g>
<g>
</g>
<g>
</g>
<g>
</g>
<g>
</g>
<g>
</g>
<g>
</g>
<g>
</g>
<g>
</g>
<g>
</g>
<g>
</g>
<g>
</g>
<g>
</g>
<g>
</g>
</svg>
