<?xml version="1.0" encoding="iso-8859-1"?>
<!-- Generator: Adobe Illustrator 19.0.0, SVG Export Plug-In . SVG Version: 6.00 Build 0)  -->
<svg version="1.1" id="Capa_1" xmlns="http://www.w3.org/2000/svg" xmlns:xlink="http://www.w3.org/1999/xlink" x="0px" y="0px"
	 viewBox="0 0 480 480" style="enable-background:new 0 0 480 480;" xml:space="preserve">
<path style="fill:#FFFFFF;" d="M432,160H240c0,0,8,112,96,112S432,160,432,160z"/>
<g>
	<rect x="432" y="96" style="fill:#FED27C;" width="16" height="16"/>
	<rect x="128" y="320" style="fill:#FED27C;" width="16" height="16"/>
</g>
<path style="fill:#DD763E;" d="M96,272c35.288,0,64-28.712,64-64s-28.712-64-64-64s-64,28.712-64,64S60.712,272,96,272z M96,216
	c-13.232,0-24-10.768-24-24c0-10.416,6.712-19.216,16-22.528V152h16v17.472c9.288,3.312,16,12.112,16,22.528h-16
	c0-4.408-3.584-8-8-8s-8,3.592-8,8c0,4.408,3.584,8,8,8c13.232,0,24,10.768,24,24c0,10.416-6.712,19.216-16,22.528V264H88v-17.472
	c-9.288-3.312-16-12.112-16-22.528h16c0,4.408,3.584,8,8,8s8-3.592,8-8C104,219.592,100.416,216,96,216z"/>
<g>
	<path style="fill:#FED27C;" d="M320,131.304V144h8v-36.688l-29.656-29.656l11.312-11.312L336,92.688l26.344-26.344l11.312,11.312
		L344,107.312V144h8v-12.696c0-3.256,1.976-6.192,4.992-7.416C378.256,115.272,392,94.904,392,72c0-30.88-25.128-56-56-56
		s-56,25.12-56,56c0,22.904,13.744,43.272,35.008,51.888C318.024,125.112,320,128.048,320,131.304z"/>
	<path style="fill:#FED27C;" d="M320,168c0,8.824,7.176,16,16,16s16-7.176,16-16v-8h-32V168z"/>
</g>
<g>
	<polygon style="fill:#827ED9;" points="376,340.896 376,324.944 356.856,334.52 	"/>
	<polygon style="fill:#827ED9;" points="336,366.408 320.52,423.16 336,454.112 351.48,423.16 	"/>
	<polygon style="fill:#827ED9;" points="208.88,464 280,464 280,352 280,312 280,307.096 223.416,325.96 	"/>
</g>
<path style="fill:#FFFFFF;" d="M376,307.056V296v-25.328c-0.136,0.064-0.272,0.104-0.408,0.168
	c-6.024,2.92-12.28,5.136-18.688,6.656c-0.44,0.104-0.88,0.192-1.32,0.288c-2.824,0.624-5.664,1.112-8.52,1.464
	c-0.432,0.056-0.864,0.12-1.296,0.168c-3.248,0.352-6.512,0.592-9.776,0.592c-3.272,0-6.536-0.24-9.8-0.592
	c-0.408-0.048-0.816-0.104-1.232-0.16c-2.888-0.352-5.76-0.848-8.616-1.48c-0.408-0.088-0.824-0.168-1.232-0.264
	c-6.424-1.52-12.712-3.744-18.752-6.68c-0.12-0.064-0.256-0.096-0.376-0.16V296v11.056l40,20L376,307.056z"/>
<g>
	<path style="fill:#827ED9;" d="M304.84,427.576c-0.88-1.76-1.08-3.784-0.56-5.68l20.064-73.576L296,357.768V464h27.056
		L304.84,427.576z"/>
	<polygon style="fill:#827ED9;" points="296,324.944 296,340.896 315.144,334.52 	"/>
	<path style="fill:#827ED9;" d="M367.72,421.896c0.512,1.896,0.32,3.92-0.56,5.68L348.944,464H376V357.768l-28.344-9.448
		L367.72,421.896z"/>
</g>
<rect x="16" y="72" style="fill:#FED27C;" width="16" height="16"/>
<polygon style="fill:#827ED9;" points="448.584,325.96 392,307.096 392,312 392,352 392,464 463.12,464 "/>
<rect x="448" y="16" style="fill:#FED27C;" width="16" height="16"/>
<g>
	<path style="fill:#232323;" d="M264,152h-24c-2.144,0-4.184,0.856-5.696,2.376c-1.504,1.52-2.328,3.584-2.304,5.728
		c0.496,38.368,17.656,75.328,45.896,98.856c0.68,0.568,1.408,1.056,2.104,1.6v29.672l-66.528,22.176
		c-2.976,0.992-5.096,3.632-5.424,6.752l-16,152c-0.24,2.256,0.496,4.504,2.008,6.184c1.512,1.696,3.68,2.656,5.944,2.656h88h96h88
		c2.264,0,4.432-0.96,5.944-2.648c1.512-1.68,2.248-3.936,2.008-6.184l-16-152c-0.328-3.12-2.448-5.76-5.424-6.752L392,290.232
		V260.56c0.696-0.544,1.416-1.032,2.104-1.6C422.84,235.016,440,198.016,440,160c0-4.416-3.576-8-8-8h-24v16h15.712
		c-2.184,30.456-16.736,59.408-39.856,78.672c-1.456,1.208-2.96,2.32-4.472,3.408c-0.008,0.008-0.016,0.008-0.024,0.016
		c-3.144,2.248-6.44,4.2-9.816,5.896c-0.176,0.088-0.344,0.184-0.52,0.272c-3.32,1.64-6.736,3.008-10.216,4.128
		c-0.216,0.072-0.432,0.128-0.64,0.2c-3.528,1.096-7.112,1.944-10.736,2.504c-0.056,0.008-0.112,0.016-0.168,0.024
		c-7.456,1.136-15.048,1.136-22.504,0c-0.056-0.008-0.112-0.016-0.16-0.024c-3.624-0.56-7.208-1.408-10.736-2.504
		c-0.216-0.064-0.432-0.128-0.64-0.2c-3.48-1.112-6.896-2.488-10.216-4.128c-0.176-0.088-0.344-0.176-0.52-0.264
		c-3.384-1.704-6.672-3.648-9.816-5.896c-0.008-0.008-0.016-0.008-0.024-0.016c-1.52-1.08-3.024-2.192-4.472-3.408
		c-22.36-18.632-37.16-48.208-39.752-78.672H264V152z M351.48,423.16L336,454.112l-15.48-30.96L336,366.408L351.48,423.16z
		 M376,340.896l-19.144-6.384L376,324.944V340.896z M296,340.896v-15.952l19.144,9.576L296,340.896z M223.416,325.96L280,307.096
		V312v40v112h-71.12L223.416,325.96z M296,357.768l28.344-9.448l-20.064,73.576c-0.512,1.896-0.32,3.92,0.56,5.68L323.056,464H296
		V357.768z M348.944,464l18.208-36.424c0.88-1.76,1.08-3.784,0.56-5.68l-20.064-73.576L376,357.768V464H348.944z M448.584,325.96
		L463.12,464H392V352v-40v-4.904L448.584,325.96z M376,270.672V296v11.056l-40,20l-40-20V296v-25.328
		c0.12,0.064,0.256,0.096,0.376,0.16c6.04,2.936,12.328,5.16,18.752,6.68c0.408,0.096,0.816,0.176,1.232,0.264
		c2.856,0.632,5.728,1.128,8.616,1.48c0.408,0.048,0.816,0.112,1.232,0.16c3.256,0.352,6.52,0.592,9.8,0.592
		c3.264,0,6.528-0.24,9.776-0.592c0.432-0.048,0.864-0.112,1.296-0.168c2.856-0.352,5.696-0.84,8.52-1.464
		c0.44-0.096,0.88-0.184,1.32-0.288c6.4-1.512,12.664-3.728,18.688-6.656C375.728,270.784,375.864,270.744,376,270.672z"/>
	<path style="fill:#232323;" d="M268.504,264.456l-9.016-13.216C239.56,264.824,216.224,272,192,272
		c-10.176,0-20.288-1.272-30.04-3.792l-4,15.496C169.024,286.552,180.472,288,192,288C219.456,288,245.904,279.856,268.504,264.456z
		"/>
	<path style="fill:#232323;" d="M62.776,109.504l15.2,5C94.192,65.152,140.016,32,192,32c15.552,0,30.688,2.928,44.976,8.712
		l6-14.832C226.768,19.328,209.616,16,192,16C133.088,16,81.16,53.576,62.776,109.504z"/>
	<path style="fill:#232323;" d="M96,232c-4.416,0-8-3.592-8-8H72c0,10.416,6.712,19.216,16,22.528V264h16v-17.472
		c9.288-3.312,16-12.112,16-22.528c0-13.232-10.768-24-24-24c-4.416,0-8-3.592-8-8c0-4.408,3.584-8,8-8s8,3.592,8,8h16
		c0-10.416-6.712-19.216-16-22.528V152H88v17.472c-9.288,3.312-16,12.112-16,22.528c0,13.232,10.768,24,24,24c4.416,0,8,3.592,8,8
		C104,228.408,100.416,232,96,232z"/>
	<path style="fill:#232323;" d="M304,168c0,17.648,14.352,32,32,32s32-14.352,32-32v-16v-15.52c24.472-12.112,40-36.856,40-64.48
		c0-39.696-32.296-72-72-72s-72,32.304-72,72c0,27.624,15.528,52.368,40,64.48V152V168z M352,168c0,8.824-7.176,16-16,16
		s-16-7.176-16-16v-8h32V168z M280,72c0-30.88,25.128-56,56-56s56,25.12,56,56c0,22.904-13.744,43.272-35.008,51.888
		c-3.016,1.224-4.992,4.16-4.992,7.416V144h-8v-36.688l29.656-29.656l-11.312-11.312L336,92.688l-26.344-26.344l-11.312,11.312
		L328,107.312V144h-8v-12.696c0-3.256-1.976-6.192-4.992-7.416C293.744,115.272,280,94.904,280,72z"/>
	<rect x="448" y="0" style="fill:#232323;" width="16" height="16"/>
	<rect x="432" y="16" style="fill:#232323;" width="16" height="16"/>
	<rect x="464" y="16" style="fill:#232323;" width="16" height="16"/>
	<rect x="448" y="32" style="fill:#232323;" width="16" height="16"/>
	<rect x="432" y="80" style="fill:#232323;" width="16" height="16"/>
	<rect x="416" y="96" style="fill:#232323;" width="16" height="16"/>
	<rect x="448" y="96" style="fill:#232323;" width="16" height="16"/>
	<rect x="432" y="112" style="fill:#232323;" width="16" height="16"/>
	<path style="fill:#232323;" d="M16,208c0,44.112,35.888,80,80,80s80-35.888,80-80s-35.888-80-80-80S16,163.888,16,208z M96,144
		c35.288,0,64,28.712,64,64s-28.712,64-64,64s-64-28.712-64-64S60.712,144,96,144z"/>
	<rect x="16" y="56" style="fill:#232323;" width="16" height="16"/>
	<rect x="0" y="72" style="fill:#232323;" width="16" height="16"/>
	<rect x="32" y="72" style="fill:#232323;" width="16" height="16"/>
	<rect x="16" y="88" style="fill:#232323;" width="16" height="16"/>
	<rect x="128" y="304" style="fill:#232323;" width="16" height="16"/>
	<rect x="112" y="320" style="fill:#232323;" width="16" height="16"/>
	<rect x="144" y="320" style="fill:#232323;" width="16" height="16"/>
	<rect x="128" y="336" style="fill:#232323;" width="16" height="16"/>
</g>
<g>
</g>
<g>
</g>
<g>
</g>
<g>
</g>
<g>
</g>
<g>
</g>
<g>
</g>
<g>
</g>
<g>
</g>
<g>
</g>
<g>
</g>
<g>
</g>
<g>
</g>
<g>
</g>
<g>
</g>
</svg>
