<?xml version="1.0" encoding="iso-8859-1"?>
<!-- Generator: Adobe Illustrator 19.0.0, SVG Export Plug-In . SVG Version: 6.00 Build 0)  -->
<svg version="1.1" id="Capa_1" xmlns="http://www.w3.org/2000/svg" xmlns:xlink="http://www.w3.org/1999/xlink" x="0px" y="0px"
	 viewBox="0 0 480 480" style="enable-background:new 0 0 480 480;" xml:space="preserve">
<g>
	<polygon style="fill:#827ED9;" points="16.886,464 87.998,464 87.998,352 87.998,312 87.998,307.096 31.414,325.96 	"/>
	<path style="fill:#827ED9;" d="M112.278,421.896l20.064-73.576l-28.344,9.448V464h27.056l-18.208-36.424
		C111.966,425.816,111.766,423.792,112.278,421.896z"/>
	<polygon style="fill:#827ED9;" points="143.998,366.408 128.518,423.16 143.998,454.112 159.478,423.16 	"/>
	<polygon style="fill:#827ED9;" points="103.998,340.896 123.142,334.52 103.998,324.944 	"/>
	<path style="fill:#827ED9;" d="M175.718,421.896c0.512,1.896,0.32,3.92-0.56,5.68L156.942,464h27.056V357.768l-28.344-9.448
		L175.718,421.896z"/>
	<polygon style="fill:#827ED9;" points="183.998,340.896 183.998,324.944 164.854,334.52 	"/>
</g>
<path style="fill:#FED27C;" d="M130.374,113.704c4.6-1.48,9.24-2.84,13.912-4.128c0.544-0.152,1.072-0.328,1.616-0.472
	c5.136-1.392,10.32-2.672,15.544-3.832l4.824-1.072c2.376-0.536,4.848,0.048,6.744,1.568c1.88,1.512,2.984,3.808,2.984,6.232
	c0,22.056,17.944,40,40,40h23.952h0.048c0-52.936-43.064-96-96-96s-96,43.064-96,96v0.864c25.664-16.696,53.192-29.76,82.208-39.104
	C130.262,113.744,130.318,113.72,130.374,113.704z"/>
<polygon style="fill:#827ED9;" points="199.998,312 199.998,352 199.998,464 271.11,464 256.582,325.96 199.998,307.096 "/>
<path style="fill:#FFFFFF;" d="M164.83,277.52c-0.368,0.088-0.744,0.16-1.112,0.24c-2.904,0.648-5.832,1.152-8.776,1.504
	c-0.368,0.048-0.728,0.104-1.096,0.144c-3.272,0.36-6.56,0.6-9.848,0.6s-6.576-0.24-9.848-0.6c-0.368-0.04-0.728-0.096-1.088-0.144
	c-2.944-0.36-5.872-0.856-8.776-1.504c-0.368-0.08-0.744-0.152-1.112-0.24c-6.448-1.52-12.76-3.752-18.824-6.704
	c-0.112-0.056-0.232-0.088-0.344-0.144V296v11.056l40,20l40-20V296v-25.328c-0.112,0.056-0.232,0.088-0.344,0.144
	C177.59,273.768,171.278,276,164.83,277.52z"/>
<path style="fill:#DD763E;" d="M303.998,104c0-8.824-7.176-16-16-16c-0.768,0-1.528,0.056-2.264,0.16
	c-4.192,0.592-7.576,3.304-9.296,7.432c-1.92,4.632-1.288,9.944,1.664,13.872l33.896,45.2l33.776-45.032
	c3.744-5,3.112-10.808,1.264-14.576c-1.016-2.088-4.12-6.952-10.776-7.056l-0.264-8v8c-8.824,0-16,7.176-16,16c0,4.416-3.584,8-8,8
	S303.998,108.416,303.998,104z"/>
<path style="fill:#FFFFFF;" d="M100.614,250.08c0.008,0.008,0.024,0.008,0.032,0.016c3.152,2.248,6.448,4.2,9.832,5.904
	c0.168,0.088,0.336,0.176,0.512,0.264c3.32,1.64,6.736,3.008,10.208,4.128c0.224,0.072,0.448,0.136,0.672,0.208
	c3.512,1.088,7.088,1.936,10.696,2.496c0.08,0.008,0.152,0.016,0.232,0.032c7.424,1.128,14.984,1.128,22.408,0
	c0.08-0.008,0.152-0.016,0.232-0.032c3.608-0.56,7.184-1.408,10.696-2.496c0.224-0.072,0.456-0.136,0.68-0.208
	c3.48-1.112,6.888-2.488,10.208-4.12c0.168-0.08,0.336-0.176,0.512-0.264c3.384-1.704,6.68-3.656,9.832-5.904
	c0.008-0.008,0.024-0.008,0.032-0.016c1.52-1.08,3.024-2.192,4.472-3.4c23.696-19.752,38.008-48.12,39.92-78.672h-15.792
	c-27.528,0-50.488-19.976-55.144-46.192c-4.904,1.152-9.76,2.44-14.584,3.8c-2.312,0.656-4.6,1.4-6.904,2.112
	c-2.4,0.736-4.8,1.456-7.176,2.248c-2.984,1-5.944,2.072-8.904,3.152c-1.56,0.568-3.128,1.128-4.68,1.72
	c-3.432,1.312-6.832,2.696-10.216,4.128c-0.944,0.4-1.888,0.792-2.824,1.2c-3.824,1.656-7.616,3.376-11.376,5.184
	c-0.344,0.16-0.68,0.328-1.024,0.496C80.486,152,68.15,158.968,56.214,166.76c1.6,31.064,15.992,60,39.92,79.944
	C97.59,247.888,99.094,248.992,100.614,250.08z"/>
<path style="fill:#DD763E;" d="M410.67,333.568c2.728-4.088,3.152-9.464,1.112-14.024c-1.832-4.088-5.288-6.784-9.488-7.384
	c-0.744-0.104-1.512-0.16-2.296-0.16c-8.824,0-16,7.176-16,16c0,4.416-3.584,8-8,8s-8-3.584-8-8c0-8.824-7.176-16-16-16
	c-6.928,0.112-10.16,4.912-11.24,6.968c-1.952,3.72-2.8,9.552,0.68,14.768l34.56,51.84L410.67,333.568z"/>
<g>
	<path style="fill:#232323;" d="M21.47,312.408c-2.976,0.992-5.096,3.632-5.424,6.752l-16,152c-0.24,2.256,0.496,4.504,2.008,6.184
		C3.566,479.04,5.734,480,7.998,480h88h96h88c2.264,0,4.432-0.96,5.944-2.648c1.512-1.68,2.248-3.936,2.008-6.184l-16-152
		c-0.328-3.12-2.448-5.76-5.424-6.752l-66.528-22.184V260.56c0.696-0.544,1.416-1.032,2.104-1.6
		c27.352-22.792,43.576-55.656,45.512-90.968h0.384c4.416,0,8-3.584,8-8v-8c0-61.76-50.24-112-112-112s-112,50.248-112,112.008v16
		c0,3,1.672,5.744,4.336,7.112c1.16,0.592,2.416,0.888,3.664,0.888c0.328,0,0.648-0.112,0.976-0.152
		c3.776,32.336,19.704,62.096,44.92,83.12c0.68,0.568,1.408,1.056,2.104,1.6v29.672L21.47,312.408z M31.414,325.96l56.584-18.864
		V312v40v112H16.886L31.414,325.96z M159.478,423.16l-15.48,30.952l-15.48-30.96l15.48-56.744L159.478,423.16z M183.998,340.896
		l-19.144-6.384l19.144-9.568V340.896z M103.998,340.896v-15.952l19.144,9.576L103.998,340.896z M103.998,357.768l28.344-9.448
		l-20.064,73.576c-0.512,1.896-0.32,3.92,0.56,5.68L131.054,464h-27.056V357.768z M156.942,464l18.208-36.424
		c0.88-1.76,1.08-3.784,0.56-5.68l-20.064-73.576l28.352,9.448V464H156.942z M256.582,325.96L271.11,464h-71.112V352v-40v-4.904
		L256.582,325.96z M47.998,152c0-52.936,43.064-96,96-96s96,43.064,96,96h-0.048h-23.952c-22.056,0-40-17.944-40-40
		c0-2.424-1.104-4.72-2.992-6.24s-4.36-2.104-6.744-1.568l-4.824,1.072c-5.224,1.16-10.4,2.448-15.544,3.832
		c-0.544,0.144-1.072,0.32-1.616,0.472c-4.672,1.288-9.312,2.656-13.912,4.128c-0.056,0.016-0.112,0.04-0.168,0.056
		c-29.008,9.352-56.536,22.416-82.2,39.112V152z M56.222,166.736c11.936-7.792,24.272-14.752,36.952-20.896
		c0.344-0.168,0.68-0.336,1.024-0.496c3.76-1.808,7.56-3.52,11.376-5.184c0.936-0.408,1.88-0.8,2.824-1.2
		c3.384-1.432,6.792-2.808,10.216-4.128c1.552-0.592,3.12-1.152,4.68-1.72c2.96-1.08,5.92-2.152,8.904-3.152
		c2.376-0.792,4.776-1.512,7.176-2.248c2.296-0.712,4.584-1.448,6.904-2.112c4.824-1.368,9.68-2.648,14.584-3.8
		c4.648,26.224,27.608,46.2,55.136,46.2h15.784c-1.912,30.552-16.224,58.92-39.92,78.672c-1.448,1.208-2.952,2.32-4.472,3.4
		c-0.008,0.008-0.024,0.008-0.032,0.016c-3.152,2.248-6.448,4.2-9.832,5.904c-0.168,0.088-0.336,0.176-0.512,0.264
		c-3.32,1.64-6.728,3.008-10.208,4.12c-0.224,0.072-0.448,0.136-0.68,0.208c-3.512,1.088-7.088,1.936-10.696,2.496
		c-0.08,0.008-0.152,0.016-0.232,0.032c-7.424,1.128-14.984,1.128-22.408,0c-0.08-0.008-0.152-0.016-0.232-0.032
		c-3.608-0.56-7.184-1.408-10.696-2.496c-0.224-0.072-0.448-0.136-0.672-0.208c-3.48-1.112-6.888-2.488-10.208-4.128
		c-0.168-0.08-0.336-0.176-0.512-0.264c-3.384-1.704-6.68-3.656-9.832-5.904c-0.008-0.008-0.024-0.008-0.032-0.016
		c-1.52-1.08-3.024-2.192-4.472-3.4C72.214,226.736,57.822,197.8,56.222,166.736z M123.166,277.52
		c0.368,0.088,0.744,0.16,1.112,0.24c2.904,0.648,5.832,1.152,8.776,1.504c0.368,0.04,0.728,0.104,1.088,0.144
		c3.272,0.36,6.56,0.6,9.848,0.6s6.576-0.24,9.848-0.6c0.368-0.04,0.728-0.096,1.096-0.144c2.944-0.36,5.872-0.856,8.776-1.504
		c0.368-0.08,0.744-0.152,1.112-0.24c6.448-1.52,12.76-3.752,18.824-6.704c0.112-0.056,0.232-0.088,0.344-0.144V296v11.056l-40,20
		l-40-20V296v-25.328c0.112,0.056,0.232,0.088,0.344,0.144C110.406,273.768,116.718,276,123.166,277.52z"/>
	<path style="fill:#232323;" d="M375.998,280h16c0-13.232,10.768-24,24-24v-16C393.942,240,375.998,257.944,375.998,280z"/>
	<path style="fill:#232323;" d="M439.998,168h16c0-13.232,10.768-24,24-24v-16C457.942,128,439.998,145.944,439.998,168z"/>
	<path style="fill:#232323;" d="M287.998,72c-1.528,0-3.032,0.112-4.504,0.32c-9.792,1.376-17.952,7.792-21.832,17.144
		c-4.08,9.832-2.688,21.176,3.64,29.608l40.296,53.728c1.504,2.008,3.88,3.2,6.4,3.2s4.888-1.184,6.4-3.2l40.176-53.568
		c6.768-9.016,7.848-20.984,2.84-31.216c-4.832-9.848-14.136-15.84-24.784-16.008C336.55,72,336.078,72,335.998,72
		c-9.544,0-18.136,4.2-24,10.856C306.134,76.2,297.542,72,287.998,72z M319.998,104c0-8.824,7.176-16,16-16v-8l0.272,8
		c6.656,0.104,9.752,4.968,10.776,7.056c1.848,3.768,2.48,9.576-1.264,14.576l-33.784,45.032l-33.904-45.2
		c-2.944-3.928-3.584-9.24-1.664-13.872c1.72-4.136,5.104-6.84,9.296-7.432c0.744-0.104,1.504-0.16,2.272-0.16
		c8.824,0,16,7.176,16,16c0,4.416,3.584,8,8,8S319.998,108.416,319.998,104z"/>
	<path style="fill:#232323;" d="M255.998,272c13.232,0,24,10.768,24,24h16c0-22.056-17.944-40-40-40V272z"/>
	<path style="fill:#232323;" d="M335.998,248h16c0-22.056,17.944-40,40-40v-16C361.118,192,335.998,217.12,335.998,248z"/>
	<rect x="407.998" y="192" style="fill:#232323;" width="16" height="16"/>
	<rect x="415.998" y="64" style="fill:#232323;" width="16" height="16"/>
	<rect x="239.998" y="40" style="fill:#232323;" width="16" height="16"/>
	<rect x="327.998" style="fill:#232323;" width="16" height="16"/>
	<rect x="287.998" y="208" style="fill:#232323;" width="16" height="16"/>
	<rect x="231.998" y="256" style="fill:#232323;" width="16" height="16"/>
	<path style="fill:#232323;" d="M375.998,408c2.672,0,5.168-1.336,6.656-3.56l41.328-61.992c5.832-8.752,6.736-19.752,2.408-29.432
		c-4.056-9.072-12.216-15.32-21.824-16.688c-1.496-0.216-3.024-0.328-4.568-0.328c-9.56,0-18.16,4.216-24.024,10.88
		c-5.928-6.664-14.648-10.88-24.496-10.88h-0.008c-10.568,0.168-19.872,5.976-24.88,15.528c-5.208,9.936-4.624,21.84,1.536,31.08
		l41.216,61.824C370.83,406.664,373.326,408,375.998,408z M340.758,318.968c1.08-2.056,4.312-6.856,11.24-6.968
		c8.824,0,16,7.176,16,16c0,4.416,3.584,8,8,8s8-3.584,8-8c0-8.824,7.176-16,16-16c0.784,0,1.552,0.056,2.304,0.16
		c4.2,0.6,7.656,3.296,9.488,7.384c2.04,4.568,1.616,9.936-1.112,14.024l-34.68,52.008l-34.56-51.84
		C337.958,328.52,338.806,322.688,340.758,318.968z"/>
	<rect x="303.998" y="376" style="fill:#232323;" width="16" height="16"/>
	<rect x="439.998" y="408" style="fill:#232323;" width="16" height="16"/>
	<rect x="335.998" y="464" style="fill:#232323;" width="16" height="16"/>
</g>
<g>
</g>
<g>
</g>
<g>
</g>
<g>
</g>
<g>
</g>
<g>
</g>
<g>
</g>
<g>
</g>
<g>
</g>
<g>
</g>
<g>
</g>
<g>
</g>
<g>
</g>
<g>
</g>
<g>
</g>
</svg>
