<?xml version="1.0" encoding="iso-8859-1"?>
<!-- Generator: Adobe Illustrator 19.0.0, SVG Export Plug-In . SVG Version: 6.00 Build 0)  -->
<svg version="1.1" id="Capa_1" xmlns="http://www.w3.org/2000/svg" xmlns:xlink="http://www.w3.org/1999/xlink" x="0px" y="0px"
	 viewBox="0 0 480 480" style="enable-background:new 0 0 480 480;" xml:space="preserve">
<path style="fill:#FED27C;" d="M343.998,224c-41.176,0-77.56,20.856-99.176,52.552c-0.464,0.68-0.872,1.392-1.32,2.072
	c-1.48,2.272-2.904,4.584-4.232,6.96c-0.568,1.008-1.096,2.04-1.632,3.064c-1.168,2.232-2.264,4.512-3.296,6.824
	c-0.432,0.968-0.88,1.928-1.28,2.912c-2.696,6.528-4.824,13.336-6.336,20.376c-0.216,1.008-0.392,2.024-0.576,3.032
	c-0.496,2.64-0.904,5.304-1.224,8c-0.128,1.064-0.264,2.128-0.36,3.192c-0.344,3.64-0.568,7.296-0.568,11.016
	c0,3.744,0.224,7.432,0.56,11.08c0.064,0.712,0.128,1.424,0.208,2.136c3.048,27.632,15.48,52.464,34.072,71.216
	c0.456,0.456,0.928,0.88,1.392,1.328c1.808,1.768,3.688,3.448,5.608,5.096c1.088,0.928,2.152,1.864,3.28,2.752
	c1.184,0.952,2.432,1.832,3.656,2.736c2.792,2.056,5.664,4.016,8.664,5.856c18.24,11.216,39.624,17.8,62.56,17.8
	c66.168,0,120-53.832,120-120S410.166,224,343.998,224z M423.998,360c0,6.168-2.408,11.744-6.24,16c3.84,4.256,6.24,9.832,6.24,16
	c0,13.232-10.768,24-24,24h-50.192c-13.304,0-26.184-3.464-37.808-9.72V408c0,4.424-3.584,8-8,8h-32c-4.416,0-8-3.576-8-8v-96
	c0-4.424,3.584-8,8-8h32c4.416,0,8,3.576,8,8v4.904l2.528-0.84c3.272-1.096,5.472-4.152,5.472-7.592V248c0-4.424,3.584-8,8-8
	c22.056,0,40,17.944,40,40v12c0,6.616,5.384,12,12,12h20c13.232,0,24,10.768,24,24c0,6.168-2.408,11.744-6.24,16
	C421.59,348.256,423.998,353.832,423.998,360z"/>
<g>
	<path style="fill:#DD763E;" d="M407.998,328c0-4.416-3.592-8-8-8h-20c-15.44,0-28-12.56-28-28v-12c0-10.432-6.688-19.328-16-22.632
		v51.104c0,10.344-6.592,19.496-16.408,22.768l-7.592,2.528v53.952l2.296,1.528C324.846,396.28,337.126,400,349.806,400h50.192
		c4.408,0,8-3.584,8-8c0-4.416-3.592-8-8-8v-16c4.408,0,8-3.584,8-8c0-4.416-3.592-8-8-8v-16
		C404.406,336,407.998,332.416,407.998,328z"/>
	<polygon style="fill:#DD763E;" points="279.998,400 295.998,400 295.998,392 295.998,328 295.998,320 279.998,320 	"/>
</g>
<g>
	<polygon style="fill:#827ED9;" points="159.478,383.16 143.998,326.408 128.518,383.16 143.998,414.112 	"/>
	<polygon style="fill:#827ED9;" points="103.998,300.896 123.142,294.52 103.998,284.944 	"/>
</g>
<path style="fill:#FFFFFF;" d="M231.782,128h-15.784c-27.528,0-50.488-19.976-55.144-46.192c-4.888,1.152-9.728,2.432-14.536,3.792
	c-2.432,0.688-4.832,1.464-7.24,2.216c-2.28,0.704-4.56,1.384-6.824,2.136c-3.072,1.024-6.112,2.128-9.152,3.24
	c-1.472,0.536-2.952,1.064-4.416,1.624c-3.488,1.336-6.952,2.736-10.392,4.192c-0.896,0.376-1.784,0.752-2.672,1.136
	c-3.84,1.664-7.656,3.392-11.44,5.208c-0.336,0.16-0.68,0.328-1.016,0.488c-12.68,6.136-25.016,13.096-36.944,20.888
	c1.6,31.072,15.992,60.008,39.92,79.944c1.456,1.216,2.96,2.328,4.48,3.408c0.008,0.008,0.016,0.008,0.024,0.008
	c3.144,2.248,6.432,4.192,9.816,5.896c0.176,0.088,0.36,0.184,0.536,0.272c3.312,1.632,6.72,3.008,10.192,4.12
	c0.224,0.072,0.456,0.136,0.68,0.208c3.512,1.088,7.088,1.936,10.696,2.496c0.08,0.016,0.16,0.016,0.24,0.032
	c7.408,1.12,14.952,1.12,22.368,0c0.104-0.016,0.2-0.024,0.304-0.04c3.584-0.552,7.128-1.4,10.616-2.48
	c0.256-0.08,0.52-0.152,0.776-0.24c3.44-1.104,6.824-2.464,10.112-4.088c0.208-0.104,0.416-0.216,0.616-0.32
	c3.36-1.696,6.632-3.632,9.768-5.864h0.008c1.528-1.088,3.04-2.2,4.496-3.416C215.558,186.92,229.87,158.552,231.782,128z"/>
<g>
	<path style="fill:#827ED9;" d="M270.39,458.192c-1.728-1.12-3.416-2.288-5.096-3.48c-1.792-1.264-3.528-2.584-5.248-3.92
		c-1.024-0.808-2.088-1.568-3.088-2.408c-2.968-2.456-5.776-5.056-8.496-7.728c-0.384-0.376-0.76-0.76-1.136-1.144
		c-18.592-18.656-31.256-42.152-36.528-68.016c-0.016-0.064-0.032-0.128-0.04-0.192c-0.832-4.112-1.456-8.28-1.912-12.496
		c-0.08-0.728-0.136-1.456-0.208-2.192c-0.384-4.16-0.64-8.36-0.64-12.616c0-4.152,0.256-8.272,0.624-12.376
		c0.088-0.952,0.176-1.896,0.28-2.848c0.448-4.008,1.024-7.992,1.824-11.928c0.072-0.336,0.168-0.664,0.232-1.008
		c0.768-3.64,1.712-7.232,2.784-10.792c0.256-0.856,0.512-1.712,0.784-2.56c1.208-3.768,2.544-7.496,4.088-11.144
		c0.144-0.344,0.32-0.68,0.464-1.024c1.416-3.288,2.992-6.512,4.68-9.696c0.448-0.84,0.888-1.688,1.352-2.52
		c0.416-0.744,0.776-1.504,1.2-2.24l-26.312-8.76V272v40v152h71.304l-0.456-5.504C270.686,458.4,270.542,458.288,270.39,458.192z"/>
	<path style="fill:#827ED9;" d="M175.718,381.896c0.512,1.896,0.32,3.92-0.56,5.68l-24,48c-1.36,2.712-4.128,4.424-7.16,4.424
		s-5.8-1.712-7.16-4.424l-24-48c-0.88-1.76-1.08-3.784-0.56-5.68l20.072-73.584l-28.352,9.456V464h80V317.768l-28.352-9.448
		L175.718,381.896z"/>
</g>
<path style="fill:#FFFFFF;" d="M164.902,237.496c-0.44,0.104-0.88,0.184-1.32,0.288c-2.808,0.616-5.632,1.104-8.48,1.456
	c-0.456,0.056-0.904,0.128-1.36,0.176c-3.24,0.344-6.488,0.584-9.744,0.584s-6.504-0.24-9.744-0.584
	c-0.456-0.048-0.904-0.12-1.36-0.176c-2.848-0.352-5.672-0.832-8.48-1.456c-0.44-0.096-0.88-0.184-1.32-0.288
	c-6.424-1.52-12.704-3.744-18.736-6.68c-0.12-0.056-0.24-0.096-0.36-0.152V256v11.056l40,20l40-20V256v-25.328
	c-0.12,0.056-0.24,0.096-0.36,0.152C177.606,233.76,171.326,235.984,164.902,237.496z"/>
<polygon style="fill:#827ED9;" points="183.998,300.896 183.998,284.944 164.854,294.52 "/>
<path style="fill:#FED27C;" d="M144.55,69.488c0.44-0.12,0.88-0.264,1.32-0.384c5.144-1.392,10.336-2.68,15.568-3.84l4.824-1.072
	c2.368-0.504,4.848,0.056,6.744,1.568c1.888,1.52,2.992,3.808,2.992,6.24c0,22.056,17.944,40,40,40h23.952h0.048
	c0-52.936-43.064-96-96-96s-96,43.064-96,96v0.856c25.704-16.72,53.272-29.808,82.352-39.152
	C135.046,72.2,139.782,70.8,144.55,69.488z"/>
<polygon style="fill:#827ED9;" points="16.694,464 87.998,464 87.998,312 87.998,272 87.998,267.104 31.534,285.92 "/>
<g>
	<path style="fill:#232323;" d="M399.998,304h-20c-6.616,0-12-5.384-12-12v-12c0-22.056-17.944-40-40-40c-4.416,0-8,3.576-8,8
		v60.472c0,3.448-2.2,6.504-5.472,7.592l-2.528,0.84V312c0-4.424-3.584-8-8-8h-32c-4.416,0-8,3.576-8,8v96c0,4.424,3.584,8,8,8h32
		c4.416,0,8-3.576,8-8v-1.72c11.624,6.256,24.496,9.72,37.808,9.72h50.192c13.232,0,24-10.768,24-24c0-6.168-2.408-11.744-6.24-16
		c3.84-4.256,6.24-9.832,6.24-16c0-6.168-2.408-11.744-6.24-16c3.84-4.256,6.24-9.832,6.24-16
		C423.998,314.768,413.23,304,399.998,304z M295.998,400h-16v-80h16v8v64V400z M399.998,400h-50.192
		c-12.672,0-24.96-3.72-35.504-10.752l-2.304-1.528v-53.952l7.592-2.528c9.816-3.28,16.408-12.424,16.408-22.768v-51.104
		c9.312,3.304,16,12.2,16,22.632v12c0,15.44,12.56,28,28,28h20c4.408,0,8,3.584,8,8c0,4.416-3.592,8-8,8v16c4.408,0,8,3.584,8,8
		c0,4.416-3.592,8-8,8v16c4.408,0,8,3.584,8,8C407.998,396.416,404.406,400,399.998,400z"/>
	<path style="fill:#232323;" d="M343.998,208c-44.232,0-83.48,21.32-108.336,54.128l-35.664-11.888v-29.672
		c0.696-0.544,1.416-1.032,2.104-1.6c27.352-22.8,43.576-55.664,45.512-90.968h0.384c4.416,0,8-3.576,8-8v-8
		c0-61.76-50.24-112-112-112s-112,50.24-112,112v16c0,3,1.672,5.744,4.336,7.12c1.16,0.592,2.416,0.88,3.664,0.88
		c0.328,0,0.648-0.112,0.976-0.152c3.776,32.336,19.704,62.096,44.92,83.12c0.68,0.568,1.408,1.056,2.104,1.6v29.672L21.47,272.416
		c-3.032,1.008-5.176,3.736-5.44,6.92l-16,192c-0.184,2.224,0.568,4.44,2.088,6.08C3.63,479.064,5.758,480,7.998,480h88h96h88
		c2.24,0,4.368-0.936,5.888-2.584c1.512-1.64,2.272-3.848,2.088-6.08l-0.312-3.704C304.854,475.496,323.894,480,343.998,480
		c74.992,0,136-61.008,136-136S418.99,208,343.998,208z M159.478,383.16l-15.48,30.952l-15.48-30.952l15.48-56.752L159.478,383.16z
		 M183.998,300.896l-19.144-6.376l19.144-9.576V300.896z M103.998,300.896v-15.952l19.144,9.576L103.998,300.896z M47.998,112
		c0-52.936,43.064-96,96-96s96,43.064,96,96h-0.048h-23.952c-22.056,0-40-17.944-40-40c0-2.432-1.104-4.72-2.992-6.24
		c-1.888-1.512-4.376-2.08-6.744-1.568l-4.824,1.072c-5.232,1.16-10.416,2.448-15.568,3.84c-0.448,0.12-0.88,0.264-1.32,0.384
		c-4.768,1.312-9.512,2.712-14.2,4.216l0,0c-29.08,9.352-56.648,22.432-82.352,39.152V112z M56.222,126.728
		c11.928-7.784,24.264-14.744,36.944-20.888c0.336-0.16,0.672-0.328,1.016-0.488c3.784-1.816,7.6-3.544,11.44-5.208
		c0.888-0.384,1.784-0.76,2.672-1.136c3.44-1.456,6.904-2.856,10.392-4.192c1.464-0.56,2.944-1.088,4.416-1.624
		c3.04-1.112,6.08-2.216,9.152-3.24c2.256-0.752,4.544-1.432,6.824-2.136c2.408-0.744,4.816-1.52,7.24-2.216
		c4.808-1.36,9.648-2.64,14.536-3.792C165.51,108.024,188.47,128,215.998,128h15.784c-1.912,30.552-16.224,58.92-39.92,78.672
		c-1.456,1.216-2.968,2.328-4.488,3.416c0,0-0.008,0-0.016,0.008c-3.136,2.232-6.408,4.168-9.768,5.864
		c-0.208,0.104-0.408,0.216-0.616,0.32c-3.288,1.624-6.672,2.976-10.112,4.088c-0.256,0.08-0.52,0.16-0.776,0.24
		c-3.488,1.08-7.04,1.92-10.616,2.48c-0.096,0.016-0.2,0.024-0.304,0.04c-7.408,1.12-14.952,1.12-22.368,0
		c-0.08-0.008-0.16-0.016-0.24-0.032c-3.608-0.56-7.184-1.408-10.696-2.496c-0.224-0.072-0.456-0.136-0.68-0.208
		c-3.472-1.112-6.88-2.48-10.192-4.12c-0.176-0.088-0.36-0.184-0.536-0.272c-3.376-1.704-6.664-3.648-9.816-5.896
		c-0.008-0.008-0.016-0.008-0.024-0.008c-1.52-1.088-3.024-2.2-4.48-3.408C72.214,186.736,57.822,157.8,56.222,126.728z
		 M123.094,237.496c0.44,0.104,0.88,0.184,1.32,0.288c2.808,0.616,5.64,1.104,8.48,1.456c0.456,0.056,0.904,0.128,1.36,0.176
		c3.24,0.344,6.488,0.584,9.744,0.584s6.504-0.24,9.744-0.584c0.456-0.048,0.904-0.12,1.36-0.176
		c2.848-0.352,5.672-0.832,8.48-1.456c0.44-0.096,0.88-0.184,1.32-0.288c6.424-1.52,12.696-3.744,18.736-6.68
		c0.12-0.056,0.24-0.096,0.36-0.152V256v11.056l-40,20l-40-20V256v-25.328c0.12,0.056,0.24,0.096,0.36,0.152
		C110.39,233.76,116.67,235.984,123.094,237.496z M31.534,285.92l56.464-18.816V272v40v152H16.694L31.534,285.92z M103.998,464
		V317.768l28.352-9.448l-20.072,73.584c-0.512,1.896-0.32,3.92,0.56,5.68l24,48c1.36,2.704,4.128,4.416,7.16,4.416
		s5.8-1.712,7.16-4.424l24-48c0.88-1.76,1.08-3.784,0.56-5.68l-20.072-73.584l28.352,9.456V464H103.998z M270.846,458.504
		l0.456,5.496h-71.304V312v-40v-4.896l26.32,8.776c-0.424,0.736-0.792,1.496-1.2,2.24c-0.464,0.832-0.912,1.672-1.352,2.52
		c-1.68,3.176-3.256,6.408-4.68,9.696c-0.152,0.344-0.32,0.672-0.464,1.024c-1.544,3.656-2.88,7.376-4.088,11.144
		c-0.272,0.848-0.528,1.704-0.784,2.56c-1.064,3.56-2.016,7.152-2.784,10.792c-0.072,0.336-0.168,0.664-0.232,1.008
		c-0.8,3.936-1.376,7.92-1.824,11.928c-0.104,0.944-0.192,1.896-0.28,2.848c-0.376,4.088-0.632,8.208-0.632,12.36
		c0,4.256,0.256,8.456,0.64,12.624c0.064,0.728,0.128,1.464,0.208,2.192c0.456,4.216,1.08,8.384,1.912,12.496
		c0.016,0.064,0.032,0.128,0.04,0.192c5.272,25.864,17.936,49.36,36.528,68.016c0.376,0.384,0.752,0.76,1.136,1.144
		c2.728,2.672,5.528,5.272,8.496,7.728c1,0.84,2.064,1.6,3.088,2.408c1.712,1.344,3.456,2.656,5.248,3.92
		c1.672,1.192,3.368,2.36,5.096,3.48C270.542,458.288,270.686,458.4,270.846,458.504z M343.998,464
		c-22.936,0-44.32-6.584-62.56-17.792c-3-1.84-5.872-3.8-8.664-5.856c-1.224-0.904-2.472-1.784-3.656-2.736
		c-1.12-0.888-2.192-1.832-3.28-2.752c-1.912-1.648-3.8-3.328-5.608-5.096c-0.464-0.448-0.936-0.88-1.392-1.328
		c-18.592-18.752-31.032-43.584-34.072-71.216c-0.08-0.712-0.144-1.424-0.208-2.136c-0.336-3.656-0.56-7.344-0.56-11.088
		c0-3.72,0.224-7.376,0.56-11.008c0.096-1.072,0.232-2.128,0.36-3.192c0.32-2.696,0.728-5.36,1.224-8
		c0.192-1.016,0.36-2.032,0.576-3.032c1.512-7.04,3.648-13.848,6.336-20.376c0.4-0.976,0.848-1.936,1.28-2.912
		c1.032-2.312,2.128-4.592,3.296-6.824c0.536-1.024,1.072-2.048,1.632-3.064c1.328-2.376,2.752-4.688,4.232-6.96
		c0.448-0.688,0.856-1.392,1.32-2.072c21.624-31.704,58.008-52.56,99.184-52.56c66.168,0,120,53.832,120,120
		S410.166,464,343.998,464z"/>
	<rect x="271.998" y="16" style="fill:#232323;" width="16" height="16"/>
	<rect x="303.998" y="16" style="fill:#232323;" width="16" height="16"/>
	<rect x="335.998" y="176" style="fill:#232323;" width="16" height="16"/>
	<rect x="335.998" y="144" style="fill:#232323;" width="16" height="16"/>
	<rect x="335.998" y="112" style="fill:#232323;" width="16" height="16"/>
	<rect x="335.998" y="80" style="fill:#232323;" width="16" height="16"/>
	<rect x="335.998" y="48" style="fill:#232323;" width="16" height="16"/>
	<rect x="335.998" y="16" style="fill:#232323;" width="16" height="16"/>
	<rect x="239.998" y="16" style="fill:#232323;" width="16" height="16"/>
</g>
<g>
</g>
<g>
</g>
<g>
</g>
<g>
</g>
<g>
</g>
<g>
</g>
<g>
</g>
<g>
</g>
<g>
</g>
<g>
</g>
<g>
</g>
<g>
</g>
<g>
</g>
<g>
</g>
<g>
</g>
</svg>
