<?xml version="1.0" encoding="iso-8859-1"?>
<!-- Generator: Adobe Illustrator 19.0.0, SVG Export Plug-In . SVG Version: 6.00 Build 0)  -->
<svg version="1.1" id="Capa_1" xmlns="http://www.w3.org/2000/svg" xmlns:xlink="http://www.w3.org/1999/xlink" x="0px" y="0px"
	 viewBox="0 0 480 480" style="enable-background:new 0 0 480 480;" xml:space="preserve">
<g>
	<path style="fill:#FED27C;" d="M440,31.976c-2.28,3.032-4.992,5.744-8.024,8.024c3.032,2.28,5.744,4.992,8.024,8.024
		c2.28-3.032,4.992-5.744,8.024-8.024C444.992,37.72,442.28,35.008,440,31.976z"/>
	<path style="fill:#FED27C;" d="M280,141.848V104h-8v24C272,133.912,275.224,139.08,280,141.848z"/>
	<path style="fill:#FED27C;" d="M56,215.976c-2.28,3.032-4.992,5.744-8.024,8.024c3.032,2.28,5.744,4.992,8.024,8.024
		c2.28-3.032,4.992-5.744,8.024-8.024C60.992,221.72,58.28,219.008,56,215.976z"/>
	<path style="fill:#FED27C;" d="M192,144c8.824,0,16-7.176,16-16V99.608c-0.168-0.096-0.32-0.224-0.48-0.32
		c-0.872-0.528-1.712-1.08-2.52-1.688c-0.672-0.496-1.296-1.04-1.92-1.584c-1.016-0.888-1.976-1.824-2.872-2.832
		c-0.688-0.768-1.36-1.552-1.968-2.384c-0.472-0.648-0.912-1.296-1.336-1.976c-0.664-1.056-1.248-2.16-1.784-3.288
		c-0.272-0.584-0.56-1.152-0.792-1.752c-0.592-1.472-1.048-3-1.416-4.552c-0.12-0.528-0.232-1.056-0.328-1.592
		C192.232,75.792,192,73.92,192,72s0.232-3.792,0.568-5.632c0.096-0.536,0.2-1.064,0.328-1.592c0.368-1.56,0.824-3.08,1.416-4.552
		c0.24-0.6,0.52-1.168,0.792-1.744c0.536-1.128,1.128-2.232,1.784-3.288c0.424-0.68,0.864-1.336,1.328-1.976
		c0.616-0.832,1.288-1.624,1.976-2.4c0.896-1.008,1.848-1.936,2.864-2.816c0.632-0.544,1.256-1.088,1.928-1.592
		c0.816-0.608,1.656-1.16,2.52-1.688c0.168-0.104,0.312-0.224,0.48-0.32V32c0-8.824-7.176-16-16-16s-16,7.176-16,16v96
		C176,136.824,183.176,144,192,144z"/>
	<path style="fill:#FED27C;" d="M304,32c0-8.824-7.176-16-16-16s-16,7.176-16,16v8h32V32z"/>
	<path style="fill:#FED27C;" d="M256,32c0-8.824-7.176-16-16-16s-16,7.176-16,16v8h32V32z"/>
	<path style="fill:#FED27C;" d="M144,144c8.824,0,16-7.176,16-16V32c0-8.824-7.176-16-16-16s-16,7.176-16,16v96
		C128,136.824,135.176,144,144,144z"/>
	<path style="fill:#FED27C;" d="M256,128v-24h-32v24c0,8.824,7.176,16,16,16S256,136.824,256,128z"/>
</g>
<polygon style="fill:#FFFFFF;" points="320,328 312,328 152,328 144,328 144,360 320,360 "/>
<path style="fill:#FED27C;" d="M329.808,240.504L352,95.392V88c0-17.648-14.352-32-32-32h-8h-48h-40
	c-1.832,0-3.56,0.376-5.192,0.936c-0.048,0.016-0.08,0.048-0.128,0.072c-4.672,1.664-8.176,5.352-9.752,9.832
	c-0.08,0.24-0.152,0.48-0.224,0.72C208.28,68.984,208,70.464,208,72s0.28,3.016,0.704,4.448c0.072,0.24,0.144,0.48,0.224,0.72
	c1.568,4.472,5.08,8.168,9.752,9.832c0.048,0.016,0.08,0.048,0.128,0.072C220.44,87.624,222.168,88,224,88h40h24
	c4.416,0,8,3.584,8,8v56c0,1.024-0.224,2.008-0.592,2.944c-0.136,0.344-0.368,0.624-0.552,0.944c-0.256,0.448-0.44,0.928-0.776,1.32
	l-23.416,27.32c-14.616,17.04-22.664,38.8-22.664,61.256V264h-16v-18.216c0-26.272,9.416-51.728,26.512-71.672l15.136-17.664
	c-3.696-1.872-6.952-4.416-9.648-7.504c-5.872,6.72-14.4,11.056-24,11.056s-18.128-4.336-24-11.056
	c-5.872,6.72-14.4,11.056-24,11.056s-18.128-4.336-24-11.056c-5.872,6.72-14.4,11.056-24,11.056c-5.856,0-11.272-1.696-16-4.448
	v77.824c0,12.128,5.128,24.12,14.44,33.776C153.768,278.88,160,294.32,160,310.632V312h144v-5.792
	c0-13.464,4.448-26.808,12.52-37.576l4.288-5.712C325.72,256.376,328.832,248.624,329.808,240.504z"/>
<rect x="136" y="376" style="fill:#827ED9;" width="192" height="88"/>
<g>
	<path style="fill:#232323;" d="M329.328,278.232l4.288-5.712c6.592-8.792,10.768-19.2,12.04-29.856l22.256-145.456
		c0.056-0.4,0.088-0.8,0.088-1.208v-8c0-26.472-21.528-48-48-48v-8c0-17.648-14.352-32-32-32c-9.6,0-18.128,4.336-24,11.056
		C258.128,4.336,249.6,0,240,0s-18.128,4.336-24,11.056C210.128,4.336,201.6,0,192,0s-18.128,4.336-24,11.056
		C162.128,4.336,153.6,0,144,0c-17.648,0-32,14.352-32,32v96v105.368c0,16.296,6.72,32.232,18.928,44.88
		c8.424,8.744,13.072,20.24,13.072,32.384V312h-8c-4.416,0-8,3.584-8,8v40c-4.416,0-8,3.584-8,8v104c0,4.416,3.584,8,8,8h208
		c4.416,0,8-3.584,8-8V368c0-4.416-3.584-8-8-8v-40c0-4.416-3.584-8-8-8h-8v-5.792C320,296.184,323.312,286.248,329.328,278.232z
		 M288,16c8.824,0,16,7.176,16,16v8h-32v-8C272,23.176,279.176,16,288,16z M240,16c8.824,0,16,7.176,16,16v8h-32v-8
		C224,23.176,231.176,16,240,16z M280,104v37.848c-4.776-2.768-8-7.944-8-13.848v-24H280z M256,128c0,8.824-7.176,16-16,16
		s-16-7.176-16-16v-24h32V128z M192,16c8.824,0,16,7.176,16,16v12.392c-0.168,0.096-0.32,0.224-0.48,0.32
		c-0.872,0.528-1.712,1.08-2.52,1.688c-0.672,0.496-1.296,1.04-1.928,1.592c-1.016,0.888-1.968,1.816-2.864,2.816
		c-0.696,0.776-1.368,1.56-1.976,2.4c-0.472,0.64-0.912,1.296-1.328,1.976c-0.664,1.056-1.248,2.16-1.784,3.288
		c-0.272,0.584-0.56,1.152-0.792,1.744c-0.592,1.472-1.048,3-1.416,4.552c-0.12,0.528-0.232,1.056-0.328,1.592
		C192.232,68.208,192,70.08,192,72s0.232,3.792,0.568,5.632c0.096,0.536,0.2,1.064,0.328,1.592c0.368,1.56,0.824,3.08,1.416,4.552
		c0.24,0.6,0.52,1.168,0.792,1.752c0.536,1.128,1.128,2.232,1.784,3.288c0.424,0.68,0.864,1.336,1.336,1.976
		c0.608,0.832,1.28,1.616,1.968,2.384c0.896,1.008,1.856,1.944,2.872,2.832c0.624,0.544,1.248,1.088,1.92,1.584
		c0.816,0.608,1.656,1.16,2.52,1.688c0.168,0.104,0.312,0.224,0.48,0.32V128c0,8.824-7.176,16-16,16s-16-7.176-16-16V32
		C176,23.176,183.176,16,192,16z M128,32c0-8.824,7.176-16,16-16s16,7.176,16,16v96c0,8.824-7.176,16-16,16s-16-7.176-16-16V32z
		 M328,464H136v-88h192V464z M144,360v-32h8h160h8v32H144z M160,312v-1.368c0-16.312-6.232-31.752-17.56-43.488
		c-9.312-9.648-14.44-21.64-14.44-33.776v-77.824c4.728,2.76,10.144,4.456,16,4.456c9.6,0,18.128-4.336,24-11.056
		c5.872,6.72,14.4,11.056,24,11.056s18.128-4.336,24-11.056c5.872,6.72,14.4,11.056,24,11.056s18.128-4.336,24-11.056
		c2.704,3.088,5.96,5.632,9.648,7.504l-15.136,17.664C241.416,194.056,232,219.512,232,245.784V264h16v-18.216
		c0-22.456,8.048-44.208,22.664-61.256l23.416-27.32c0.336-0.392,0.528-0.88,0.776-1.32c0.184-0.32,0.416-0.592,0.552-0.944
		c0.368-0.936,0.592-1.92,0.592-2.944V96c0-4.416-3.584-8-8-8h-24h-40c-1.832,0-3.56-0.376-5.192-0.936
		c-0.048-0.016-0.08-0.048-0.128-0.072c-4.672-1.664-8.176-5.352-9.752-9.832c-0.08-0.24-0.152-0.48-0.224-0.72
		C208.28,75.016,208,73.536,208,72s0.28-3.016,0.704-4.448c0.072-0.24,0.144-0.48,0.224-0.72c1.568-4.472,5.08-8.168,9.752-9.832
		c0.048-0.016,0.08-0.048,0.128-0.072C220.44,56.376,222.168,56,224,56h40h48h8c17.648,0,32,14.352,32,32v7.392l-22.192,145.112
		c-0.976,8.128-4.088,15.88-8.992,22.416l-4.288,5.712c-8.08,10.776-12.528,24.12-12.528,37.576V312H160z"/>
	<rect x="392" y="88" style="fill:#232323;" width="16" height="16"/>
	<polygon style="fill:#232323;" points="408,184 408,160 424,160 424,144 408,144 408,120 392,120 392,144 376,144 376,160 392,160 
		392,184 	"/>
	<rect x="448" y="192" style="fill:#232323;" width="16" height="16"/>
	<polygon style="fill:#232323;" points="464,224 448,224 448,248 432,248 432,264 448,264 448,288 464,288 464,264 480,264 480,248 
		464,248 	"/>
	<path style="fill:#232323;" d="M472,32c-13.232,0-24-10.768-24-24c0-4.416-3.584-8-8-8s-8,3.584-8,8c0,13.232-10.768,24-24,24
		c-4.416,0-8,3.584-8,8s3.584,8,8,8c13.232,0,24,10.768,24,24c0,4.416,3.584,8,8,8s8-3.584,8-8c0-13.232,10.768-24,24-24
		c4.416,0,8-3.584,8-8S476.416,32,472,32z M440,48.024c-2.28-3.032-4.992-5.744-8.024-8.024c3.032-2.28,5.744-4.992,8.024-8.024
		c2.28,3.032,4.992,5.744,8.024,8.024C444.992,42.28,442.28,44.992,440,48.024z"/>
	<path style="fill:#232323;" d="M64,192c0-4.416-3.584-8-8-8s-8,3.584-8,8c0,13.232-10.768,24-24,24c-4.416,0-8,3.584-8,8
		s3.584,8,8,8c13.232,0,24,10.768,24,24c0,4.416,3.584,8,8,8s8-3.584,8-8c0-13.232,10.768-24,24-24c4.416,0,8-3.584,8-8
		s-3.584-8-8-8C74.768,216,64,205.232,64,192z M56,232.024c-2.28-3.032-4.992-5.744-8.024-8.024c3.032-2.28,5.744-4.992,8.024-8.024
		c2.28,3.032,4.992,5.744,8.024,8.024C60.992,226.28,58.28,228.992,56,232.024z"/>
	<rect x="16" style="fill:#232323;" width="16" height="16"/>
	<polygon style="fill:#232323;" points="16,96 32,96 32,72 48,72 48,56 32,56 32,32 16,32 16,56 0,56 0,72 16,72 	"/>
</g>
<g>
</g>
<g>
</g>
<g>
</g>
<g>
</g>
<g>
</g>
<g>
</g>
<g>
</g>
<g>
</g>
<g>
</g>
<g>
</g>
<g>
</g>
<g>
</g>
<g>
</g>
<g>
</g>
<g>
</g>
</svg>
