<?xml version="1.0" encoding="iso-8859-1"?>
<!-- Generator: Adobe Illustrator 19.0.0, SVG Export Plug-In . SVG Version: 6.00 Build 0)  -->
<svg version="1.1" id="Capa_1" xmlns="http://www.w3.org/2000/svg" xmlns:xlink="http://www.w3.org/1999/xlink" x="0px" y="0px"
	 viewBox="0 0 480 480" style="enable-background:new 0 0 480 480;" xml:space="preserve">
<polygon style="fill:#FED27C;" points="376,0 104,0 104,104 136,104 136,216 80,216 240,312 400,216 344,216 344,104 376,104 "/>
<g>
	<path style="fill:#DD763E;" d="M207.192,192h33.616C244,176.352,256.352,164,272,160.808V47.192C256.352,44,244,31.648,240.808,16
		h-33.616C204,31.648,191.648,44,176,47.192v113.616C191.648,164,204,176.352,207.192,192z M224,72c17.648,0,32,14.352,32,32
		s-14.352,32-32,32s-32-14.352-32-32S206.352,72,224,72z"/>
	<circle style="fill:#DD763E;" cx="224" cy="104" r="16"/>
	<path style="fill:#DD763E;" d="M176,177.472V192h14.528C188.112,185.224,182.776,179.888,176,177.472z"/>
	<path style="fill:#DD763E;" d="M272,30.528V16h-14.528C259.888,22.776,265.224,28.112,272,30.528z"/>
	<path style="fill:#DD763E;" d="M208,224h96V48h-16v152c0,4.424-3.576,8-8,8h-72V224z"/>
	<path style="fill:#DD763E;" d="M190.528,16H176v14.528C182.776,28.112,188.112,22.776,190.528,16z"/>
	<path style="fill:#DD763E;" d="M257.472,192H272v-14.528C265.224,179.888,259.888,185.224,257.472,192z"/>
</g>
<path style="fill:#FFFFFF;" d="M48,336h384V144h-80v64h48c3.592,0,6.752,2.4,7.712,5.864s-0.504,7.144-3.592,8.992l-160,96
	c-2.528,1.512-5.704,1.512-8.232,0l-160-96c-3.088-1.848-4.552-5.528-3.592-8.992C73.248,210.4,76.408,208,80,208h48v-64H48V336z"/>
<g>
	<path style="fill:#827ED9;" d="M16.968,448c2.792,9.848,12.448,16,39.032,16h368c26.584,0,36.24-6.152,39.032-16H320H160H16.968z"
		/>
	<polygon style="fill:#827ED9;" points="188.944,400 172.944,432 307.056,432 291.056,400 	"/>
	<path style="fill:#827ED9;" d="M440,112h-88v16h88c4.424,0,8,3.576,8,8v208c0,4.424-3.576,8-8,8H40c-4.424,0-8-3.576-8-8V136
		c0-4.424,3.576-8,8-8h88v-16H40c-13.232,0-24,10.768-24,24v224c0,13.232,10.768,24,24,24h144h112h144c13.232,0,24-10.768,24-24V136
		C464,122.768,453.232,112,440,112z"/>
</g>
<g>
	<path style="fill:#232323;" d="M440,96h-96c-4.424,0-8,3.576-8,8v32v80c0,4.424,3.576,8,8,8h27.12L240,302.672L108.88,224H136
		c4.424,0,8-3.576,8-8v-80v-32c0-4.424-3.576-8-8-8H40c-22.056,0-40,17.944-40,40v224c0,22.056,17.944,40,40,40h131.056l-16,32H8
		c-4.424,0-8,3.576-8,8c0,40,42.152,40,56,40h368c13.848,0,56,0,56-40c0-4.424-3.576-8-8-8H324.944l-16-32H440
		c22.056,0,40-17.944,40-40V136C480,113.944,462.056,96,440,96z M128,208H80c-3.592,0-6.752,2.4-7.712,5.864
		s0.504,7.144,3.592,8.992l160,96c2.528,1.512,5.704,1.512,8.232,0l160-96c3.088-1.848,4.552-5.528,3.592-8.992
		C406.752,210.4,403.592,208,400,208h-48v-64h80v192H48V144h80V208z M424,464H56c-26.584,0-36.24-6.152-39.032-16H160h160h143.032
		C460.24,457.848,450.584,464,424,464z M307.056,432H172.944l16-32h102.112L307.056,432z M464,360c0,13.232-10.768,24-24,24H296H184
		H40c-13.232,0-24-10.768-24-24V136c0-13.232,10.768-24,24-24h88v16H40c-4.424,0-8,3.576-8,8v208c0,4.424,3.576,8,8,8h400
		c4.424,0,8-3.576,8-8V136c0-4.424-3.576-8-8-8h-88v-16h88c13.232,0,24,10.768,24,24V360z"/>
	<path style="fill:#232323;" d="M200,240h112c4.424,0,8-3.576,8-8V40c0-4.424-3.576-8-8-8h-24V8c0-4.424-3.576-8-8-8H168
		c-4.424,0-8,3.576-8,8v192c0,4.424,3.576,8,8,8h24v24C192,236.424,195.576,240,200,240z M304,48v176h-96v-16h72
		c4.424,0,8-3.576,8-8V48H304z M207.192,16h33.616C244,31.648,256.352,44,272,47.192v113.616C256.352,164,244,176.352,240.808,192
		h-33.616C204,176.352,191.648,164,176,160.808V47.192C191.648,44,204,31.648,207.192,16z M272,177.472V192h-14.528
		C259.888,185.224,265.224,179.888,272,177.472z M272,30.528c-6.776-2.416-12.112-7.752-14.528-14.528H272V30.528z M190.528,16
		c-2.416,6.776-7.752,12.112-14.528,14.528V16H190.528z M176,177.472c6.776,2.416,12.112,7.752,14.528,14.528H176V177.472z"/>
	<path style="fill:#232323;" d="M224,136c17.648,0,32-14.352,32-32s-14.352-32-32-32s-32,14.352-32,32S206.352,136,224,136z M224,88
		c8.824,0,16,7.176,16,16s-7.176,16-16,16s-16-7.176-16-16S215.176,88,224,88z"/>
	<rect x="128" style="fill:#232323;" width="16" height="64"/>
	<rect x="96" style="fill:#232323;" width="16" height="32"/>
	<rect x="336" y="16" style="fill:#232323;" width="16" height="64"/>
	<rect x="368" style="fill:#232323;" width="16" height="32"/>
</g>
<g>
</g>
<g>
</g>
<g>
</g>
<g>
</g>
<g>
</g>
<g>
</g>
<g>
</g>
<g>
</g>
<g>
</g>
<g>
</g>
<g>
</g>
<g>
</g>
<g>
</g>
<g>
</g>
<g>
</g>
</svg>
