<?xml version="1.0" encoding="iso-8859-1"?>
<!-- Generator: Adobe Illustrator 19.0.0, SVG Export Plug-In . SVG Version: 6.00 Build 0)  -->
<svg version="1.1" id="Capa_1" xmlns="http://www.w3.org/2000/svg" xmlns:xlink="http://www.w3.org/1999/xlink" x="0px" y="0px"
	 viewBox="0 0 480 480" style="enable-background:new 0 0 480 480;" xml:space="preserve">
<rect x="8" y="216" style="fill:#FFFFFF;" width="464" height="264"/>
<path style="fill:#FED27C;" d="M72.408,37.472c0.768-2.296,2.536-4.136,4.816-4.968c2.288-0.84,4.808-0.608,6.896,0.64
	l26.656,15.992C107.176,26.736,94.704,16,72,16c-24.768,0-37.416,12.72-39.56,39.536C46.512,54.208,68.36,49.616,72.408,37.472z"/>
<polygon style="fill:#827ED9;" points="65.384,150.072 72,156.688 78.616,150.072 72,133.536 "/>
<path style="fill:#FED27C;" d="M240,304c-27.288,0-40,15.248-40,48c0,21.488,26.832,40,40,40s40-18.512,40-40
	C280,319.248,267.288,304,240,304z"/>
<path style="fill:#FFFFFF;" d="M72,104c12.28,0,36.416-16.104,39.624-35.696l-28.6-17.16c-11.496,15.16-36.224,19.312-49.92,20.44
	C38.272,89.664,60.408,104,72,104z"/>
<g>
	<path style="fill:#FED27C;" d="M72,304c-27.288,0-40,15.248-40,48c0,21.488,26.832,40,40,40s40-18.512,40-40
		C112,319.248,99.288,304,72,304z"/>
	<path style="fill:#FED27C;" d="M408,304c-27.288,0-40,15.248-40,48c0,21.488,26.832,40,40,40s40-18.512,40-40
		C448,319.248,435.288,304,408,304z"/>
</g>
<polygon style="fill:#827ED9;" points="233.384,150.072 240,156.688 246.616,150.072 240,133.536 "/>
<path style="fill:#FFFFFF;" d="M240,104c12.28,0,36.416-16.104,39.624-35.696l-28.6-17.16c-11.496,15.16-36.224,19.312-49.92,20.44
	C206.272,89.664,228.408,104,240,104z"/>
<g>
	<path style="fill:#FED27C;" d="M240.408,37.472c0.768-2.296,2.536-4.136,4.816-4.968c2.288-0.84,4.816-0.608,6.896,0.64
		l26.656,15.992C275.176,26.736,262.704,16,240,16c-24.768,0-37.416,12.72-39.56,39.536
		C214.512,54.208,236.36,49.616,240.408,37.472z"/>
	<path style="fill:#FED27C;" d="M408.408,37.472c0.768-2.296,2.536-4.136,4.816-4.968c2.288-0.84,4.808-0.608,6.896,0.64
		l26.656,15.992C443.176,26.736,430.704,16,408,16c-24.768,0-37.416,12.72-39.56,39.536
		C382.512,54.208,404.36,49.616,408.408,37.472z"/>
</g>
<polygon style="fill:#827ED9;" points="401.384,150.072 408,156.688 414.616,150.072 408,133.536 "/>
<path style="fill:#FFFFFF;" d="M419.024,51.152c-11.496,15.16-36.224,19.312-49.92,20.44C374.272,89.664,396.408,104,408,104
	c12.28,0,36.416-16.104,39.624-35.696L419.024,51.152z"/>
<g>
	<path style="fill:#827ED9;" d="M8,192v-48c0-17.672,14.328-32,32-32h64c17.672,0,32,14.328,32,32v48H8z"/>
	<path style="fill:#827ED9;" d="M176,192v-48c0-17.672,14.328-32,32-32h64c17.672,0,32,14.328,32,32v48H176z"/>
	<path style="fill:#827ED9;" d="M344,192v-48c0-17.672,14.328-32,32-32h64c17.672,0,32,14.328,32,32v48H344z"/>
	<path style="fill:#827ED9;" d="M8,480v-48c0-17.672,14.328-32,32-32h64c17.672,0,32,14.328,32,32v48H8z"/>
	<path style="fill:#827ED9;" d="M176,480v-48c0-17.672,14.328-32,32-32h64c17.672,0,32,14.328,32,32v48H176z"/>
	<path style="fill:#827ED9;" d="M344,480v-48c0-17.672,14.328-32,32-32h64c17.672,0,32,14.328,32,32v48H344z"/>
</g>
<g>
	<path style="fill:#232323;" d="M16,146.424c0-8.848,4.4-17.072,11.768-21.984c4.352-2.912,9.416-4.44,14.656-4.44h17.76
		l-11.616,29.032c-1.184,2.968-0.488,6.36,1.776,8.624l16,16C67.904,175.216,69.952,176,72,176s4.096-0.784,5.656-2.344l16-16
		c2.264-2.264,2.96-5.656,1.776-8.624L83.816,120h17.76c5.24,0,10.304,1.528,14.656,4.44C123.6,129.352,128,137.568,128,146.424V192
		h16v-45.576c0-14.216-7.064-27.416-18.888-35.296c-5.496-3.672-11.72-5.92-18.208-6.736C118.776,94.112,128,79.712,128,64
		c0-52.896-30.456-64-56-64S16,11.104,16,64c0,15.712,9.224,30.112,21.096,40.392c-6.488,0.816-12.712,3.064-18.2,6.736
		C7.064,119.008,0,132.2,0,146.424V192h16V146.424z M72,156.688l-6.616-6.616L72,133.536l6.616,16.528L72,156.688z M33.112,71.584
		c13.696-1.128,38.424-5.272,49.92-20.44l28.6,17.16C108.416,87.896,84.28,104,72,104C60.408,104,38.272,89.664,33.112,71.584z
		 M72,16c22.704,0,35.176,10.736,38.776,33.136L84.12,33.144c-2.088-1.248-4.608-1.488-6.896-0.64
		c-2.272,0.832-4.04,2.672-4.816,4.968C68.36,49.616,46.512,54.208,32.44,55.544C34.584,28.72,47.232,16,72,16z"/>
	<path style="fill:#232323;" d="M168,146.424V192h16v-45.576c0-8.848,4.4-17.072,11.768-21.984c4.352-2.912,9.416-4.44,14.656-4.44
		h17.76l-11.616,29.032c-1.184,2.968-0.488,6.36,1.776,8.624l16,16c1.56,1.56,3.608,2.344,5.656,2.344s4.096-0.784,5.656-2.344
		l16-16c2.264-2.264,2.96-5.656,1.776-8.624L251.816,120h17.76c5.24,0,10.304,1.528,14.656,4.44
		C291.6,129.352,296,137.568,296,146.424V192h16v-45.576c0-14.216-7.064-27.416-18.888-35.296c-5.496-3.672-11.72-5.92-18.208-6.736
		C286.776,94.112,296,79.712,296,64c0-52.896-30.456-64-56-64s-56,11.104-56,64c0,15.712,9.224,30.112,21.096,40.392
		c-6.488,0.816-12.712,3.064-18.2,6.736C175.064,119.008,168,132.2,168,146.424z M240,156.688l-6.616-6.616L240,133.536
		l6.616,16.528L240,156.688z M201.112,71.584c13.696-1.128,38.424-5.272,49.92-20.44l28.6,17.16C276.416,87.896,252.28,104,240,104
		C228.408,104,206.272,89.664,201.112,71.584z M240,16c22.704,0,35.176,10.736,38.776,33.136L252.12,33.144
		c-2.08-1.248-4.608-1.488-6.896-0.64c-2.272,0.832-4.04,2.672-4.816,4.968c-4.048,12.144-25.896,16.736-39.968,18.072
		C202.584,28.72,215.232,16,240,16z"/>
	<path style="fill:#232323;" d="M461.112,111.128c-5.496-3.672-11.72-5.92-18.208-6.736C454.776,94.112,464,79.712,464,64
		c0-52.896-30.456-64-56-64s-56,11.104-56,64c0,15.712,9.224,30.112,21.096,40.392c-6.488,0.816-12.712,3.064-18.2,6.736
		C343.064,119.008,336,132.2,336,146.424V192h16v-45.576c0-8.848,4.4-17.072,11.768-21.984c4.352-2.912,9.416-4.44,14.656-4.44
		h17.76l-11.616,29.032c-1.184,2.968-0.488,6.36,1.776,8.624l16,16c1.56,1.56,3.608,2.344,5.656,2.344s4.096-0.784,5.656-2.344
		l16-16c2.264-2.264,2.96-5.656,1.776-8.624L419.816,120h17.76c5.24,0,10.304,1.528,14.656,4.44
		C459.6,129.352,464,137.568,464,146.424V192h16v-45.576C480,132.2,472.936,119.008,461.112,111.128z M369.112,71.584
		c13.696-1.128,38.424-5.272,49.92-20.44l28.6,17.16C444.416,87.896,420.28,104,408,104C396.408,104,374.272,89.664,369.112,71.584z
		 M408,16c22.704,0,35.176,10.736,38.776,33.136L420.12,33.144c-2.088-1.248-4.608-1.488-6.896-0.64
		c-2.272,0.832-4.04,2.672-4.816,4.968c-4.048,12.144-25.896,16.736-39.968,18.072C370.584,28.72,383.232,16,408,16z M408,156.688
		l-6.616-6.616L408,133.536l6.616,16.528L408,156.688z"/>
	<path style="fill:#232323;" d="M125.112,399.128c-5.496-3.672-11.72-5.92-18.208-6.736C118.776,382.112,128,367.712,128,352
		c0-52.896-30.456-64-56-64s-56,11.104-56,64c0,15.712,9.224,30.112,21.096,40.392c-6.488,0.816-12.712,3.064-18.2,6.736
		C7.064,407.008,0,420.2,0,434.424V480h16v-45.576c0-8.848,4.4-17.072,11.768-21.984c4.352-2.912,9.416-4.44,14.656-4.44h59.16
		c5.24,0,10.304,1.528,14.656,4.44c7.36,4.912,11.76,13.128,11.76,21.984V480h16v-45.576C144,420.2,136.936,407.008,125.112,399.128
		z M72,304c27.288,0,40,15.248,40,48c0,21.488-26.832,40-40,40s-40-18.512-40-40C32,319.248,44.712,304,72,304z"/>
	<path style="fill:#232323;" d="M293.112,399.128c-5.496-3.672-11.72-5.92-18.208-6.736C286.776,382.112,296,367.712,296,352
		c0-52.896-30.456-64-56-64s-56,11.104-56,64c0,15.712,9.224,30.112,21.096,40.392c-6.488,0.816-12.712,3.064-18.2,6.736
		C175.064,407.008,168,420.2,168,434.424V480h16v-45.576c0-8.848,4.4-17.072,11.768-21.984c4.352-2.912,9.416-4.44,14.656-4.44
		h59.16c5.24,0,10.304,1.528,14.656,4.44c7.36,4.912,11.76,13.128,11.76,21.984V480h16v-45.576
		C312,420.2,304.936,407.008,293.112,399.128z M240,304c27.288,0,40,15.248,40,48c0,21.488-26.832,40-40,40s-40-18.512-40-40
		C200,319.248,212.712,304,240,304z"/>
	<path style="fill:#232323;" d="M461.112,399.128c-5.496-3.672-11.72-5.92-18.208-6.736C454.776,382.112,464,367.712,464,352
		c0-52.896-30.456-64-56-64s-56,11.104-56,64c0,15.712,9.224,30.112,21.096,40.392c-6.488,0.816-12.712,3.064-18.2,6.736
		C343.064,407.008,336,420.2,336,434.424V480h16v-45.576c0-8.848,4.4-17.072,11.768-21.984c4.352-2.912,9.416-4.44,14.656-4.44
		h59.16c5.24,0,10.304,1.528,14.656,4.44c7.36,4.912,11.76,13.128,11.76,21.984V480h16v-45.576
		C480,420.2,472.936,407.008,461.112,399.128z M408,304c27.288,0,40,15.248,40,48c0,21.488-26.832,40-40,40s-40-18.512-40-40
		C368,319.248,380.712,304,408,304z"/>
	<path style="fill:#232323;" d="M472,208H8c-4.416,0-8,3.576-8,8v88h16v-80h448v80h16v-88C480,211.576,476.416,208,472,208z"/>
</g>
<g>
</g>
<g>
</g>
<g>
</g>
<g>
</g>
<g>
</g>
<g>
</g>
<g>
</g>
<g>
</g>
<g>
</g>
<g>
</g>
<g>
</g>
<g>
</g>
<g>
</g>
<g>
</g>
<g>
</g>
</svg>
