<?xml version="1.0" encoding="iso-8859-1"?>
<!-- Generator: Adobe Illustrator 19.0.0, SVG Export Plug-In . SVG Version: 6.00 Build 0)  -->
<svg version="1.1" id="Capa_1" xmlns="http://www.w3.org/2000/svg" xmlns:xlink="http://www.w3.org/1999/xlink" x="0px" y="0px"
	 viewBox="0 0 480 480" style="enable-background:new 0 0 480 480;" xml:space="preserve">
<g>
	<rect x="16" y="392" style="fill:#827ED9;" width="16" height="16"/>
	<path style="fill:#827ED9;" d="M112,440c0,13.232,10.768,24,24,24h208c13.232,0,24-10.768,24-24v-40H112V440z M240,408
		c13.232,0,24,10.768,24,24s-10.768,24-24,24s-24-10.768-24-24S226.768,408,240,408z"/>
	<circle style="fill:#827ED9;" cx="240" cy="432" r="8"/>
	<rect x="320" y="128" style="fill:#827ED9;" width="16" height="16"/>
</g>
<path style="fill:#FED27C;" d="M240,128c-17.648,0-32,14.352-32,32h64C272,142.352,257.648,128,240,128z"/>
<g>
	<polygon style="fill:#DD763E;" points="294.776,176 280,176 200,176 182.624,176 153.664,328 273.064,328 	"/>
	<polygon style="fill:#DD763E;" points="326.336,328 305.128,216.672 289.224,328 	"/>
</g>
<path style="fill:#FED27C;" d="M112,384h256V96H112V384z M304,128h16v-16h16v16h16v16h-16v16h-16v-16h-16V128z M168.144,166.504
	C168.856,162.728,172.16,160,176,160h16c0-26.472,21.528-48,48-48s48,21.528,48,48h16c3.84,0,7.144,2.728,7.856,6.504l32,168
	c0.448,2.344-0.176,4.768-1.696,6.6S338.384,344,336,344H144c-2.384,0-4.648-1.064-6.168-2.896s-2.144-4.256-1.696-6.6
	L168.144,166.504z"/>
<g>
	<path style="fill:#827ED9;" d="M344,16H136c-13.232,0-24,10.768-24,24v40h256V40C368,26.768,357.232,16,344,16z"/>
	<rect x="448" y="64" style="fill:#827ED9;" width="16" height="16"/>
</g>
<g>
	<path style="fill:#232323;" d="M344,0H136c-22.056,0-40,17.944-40,40v400c0,22.056,17.944,40,40,40h208c22.056,0,40-17.944,40-40
		V40C384,17.944,366.056,0,344,0z M136,16h208c13.232,0,24,10.768,24,24v40H112V40C112,26.768,122.768,16,136,16z M368,96v288H112
		V96H368z M344,464H136c-13.232,0-24-10.768-24-24v-40h256v40C368,453.232,357.232,464,344,464z"/>
	<path style="fill:#232323;" d="M240,408c-13.232,0-24,10.768-24,24s10.768,24,24,24s24-10.768,24-24S253.232,408,240,408z M240,440
		c-4.408,0-8-3.584-8-8s3.592-8,8-8c4.408,0,8,3.584,8,8S244.408,440,240,440z"/>
	<path style="fill:#232323;" d="M137.832,341.104c1.52,1.832,3.784,2.896,6.168,2.896h192c2.384,0,4.648-1.064,6.168-2.896
		s2.144-4.256,1.696-6.6l-32-168C311.144,162.728,307.84,160,304,160h-16c0-26.472-21.528-48-48-48s-48,21.528-48,48h-16
		c-3.84,0-7.144,2.728-7.856,6.504l-32,168C135.696,336.84,136.32,339.264,137.832,341.104z M289.224,328l15.904-111.328
		L326.336,328H289.224z M240,128c17.648,0,32,14.352,32,32h-64C208,142.352,222.352,128,240,128z M182.624,176H200h80h14.776
		l-21.712,152h-119.4L182.624,176z"/>
	<rect x="448" y="48" style="fill:#232323;" width="16" height="16"/>
	<rect x="432" y="64" style="fill:#232323;" width="16" height="16"/>
	<rect x="464" y="64" style="fill:#232323;" width="16" height="16"/>
	<rect x="448" y="80" style="fill:#232323;" width="16" height="16"/>
	<rect x="320" y="112" style="fill:#232323;" width="16" height="16"/>
	<rect x="304" y="128" style="fill:#232323;" width="16" height="16"/>
	<rect x="336" y="128" style="fill:#232323;" width="16" height="16"/>
	<rect x="320" y="144" style="fill:#232323;" width="16" height="16"/>
	<rect x="16" y="376" style="fill:#232323;" width="16" height="16"/>
	<rect y="392" style="fill:#232323;" width="16" height="16"/>
	<rect x="32" y="392" style="fill:#232323;" width="16" height="16"/>
	<rect x="16" y="408" style="fill:#232323;" width="16" height="16"/>
</g>
<g>
</g>
<g>
</g>
<g>
</g>
<g>
</g>
<g>
</g>
<g>
</g>
<g>
</g>
<g>
</g>
<g>
</g>
<g>
</g>
<g>
</g>
<g>
</g>
<g>
</g>
<g>
</g>
<g>
</g>
</svg>
