<?xml version="1.0" encoding="iso-8859-1"?>
<!-- Generator: Adobe Illustrator 19.0.0, SVG Export Plug-In . SVG Version: 6.00 Build 0)  -->
<svg version="1.1" id="Capa_1" xmlns="http://www.w3.org/2000/svg" xmlns:xlink="http://www.w3.org/1999/xlink" x="0px" y="0px"
	 viewBox="0 0 480 480" style="enable-background:new 0 0 480 480;" xml:space="preserve">
<g>
	<rect x="224" y="336" style="fill:#DD763E;" width="48" height="128"/>
	<polygon style="fill:#DD763E;" points="288,328 288,464 336,464 336,232 288,232 	"/>
	<polygon style="fill:#DD763E;" points="352,224 352,464 400,464 400,192 352,192 	"/>
</g>
<g>
	<polygon style="fill:#827ED9;" points="120,304 104,304 104,320 168,320 168,304 152,304 	"/>
	<path style="fill:#827ED9;" d="M128,271.72V288h16v-16.28C138.44,272.096,133.56,272.096,128,271.72z"/>
</g>
<polygon style="fill:#DD763E;" points="416,184 416,464 464,464 464,104 416,104 "/>
<path style="fill:#827ED9;" d="M112,440c0,13.232,10.768,24,24,24s24-10.768,24-24V336h-48V440z"/>
<path style="fill:#FFFFFF;" d="M136,48c-48.52,0-88,39.48-88,88s39.48,88,88,88c45.304,0,82.696-34.424,87.464-78.48
	l-107.496,61.424l-7.936-13.888l115.512-66.008C219.048,82.712,181.504,48,136,48z"/>
<path style="fill:#827ED9;" d="M136,16C69.832,16,16,69.832,16,136c0,61.072,45.888,111.528,104.976,118.952h0.016
	c2.056,0.256,3.848,0.408,5.68,0.576c3.088,0.24,6.176,0.472,9.328,0.472s6.24-0.232,9.328-0.472c1.824-0.16,3.624-0.32,5.68-0.576
	c0.008,0,0.016,0,0.016,0C210.112,247.528,256,197.072,256,136C256,69.832,202.168,16,136,16z M136,240
	c-57.344,0-104-46.656-104-104S78.656,32,136,32s104,46.656,104,104S193.344,240,136,240z"/>
<g>
	<path style="fill:#232323;" d="M136,32C78.656,32,32,78.656,32,136s46.656,104,104,104s104-46.656,104-104S193.344,32,136,32z
		 M136,224c-48.52,0-88-39.48-88-88s39.48-88,88-88c45.504,0,83.048,34.712,87.544,79.048l-115.512,66.008l7.936,13.888
		l107.496-61.424C218.696,189.576,181.304,224,136,224z"/>
	<path style="fill:#232323;" d="M472,0h-48v16h28.688l-46.264,46.264l-26.84-13.424c-2.904-1.464-6.456-1-8.888,1.176
		l-67.392,59.896l-18.856-12.576c-2.528-1.672-5.776-1.784-8.408-0.288l-8.528,4.872C252.32,43.4,199.208,0,136,0
		C61.008,0,0,61.008,0,136c0,66.792,48.432,122.368,112,133.752V288H96c-4.424,0-8,3.576-8,8v32c0,4.424,3.576,8,8,8v104
		c0,22.056,17.944,40,40,40s40-17.944,40-40V336c4.424,0,8-3.576,8-8v-32c0-4.424-3.576-8-8-8h-16v-18.248
		c63.568-11.384,112-66.96,112-133.752c0-5.944-0.512-11.752-1.256-17.496l8.936-5.104l19.88,13.256
		c1.352,0.896,2.904,1.344,4.44,1.344c1.904,0,3.816-0.68,5.312-2.024l67.952-60.4l27.16,13.576
		c3.072,1.536,6.792,0.936,9.232-1.504L464,27.312V56h16V8C480,3.576,476.424,0,472,0z M160,440c0,13.232-10.768,24-24,24
		s-24-10.768-24-24V336h48V440z M168,320h-64v-16h16h32h16V320z M144,271.72V288h-16v-16.28
		C133.56,272.096,138.44,272.096,144,271.72z M151.024,254.952h-0.016c-2.056,0.256-3.848,0.408-5.68,0.576
		C142.24,255.768,139.152,256,136,256s-6.24-0.232-9.328-0.472c-1.824-0.16-3.624-0.32-5.68-0.576c-0.008,0-0.016,0-0.016,0
		C61.888,247.528,16,197.072,16,136C16,69.832,69.832,16,136,16s120,53.832,120,120C256,197.072,210.112,247.528,151.024,254.952z"
		/>
	<path style="fill:#232323;" d="M472,88h-64c-4.424,0-8,3.576-8,8v80h-56c-4.424,0-8,3.576-8,8v32h-56c-4.424,0-8,3.576-8,8v96h-56
		c-4.424,0-8,3.576-8,8v144c0,4.424,3.576,8,8,8h64h64h64h64c4.424,0,8-3.576,8-8V96C480,91.576,476.424,88,472,88z M224,336h48v128
		h-48V336z M288,328v-96h48v232h-48V328z M352,224v-32h48v272h-48V224z M464,464h-48V184v-80h48V464z"/>
</g>
<g>
</g>
<g>
</g>
<g>
</g>
<g>
</g>
<g>
</g>
<g>
</g>
<g>
</g>
<g>
</g>
<g>
</g>
<g>
</g>
<g>
</g>
<g>
</g>
<g>
</g>
<g>
</g>
<g>
</g>
</svg>
