<?xml version="1.0" encoding="iso-8859-1"?>
<!-- Generator: Adobe Illustrator 19.0.0, SVG Export Plug-In . SVG Version: 6.00 Build 0)  -->
<svg version="1.1" id="Capa_1" xmlns="http://www.w3.org/2000/svg" xmlns:xlink="http://www.w3.org/1999/xlink" x="0px" y="0px"
	 viewBox="0 0 480 480" style="enable-background:new 0 0 480 480;" xml:space="preserve">
<polygon style="fill:#FED27C;" points="136,0 136,184 80,184 240,280 400,184 344,184 344,0 "/>
<path style="fill:#DD763E;" d="M304,94.944l-59.56,39.712c-1.344,0.896-2.896,1.344-4.44,1.344s-3.096-0.448-4.44-1.344L176,94.944
	V168h128V94.944z"/>
<path style="fill:#FFFFFF;" d="M48,336h384V144h-80v32h48c3.6,0,6.752,2.4,7.712,5.864s-0.512,7.144-3.592,8.992l-160,96
	c-1.272,0.76-2.696,1.144-4.12,1.144s-2.848-0.384-4.12-1.144l-160-96c-3.08-1.848-4.552-5.528-3.592-8.992
	C73.248,178.4,76.4,176,80,176h48v-32H48V336z"/>
<polygon style="fill:#DD763E;" points="285.576,88 194.424,88 240,118.384 "/>
<g>
	<path style="fill:#827ED9;" d="M440,112h-88v16h88c4.416,0,8,3.576,8,8v208c0,4.424-3.584,8-8,8H40c-4.416,0-8-3.576-8-8V136
		c0-4.424,3.584-8,8-8h88v-16H40c-13.232,0-24,10.768-24,24v224c0,13.232,10.768,24,24,24h144h112h144c13.232,0,24-10.768,24-24V136
		C464,122.768,453.232,112,440,112z"/>
	<path style="fill:#827ED9;" d="M16.968,448c2.792,9.848,12.448,16,39.032,16h368c26.584,0,36.24-6.152,39.032-16H320H160H16.968z"
		/>
	<polygon style="fill:#827ED9;" points="188.944,400 172.944,432 307.056,432 291.056,400 	"/>
</g>
<g>
	<path style="fill:#232323;" d="M440,96h-88V0h-16v104v80c0,1.072,0.216,2.112,0.624,3.08c0.808,1.936,2.36,3.488,4.296,4.296
		c0.968,0.408,2.016,0.624,3.08,0.624h27.12L240,270.672L108.88,192H136c4.416,0,8-3.576,8-8v-48v-32V0h-16v96H40
		c-22.056,0-40,17.944-40,40v224c0,22.056,17.944,40,40,40h131.056l-16,32H8c-4.416,0-8,3.576-8,8c0,40,42.152,40,56,40h368
		c13.848,0,56,0,56-40c0-4.424-3.584-8-8-8H324.944l-16-32H440c22.056,0,40-17.944,40-40V136C480,113.944,462.056,96,440,96z
		 M128,176H80c-3.6,0-6.752,2.4-7.712,5.864s0.512,7.144,3.592,8.992l160,96c1.272,0.76,2.696,1.144,4.12,1.144
		c1.424,0,2.848-0.384,4.12-1.144l160-96c3.08-1.848,4.552-5.528,3.592-8.992C406.752,178.4,403.6,176,400,176h-48v-32h80v192H48
		V144h80V176z M424,464H56c-26.584,0-36.24-6.152-39.032-16H160h160h143.032C460.24,457.848,450.584,464,424,464z M307.056,432
		H172.944l16-32h102.112L307.056,432z M464,360c0,13.232-10.768,24-24,24H296H184H40c-13.232,0-24-10.768-24-24V136
		c0-13.232,10.768-24,24-24h88v16H40c-4.416,0-8,3.576-8,8v208c0,4.424,3.584,8,8,8h400c4.416,0,8-3.576,8-8V136
		c0-4.424-3.584-8-8-8h-88v-16h88c13.232,0,24,10.768,24,24V360z"/>
	<path style="fill:#232323;" d="M160,176c0,4.424,3.584,8,8,8h144c4.416,0,8-3.576,8-8V80c0-4.424-3.584-8-8-8H168
		c-4.416,0-8,3.576-8,8V176z M176,168V94.944l59.56,39.712c1.344,0.896,2.896,1.344,4.44,1.344s3.096-0.448,4.44-1.344L304,94.944
		V168H176z M194.424,88h91.152L240,118.384L194.424,88z"/>
	<rect x="160" style="fill:#232323;" width="16" height="32"/>
	<rect x="192" y="16" style="fill:#232323;" width="16" height="32"/>
	<rect x="232" y="32" style="fill:#232323;" width="16" height="16"/>
	<rect x="304" style="fill:#232323;" width="16" height="32"/>
	<rect x="272" y="16" style="fill:#232323;" width="16" height="32"/>
</g>
<g>
</g>
<g>
</g>
<g>
</g>
<g>
</g>
<g>
</g>
<g>
</g>
<g>
</g>
<g>
</g>
<g>
</g>
<g>
</g>
<g>
</g>
<g>
</g>
<g>
</g>
<g>
</g>
<g>
</g>
</svg>
