<?xml version="1.0" encoding="iso-8859-1"?>
<!-- Generator: Adobe Illustrator 19.0.0, SVG Export Plug-In . SVG Version: 6.00 Build 0)  -->
<svg version="1.1" id="Capa_1" xmlns="http://www.w3.org/2000/svg" xmlns:xlink="http://www.w3.org/1999/xlink" x="0px" y="0px"
	 viewBox="0 0 480.002 480.002" style="enable-background:new 0 0 480.002 480.002;" xml:space="preserve">
<g>
	<path style="fill:#DD763E;" d="M352,240.001H192v96h160V240.001z M216,320.001h-16v-64h16V320.001z M248,320.001h-16v-64h16
		V320.001z M280,320.001h-16v-64h16V320.001z M312,320.001h-16v-64h16V320.001z M344,320.001h-16v-64h16V320.001z"/>
	<path style="fill:#DD763E;" d="M352,128.001H192v96h160V128.001z M216,208.001h-16v-64h16V208.001z M248,208.001h-16v-64h16
		V208.001z M280,208.001h-16v-64h16V208.001z M312,208.001h-16v-64h16V208.001z M344,208.001h-16v-64h16V208.001z"/>
</g>
<g>
	<polygon style="fill:#827ED9;" points="61.544,464.001 379.16,464.001 391.728,440.001 52.544,440.001 	"/>
	<polygon style="fill:#827ED9;" points="440,185.865 456.456,176.001 440,166.137 	"/>
</g>
<path style="fill:#FFFFFF;" d="M367.992,352.001H360H184h-56H32H19.544l27,72h353.56l54.96-104.912l-84.2,32.384
	C369.944,351.825,368.976,352.001,367.992,352.001z M64,376.001H48v-16h16V376.001z M96,376.001H80v-16h16V376.001z M144,408.001
	c-13.232,0-24-10.768-24-24s10.768-24,24-24s24,10.768,24,24S157.232,408.001,144,408.001z M208,408.001c-13.232,0-24-10.768-24-24
	s10.768-24,24-24s24,10.768,24,24S221.232,408.001,208,408.001z"/>
<g>
	<rect x="56" y="144.001" style="fill:#827ED9;" width="48" height="128"/>
	<circle style="fill:#827ED9;" cx="208" cy="384.001" r="8"/>
	<polygon style="fill:#827ED9;" points="120,288.001 112,288.001 48,288.001 40,288.001 40,336.001 120,336.001 	"/>
	<circle style="fill:#827ED9;" cx="144" cy="384.001" r="8"/>
	<path style="fill:#827ED9;" d="M112,128.001h32v-48H16v48h32H112z M120,96.001h16v16h-16V96.001z M96,96.001h16v16H96V96.001z
		 M72,96.001h16v16H72V96.001z M48,96.001h16v16H48V96.001z M40,112.001H24v-16h16V112.001z"/>
</g>
<g>
	<rect x="24" y="96.001" style="fill:#232323;" width="16" height="16"/>
	<rect x="48" y="96.001" style="fill:#232323;" width="16" height="16"/>
	<rect x="72" y="96.001" style="fill:#232323;" width="16" height="16"/>
	<rect x="96" y="96.001" style="fill:#232323;" width="16" height="16"/>
	<rect x="120" y="96.001" style="fill:#232323;" width="16" height="16"/>
	<rect x="200" y="144.001" style="fill:#232323;" width="16" height="64"/>
	<rect x="232" y="144.001" style="fill:#232323;" width="16" height="64"/>
	<rect x="264" y="144.001" style="fill:#232323;" width="16" height="64"/>
	<rect x="296" y="144.001" style="fill:#232323;" width="16" height="64"/>
	<rect x="328" y="144.001" style="fill:#232323;" width="16" height="64"/>
	<rect x="200" y="256.001" style="fill:#232323;" width="16" height="64"/>
	<rect x="232" y="256.001" style="fill:#232323;" width="16" height="64"/>
	<rect x="264" y="256.001" style="fill:#232323;" width="16" height="64"/>
	<rect x="296" y="256.001" style="fill:#232323;" width="16" height="64"/>
	<rect x="328" y="256.001" style="fill:#232323;" width="16" height="64"/>
	<path style="fill:#232323;" d="M476.12,169.145l-40-24c-2.488-1.48-5.544-1.52-8.064-0.104c-2.512,1.424-4.056,4.08-4.056,6.96
		v161.888l-56,21.536V232.001v-112c0-4.424-3.576-8-8-8H184c-4.424,0-8,3.576-8,8v112v104h-40v-56c0-4.424-3.576-8-8-8h-8v-128h32
		c4.424,0,8-3.576,8-8v-64c0-4.424-3.576-8-8-8H88v-40h16v-16H88v-8H72v8H56v16h16v40H8c-4.424,0-8,3.576-8,8v64
		c0,4.424,3.576,8,8,8h32v128h-8c-4.424,0-8,3.576-8,8v56H8c-2.624,0-5.08,1.288-6.576,3.448s-1.832,4.904-0.912,7.368l48,128
		c1.168,3.112,4.152,5.184,7.488,5.184h328c2.976,0,5.704-1.648,7.088-4.288l88-168c1.544-2.944,1.104-6.544-1.112-9.032
		c-2.224-2.488-5.736-3.344-8.848-2.152L440,307.737v-103.2l36.12-21.672c2.4-1.448,3.88-4.048,3.88-6.864
		S478.52,170.585,476.12,169.145z M192,128.001h160v96H192V128.001z M192,240.001h160v96H192V240.001z M16,80.001h128v48h-32H48H16
		V80.001z M56,144.001h48v128H56V144.001z M40,288.001h8h64h8v48H40V288.001z M379.16,464.001H61.544l-9-24h339.184L379.16,464.001z
		 M400.112,424.001H46.544l-27-72H32h96h56h176h7.992c0.984,0,1.952-0.176,2.872-0.528l84.2-32.384L400.112,424.001z M440,185.865
		v-19.736l16.456,9.872L440,185.865z"/>
	<rect x="48" y="360.001" style="fill:#232323;" width="16" height="16"/>
	<rect x="80" y="360.001" style="fill:#232323;" width="16" height="16"/>
	<path style="fill:#232323;" d="M144,360.001c-13.232,0-24,10.768-24,24s10.768,24,24,24s24-10.768,24-24
		S157.232,360.001,144,360.001z M144,392.001c-4.416,0-8-3.584-8-8s3.584-8,8-8s8,3.584,8,8S148.416,392.001,144,392.001z"/>
	<path style="fill:#232323;" d="M208,360.001c-13.232,0-24,10.768-24,24s10.768,24,24,24s24-10.768,24-24
		S221.232,360.001,208,360.001z M208,392.001c-4.416,0-8-3.584-8-8s3.584-8,8-8s8,3.584,8,8S212.416,392.001,208,392.001z"/>
</g>
<g>
</g>
<g>
</g>
<g>
</g>
<g>
</g>
<g>
</g>
<g>
</g>
<g>
</g>
<g>
</g>
<g>
</g>
<g>
</g>
<g>
</g>
<g>
</g>
<g>
</g>
<g>
</g>
<g>
</g>
</svg>
