<?xml version="1.0" encoding="iso-8859-1"?>
<!-- Generator: Adobe Illustrator 19.0.0, SVG Export Plug-In . SVG Version: 6.00 Build 0)  -->
<svg version="1.1" id="Capa_1" xmlns="http://www.w3.org/2000/svg" xmlns:xlink="http://www.w3.org/1999/xlink" x="0px" y="0px"
	 viewBox="0 0 480 480" style="enable-background:new 0 0 480 480;" xml:space="preserve">
<g>
	<path style="fill:#DD763E;" d="M208,248h112V48h-32v176c0,4.424-3.576,8-8,8h-72V248z"/>
	<path style="fill:#DD763E;" d="M272,30.528V16h-14.528C259.888,22.776,265.224,28.112,272,30.528z"/>
	<path style="fill:#DD763E;" d="M257.472,216H272v-14.528C265.224,203.888,259.888,209.224,257.472,216z"/>
	<path style="fill:#DD763E;" d="M174.528,16H160v14.528C166.776,28.112,172.112,22.776,174.528,16z"/>
	<path style="fill:#DD763E;" d="M240.808,216C244,200.352,256.352,188,272,184.808V47.192C256.352,44,244,31.648,240.808,16h-49.616
		C188,31.648,175.648,44,160,47.192v137.616C175.648,188,188,200.352,191.192,216H200H240.808z M184,112c0-17.648,14.352-32,32-32
		s32,14.352,32,32s-14.352,32-32,32S184,129.648,184,112z"/>
	<path style="fill:#DD763E;" d="M160,201.472V216h14.528C172.112,209.224,166.776,203.888,160,201.472z"/>
	<circle style="fill:#DD763E;" cx="216" cy="112" r="16"/>
</g>
<polygon style="fill:#827ED9;" points="16,464 80,464 80,312 80,296 16,296 "/>
<path style="fill:#FED27C;" d="M443.72,296h-2.104c-4.448,0-8.832,1.496-12.368,4.208l-77.64,59.72
	c-13.272,10.216-29.032,17.112-45.552,19.936l-102.12,17.488c-7.232,1.024-14.288-1.12-19.592-5.752S176,380.28,176,373.24
	c0-11.424,8.104-21.448,19.272-23.832l78.064-16.736c8.496-1.824,14.664-9.448,14.664-18.136C288,304.32,279.68,296,269.464,296
	h-60.216c-16.112,0-32.184,1.976-47.784,5.88L96,318.248V464h190.36c9.488,0,18.68-3.384,25.904-9.512l146.272-124.296
	c3.352-3.392,5.464-8.488,5.464-13.912C464,305.104,454.896,296,443.72,296z"/>
<g>
	<path style="fill:#232323;" d="M200,264h128c4.424,0,8-3.576,8-8V40c0-4.424-3.576-8-8-8h-40V8c0-4.424-3.576-8-8-8H152
		c-4.424,0-8,3.576-8,8v216c0,4.424,3.576,8,8,8h40v24C192,260.424,195.576,264,200,264z M160,184.808V47.192
		C175.648,44,188,31.648,191.192,16h49.616C244,31.648,256.352,44,272,47.192v137.616C256.352,188,244,200.352,240.808,216H200
		h-8.808C188,200.352,175.648,188,160,184.808z M272,201.472V216h-14.528C259.888,209.224,265.224,203.888,272,201.472z M320,48v200
		H208v-16h72c4.424,0,8-3.576,8-8V48H320z M272,30.528c-6.776-2.416-12.112-7.752-14.528-14.528H272V30.528z M174.528,16
		c-2.416,6.776-7.752,12.112-14.528,14.528V16H174.528z M160,201.472c6.776,2.416,12.112,7.752,14.528,14.528H160V201.472z"/>
	<path style="fill:#232323;" d="M248,112c0-17.648-14.352-32-32-32s-32,14.352-32,32s14.352,32,32,32S248,129.648,248,112z M200,112
		c0-8.824,7.176-16,16-16s16,7.176,16,16s-7.176,16-16,16S200,120.824,200,112z"/>
	<rect x="112" style="fill:#232323;" width="16" height="64"/>
	<rect x="80" style="fill:#232323;" width="16" height="32"/>
	<rect x="352" y="16" style="fill:#232323;" width="16" height="64"/>
	<rect x="384" style="fill:#232323;" width="16" height="32"/>
	<path style="fill:#232323;" d="M443.72,280h-2.104c-7.952,0-15.816,2.672-22.12,7.52l-77.64,59.72
		c-11.224,8.64-24.536,14.472-38.504,16.856l-101.84,17.44c-2.448,0.344-4.792-0.376-6.64-1.992
		c-1.856-1.608-2.872-3.848-2.872-6.304c0-3.928,2.784-7.376,6.624-8.192l78.064-16.736C292.512,344.928,304,330.728,304,314.536
		c0-19.04-15.496-34.536-34.536-34.536h-60.216c-17.416,0-34.808,2.144-51.664,6.368L96,301.76V288c0-4.424-3.576-8-8-8H8
		c-4.424,0-8,3.576-8,8v184c0,4.424,3.576,8,8,8h80h198.36c13.272,0,26.16-4.736,36.264-13.328l146.752-124.736
		c6.848-6.848,10.624-15.96,10.624-25.656C480,296.272,463.728,280,443.72,280z M16,296h64v16v152H16V296z M458.536,330.184
		L312.264,454.488C305.04,460.616,295.84,464,286.36,464H96V318.248l65.464-16.368c15.592-3.904,31.672-5.88,47.776-5.88h60.216
		C279.68,296,288,304.32,288,314.536c0,8.688-6.168,16.312-14.664,18.136l-78.064,16.736C184.104,351.8,176,361.824,176,373.24
		c0,7.04,3.04,13.728,8.344,18.36s12.36,6.776,19.592,5.752l102.12-17.488c16.52-2.832,32.28-9.72,45.552-19.936l77.64-59.72
		c3.528-2.72,7.92-4.208,12.368-4.208h2.104c11.176,0,20.28,9.104,20.28,20.28C464,321.704,461.888,326.8,458.536,330.184z"/>
</g>
<g>
</g>
<g>
</g>
<g>
</g>
<g>
</g>
<g>
</g>
<g>
</g>
<g>
</g>
<g>
</g>
<g>
</g>
<g>
</g>
<g>
</g>
<g>
</g>
<g>
</g>
<g>
</g>
<g>
</g>
</svg>
