<?xml version="1.0" encoding="iso-8859-1"?>
<!-- Generator: Adobe Illustrator 19.0.0, SVG Export Plug-In . SVG Version: 6.00 Build 0)  -->
<svg version="1.1" id="Capa_1" xmlns="http://www.w3.org/2000/svg" xmlns:xlink="http://www.w3.org/1999/xlink" x="0px" y="0px"
	 viewBox="0 0 480 480" style="enable-background:new 0 0 480 480;" xml:space="preserve">
<path style="fill:#DD763E;" d="M400,360v-24h-32v24c0,4.424-3.576,8-8,8h-24v32h24c4.424,0,8,3.576,8,8v24h32v-24
	c0-4.424,3.576-8,8-8h24v-32h-24C403.576,368,400,364.424,400,360z"/>
<path style="fill:#FED27C;" d="M384,304c-13.144,0-25.52,3.248-36.472,8.888c-3.232,1.664-6.32,3.528-9.248,5.56
	c-0.288,0.2-0.56,0.424-0.84,0.632c-2.384,1.704-4.624,3.544-6.784,5.472c-0.664,0.592-1.336,1.184-1.976,1.8
	c-2.24,2.136-4.376,4.376-6.336,6.736c-0.52,0.632-0.976,1.32-1.488,1.968c-1.344,1.728-2.608,3.52-3.808,5.352
	c-0.24,0.368-0.48,0.736-0.72,1.112c-0.52,0.824-1.032,1.656-1.52,2.496c-1.104,1.912-2.12,3.872-3.064,5.864
	c-0.16,0.328-0.32,0.656-0.472,0.984c-0.344,0.752-0.696,1.504-1.016,2.264c-1.096,2.616-2.072,5.288-2.88,8.024
	c-0.04,0.144-0.08,0.288-0.12,0.432c-0.232,0.784-0.408,1.592-0.616,2.384c-0.608,2.36-1.12,4.744-1.512,7.168
	c-0.16,0.96-0.32,1.92-0.44,2.888C304.28,377.312,304,380.632,304,384s0.28,6.688,0.688,9.976c0.12,0.968,0.288,1.928,0.44,2.888
	c0.392,2.424,0.904,4.816,1.512,7.168c0.208,0.792,0.384,1.6,0.616,2.384c0.04,0.144,0.08,0.288,0.12,0.432
	c0.816,2.736,1.784,5.408,2.88,8.024c0.32,0.76,0.672,1.512,1.016,2.264c0.152,0.336,0.32,0.664,0.48,0.992
	c0.944,2,1.96,3.952,3.064,5.864c0.488,0.84,1,1.672,1.52,2.496c0.232,0.376,0.48,0.744,0.72,1.112
	c1.2,1.832,2.456,3.624,3.808,5.352c0.504,0.648,0.96,1.336,1.488,1.968c1.96,2.368,4.096,4.6,6.336,6.736
	c0.64,0.616,1.312,1.208,1.976,1.8c2.16,1.928,4.4,3.776,6.784,5.472c0.288,0.208,0.552,0.424,0.84,0.632
	c2.928,2.032,6.008,3.896,9.24,5.56C358.48,460.752,370.856,464,384,464c44.112,0,80-35.888,80-80S428.112,304,384,304z M448,360v48
	c0,4.424-3.576,8-8,8h-24v24c0,4.424-3.576,8-8,8h-48c-4.424,0-8-3.576-8-8v-24h-24c-4.424,0-8-3.576-8-8v-48c0-4.424,3.576-8,8-8
	h24v-24c0-4.424,3.576-8,8-8h48c4.424,0,8,3.576,8,8v24h24C444.424,352,448,355.576,448,360z"/>
<g>
	<path style="fill:#827ED9;" d="M176,375.168c48.72-23.688,80-73.456,80-127.832v-8.032l-16.992-1.536
		c-27.304-2.488-51.144-25.064-63.008-43.056c-11.864,17.992-35.704,40.568-63.008,43.056L96,239.304v8.032
		C96,301.712,127.28,351.48,176,375.168z M224,248h16c0,42.344-22.832,81.696-59.6,102.696l-8.424-13.608
		C204.248,318.64,224,284.616,224,248z"/>
	<path style="fill:#827ED9;" d="M322.184,457.336c-0.88-0.736-1.688-1.544-2.536-2.304c-1.72-1.56-3.4-3.16-5-4.84
		c-0.728-0.76-1.496-1.496-2.2-2.28C312.288,447.92,312.16,448,312,448H40c-4.424,0-8-3.576-8-8V88c0-4.424,3.576-8,8-8h32V64H16
		v400h315.04c-0.008-0.008-0.024-0.016-0.032-0.024C327.936,461.928,324.992,459.712,322.184,457.336z"/>
</g>
<path style="fill:#FFFFFF;" d="M72,96H48v336h252.912c-0.096-0.168-0.16-0.36-0.264-0.528c-0.928-1.632-1.776-3.304-2.608-4.984
	c-0.928-1.872-1.864-3.736-2.672-5.672c-0.072-0.168-0.12-0.344-0.184-0.512c-0.56-1.376-1.04-2.784-1.536-4.184
	c-0.696-1.96-1.352-3.928-1.92-5.936c-0.16-0.552-0.36-1.088-0.512-1.648c-0.24-0.912-0.408-1.84-0.624-2.76
	c-0.544-2.312-0.968-4.664-1.336-7.04c-0.12-0.784-0.336-1.552-0.44-2.344c-0.056-0.44-0.072-0.896-0.128-1.336
	C288.272,391.416,288,387.744,288,384c0-2.936,0.176-5.848,0.44-8.744c0.08-0.848,0.176-1.688,0.28-2.528
	c0.016-0.168,0.032-0.336,0.056-0.496c0.064-0.496,0.096-1,0.168-1.496c0.208-1.496,0.488-2.976,0.768-4.456
	c0.144-0.768,0.264-1.544,0.424-2.304c0.264-1.24,0.584-2.472,0.904-3.704c0.208-0.832,0.416-1.664,0.656-2.488
	c0.176-0.608,0.32-1.216,0.504-1.816c0.224-0.736,0.504-1.44,0.744-2.168c0.592-1.776,1.216-3.544,1.912-5.28
	c0.32-0.8,0.624-1.6,0.96-2.384c0.152-0.352,0.344-0.688,0.504-1.04c0.696-1.568,1.456-3.112,2.24-4.64
	c0.512-0.992,0.992-1.992,1.536-2.968c0.064-0.12,0.12-0.24,0.184-0.352c0.664-1.184,1.408-2.312,2.12-3.464
	c0.536-0.872,1.032-1.76,1.608-2.616V96h-24v8c0,4.424-3.576,8-8,8H80c-4.424,0-8-3.576-8-8V96z M80,232
	c0-4.144,3.16-7.592,7.272-7.968l24.264-2.2c30.984-2.816,54.984-39.312,56.472-46.192c0.008-0.144,0.016-0.28,0.032-0.424
	c0.16-4.264,3.656-7.464,7.976-7.464c4.296,0,7.784,3.616,7.976,7.88c1.488,6.888,25.496,43.384,56.472,46.192l24.264,2.2
	C268.84,224.408,272,227.856,272,232v15.336c0,61.848-36.384,118.352-92.688,143.944c-1.056,0.48-2.176,0.72-3.312,0.72
	s-2.256-0.24-3.312-0.72C116.384,365.688,80,309.184,80,247.336V232z"/>
<g>
	<path style="fill:#827ED9;" d="M264,88V64h-32c-4.424,0-8-3.576-8-8c0-22.056-17.944-40-40-40h-16c-22.056,0-40,17.944-40,40
		c0,4.424-3.576,8-8,8H88v24v8h176V88z"/>
	<path style="fill:#827ED9;" d="M320,88v224.648c1.48-1.328,2.968-2.632,4.528-3.864c0.744-0.584,1.512-1.136,2.272-1.704
		c2.688-2,5.472-3.864,8.36-5.584c0.296-0.176,0.544-0.392,0.84-0.56V64h-56v16h32C316.424,80,320,83.576,320,88z"/>
</g>
<g>
	<path style="fill:#232323;" d="M264.728,224.032l-24.264-2.2c-30.976-2.816-54.984-39.304-56.472-46.192
		c-0.192-4.264-3.68-7.88-7.976-7.88c-4.32,0-7.824,3.192-7.976,7.464c-0.016,0.144-0.024,0.28-0.032,0.424
		c-1.488,6.88-25.488,43.384-56.472,46.192l-24.264,2.2C83.16,224.408,80,227.856,80,232v15.336
		c0,61.848,36.384,118.352,92.688,143.944c1.056,0.48,2.176,0.72,3.312,0.72s2.256-0.24,3.312-0.72
		C235.616,365.688,272,309.184,272,247.336V232C272,227.856,268.84,224.408,264.728,224.032z M256,247.336
		c0,54.376-31.28,104.144-80,127.832c-48.72-23.688-80-73.456-80-127.832v-8.032l16.992-1.536
		c27.304-2.488,51.144-25.064,63.008-43.056c11.864,17.992,35.704,40.568,63.008,43.056L256,239.304V247.336z"/>
	<path style="fill:#232323;" d="M384,288c-11.232,0-21.976,2.04-32,5.6V56c0-4.424-3.576-8-8-8h-72h-32.568
		C235.536,20.896,212.168,0,184,0h-16c-28.168,0-51.536,20.896-55.432,48H80H8c-4.424,0-8,3.576-8,8v416c0,4.424,3.576,8,8,8h336
		c3.632,0,6.568-2.456,7.552-5.768C361.704,477.896,372.6,480,384,480c52.936,0,96-43.064,96-96S436.936,288,384,288z M336,300.936
		c-0.296,0.168-0.552,0.392-0.84,0.56c-2.888,1.72-5.672,3.584-8.36,5.584c-0.76,0.568-1.528,1.112-2.272,1.704
		c-1.56,1.232-3.048,2.536-4.528,3.864V88c0-4.424-3.576-8-8-8h-32V64h56V300.936z M288.688,395.048
		c0.048,0.44,0.064,0.896,0.128,1.336c0.104,0.792,0.312,1.552,0.44,2.344c0.368,2.376,0.792,4.728,1.336,7.04
		c0.216,0.92,0.384,1.848,0.624,2.76c0.144,0.56,0.352,1.096,0.512,1.648c0.568,2.016,1.224,3.984,1.92,5.936
		c0.496,1.4,0.976,2.808,1.536,4.184c0.072,0.168,0.12,0.344,0.184,0.512c0.808,1.936,1.744,3.8,2.672,5.672
		c0.832,1.688,1.68,3.352,2.608,4.984c0.096,0.168,0.16,0.36,0.264,0.528H48V96h24v8c0,4.424,3.576,8,8,8h192c4.424,0,8-3.576,8-8
		v-8h24v235.032c-0.568,0.856-1.064,1.744-1.608,2.616c-0.712,1.152-1.456,2.28-2.12,3.464c-0.064,0.12-0.12,0.24-0.184,0.352
		c-0.544,0.976-1.024,1.976-1.536,2.968c-0.784,1.536-1.536,3.072-2.24,4.64c-0.16,0.352-0.352,0.688-0.504,1.04
		c-0.336,0.792-0.64,1.584-0.96,2.384c-0.696,1.744-1.32,3.504-1.912,5.28c-0.24,0.728-0.52,1.44-0.744,2.168
		c-0.184,0.6-0.336,1.216-0.504,1.816c-0.232,0.824-0.44,1.656-0.656,2.488c-0.312,1.232-0.64,2.456-0.904,3.704
		c-0.16,0.76-0.28,1.536-0.424,2.304c-0.28,1.48-0.56,2.96-0.768,4.456c-0.072,0.496-0.104,1-0.168,1.496
		c-0.024,0.168-0.032,0.336-0.056,0.496c-0.096,0.84-0.2,1.68-0.28,2.528c-0.256,2.92-0.432,5.832-0.432,8.768
		C288,387.744,288.272,391.416,288.688,395.048z M120,64c4.424,0,8-3.576,8-8c0-22.056,17.944-40,40-40h16c22.056,0,40,17.944,40,40
		c0,4.424,3.576,8,8,8h32v24v8H88v-8V64H120z M331.04,464H16V64h56v16H40c-4.424,0-8,3.576-8,8v352c0,4.424,3.576,8,8,8h272
		c0.16,0,0.288-0.08,0.44-0.088c0.704,0.784,1.464,1.52,2.2,2.28c1.6,1.68,3.28,3.28,5,4.84c0.848,0.768,1.656,1.568,2.536,2.304
		c2.816,2.376,5.752,4.6,8.824,6.64C331.016,463.984,331.024,463.992,331.04,464z M384,464c-13.144,0-25.52-3.248-36.472-8.888
		c-3.232-1.664-6.312-3.528-9.24-5.56c-0.288-0.2-0.56-0.424-0.84-0.632c-2.384-1.704-4.624-3.544-6.784-5.472
		c-0.664-0.592-1.336-1.184-1.976-1.8c-2.24-2.136-4.376-4.376-6.336-6.736c-0.52-0.632-0.976-1.32-1.488-1.968
		c-1.344-1.728-2.608-3.52-3.808-5.352c-0.24-0.368-0.48-0.736-0.72-1.112c-0.52-0.824-1.032-1.656-1.52-2.496
		c-1.104-1.912-2.12-3.864-3.064-5.864c-0.16-0.336-0.328-0.656-0.48-0.992c-0.344-0.752-0.696-1.504-1.016-2.264
		c-1.096-2.616-2.072-5.288-2.88-8.024c-0.04-0.144-0.08-0.288-0.12-0.432c-0.232-0.784-0.408-1.592-0.616-2.384
		c-0.608-2.36-1.12-4.744-1.512-7.168c-0.16-0.96-0.32-1.92-0.44-2.888c-0.408-3.28-0.688-6.6-0.688-9.968s0.28-6.688,0.688-9.976
		c0.12-0.968,0.288-1.928,0.44-2.888c0.392-2.424,0.904-4.816,1.512-7.168c0.208-0.792,0.384-1.6,0.616-2.384
		c0.04-0.144,0.08-0.288,0.12-0.432c0.816-2.736,1.784-5.408,2.88-8.024c0.32-0.76,0.672-1.512,1.016-2.264
		c0.152-0.336,0.32-0.656,0.472-0.984c0.944-2,1.96-3.96,3.064-5.864c0.488-0.84,1-1.672,1.52-2.496
		c0.232-0.376,0.48-0.744,0.72-1.112c1.2-1.832,2.456-3.624,3.808-5.352c0.504-0.648,0.96-1.336,1.488-1.968
		c1.96-2.368,4.096-4.6,6.336-6.736c0.64-0.616,1.312-1.208,1.976-1.8c2.16-1.928,4.4-3.776,6.784-5.472
		c0.288-0.208,0.552-0.424,0.84-0.632c2.928-2.032,6.008-3.896,9.248-5.56C358.48,307.248,370.856,304,384,304
		c44.112,0,80,35.888,80,80S428.112,464,384,464z"/>
	<path style="fill:#232323;" d="M416,352v-24c0-4.424-3.576-8-8-8h-48c-4.424,0-8,3.576-8,8v24h-24c-4.424,0-8,3.576-8,8v48
		c0,4.424,3.576,8,8,8h24v24c0,4.424,3.576,8,8,8h48c4.424,0,8-3.576,8-8v-24h24c4.424,0,8-3.576,8-8v-48c0-4.424-3.576-8-8-8H416z
		 M432,400h-24c-4.424,0-8,3.576-8,8v24h-32v-24c0-4.424-3.576-8-8-8h-24v-32h24c4.424,0,8-3.576,8-8v-24h32v24c0,4.424,3.576,8,8,8
		h24V400z"/>
	<path style="fill:#232323;" d="M171.976,337.088l8.424,13.608c36.768-21,59.6-60.352,59.6-102.696h-16
		C224,284.616,204.248,318.64,171.976,337.088z"/>
</g>
<g>
</g>
<g>
</g>
<g>
</g>
<g>
</g>
<g>
</g>
<g>
</g>
<g>
</g>
<g>
</g>
<g>
</g>
<g>
</g>
<g>
</g>
<g>
</g>
<g>
</g>
<g>
</g>
<g>
</g>
</svg>
