<?xml version="1.0" encoding="iso-8859-1"?>
<!-- Generator: Adobe Illustrator 19.0.0, SVG Export Plug-In . SVG Version: 6.00 Build 0)  -->
<svg version="1.1" id="Capa_1" xmlns="http://www.w3.org/2000/svg" xmlns:xlink="http://www.w3.org/1999/xlink" x="0px" y="0px"
	 viewBox="0 0 480 480" style="enable-background:new 0 0 480 480;" xml:space="preserve">
<g>
	<path style="fill:#DD763E;" d="M92.027,204.648c1.792,1.04,3.632,1.792,5.504,2.352c0.208,0.056,0.408,0.136,0.616,0.192
		c1.928,0.52,3.88,0.808,5.856,0.808h8v-24v-40c0-2.128,0.84-4.16,2.344-5.656l68-68c1.816-1.824,2.744-4.224,2.616-6.8
		c-0.128-2.56-1.304-4.872-3.32-6.52c-3.496-2.872-9.064-2.288-12.672,1.32l-43.312,43.312c-2.296,2.288-5.728,2.976-8.72,1.736
		c-2.992-1.232-4.936-4.16-4.936-7.392c0-4.432-1.776-8.544-4.984-11.6c-3.008-2.864-6.896-4.4-11.024-4.4
		c-0.288,0-0.576,0.008-0.864,0.024c-8.336,0.44-15.128,8.208-15.128,17.336V184c0,8.768,4.776,16.376,11.816,20.56
		C91.883,204.6,91.963,204.608,92.027,204.648z"/>
	<path style="fill:#DD763E;" d="M128.003,208h32c4.424,0,8,3.576,8,8v56h16v-56c0-13.232-10.768-24-24-24h-32V208z"/>
</g>
<rect x="376.003" y="160" style="fill:#827ED9;" width="32" height="304"/>
<rect x="336.003" y="16" style="fill:#FED27C;" width="16" height="16"/>
<path style="fill:#DD763E;" d="M96.003,223.192V352h16V224h-8C101.267,224,98.587,223.72,96.003,223.192z"/>
<g>
	<rect x="248.003" y="64" style="fill:#FED27C;" width="16" height="16"/>
	<polygon style="fill:#FED27C;" points="432.003,18.24 414.811,32 449.195,32 	"/>
</g>
<g>
	<rect x="280.003" y="240" style="fill:#827ED9;" width="32" height="224"/>
	<rect x="184.003" y="320" style="fill:#827ED9;" width="32" height="144"/>
	<rect x="80.003" y="400" style="fill:#827ED9;" width="32" height="64"/>
</g>
<circle style="fill:#DD763E;" cx="96.003" cy="40" r="24"/>
<g>
	<path style="fill:#232323;" d="M128.003,392c0-4.424-3.576-8-8-8h-48c-4.424,0-8,3.576-8,8v80c0,4.424,3.576,8,8,8h48
		c4.424,0,8-3.576,8-8V392z M112.003,464h-32v-64h32V464z"/>
	<path style="fill:#232323;" d="M224.003,480c4.424,0,8-3.576,8-8V312c0-4.424-3.576-8-8-8h-48c-4.424,0-8,3.576-8,8v160
		c0,4.424,3.576,8,8,8H224.003z M184.003,320h32v144h-32V320z"/>
	<path style="fill:#232323;" d="M320.003,480c4.424,0,8-3.576,8-8V232c0-4.424-3.576-8-8-8h-48c-4.424,0-8,3.576-8,8v240
		c0,4.424,3.576,8,8,8H320.003z M280.003,240h32v224h-32V240z"/>
	<path style="fill:#232323;" d="M424.003,472V152c0-4.424-3.576-8-8-8h-48c-4.424,0-8,3.576-8,8v320c0,4.424,3.576,8,8,8h48
		C420.427,480,424.003,476.424,424.003,472z M408.003,464h-32V160h32V464z"/>
	<path style="fill:#232323;" d="M120.003,368h24c4.424,0,8-3.576,8-8v-72h8h32h48c4.424,0,8-3.576,8-8v-72h88c4.424,0,8-3.576,8-8
		v-72h88c4.424,0,8-3.576,8-8V48h32c3.4,0,6.424-2.152,7.544-5.352s0.104-6.776-2.544-8.896l-40-32c-2.92-2.328-7.08-2.328-10,0
		l-40,32c-2.648,2.128-3.672,5.696-2.544,8.896S388.603,48,392.003,48h32v64h-88c-4.424,0-8,3.576-8,8v72h-88c-4.424,0-8,3.576-8,8
		v72h-32v-56c0-22.056-17.944-40-40-40h-32v-28.688l65.656-65.656c4.984-4.976,7.632-11.864,7.28-18.904
		c-0.352-7.032-3.688-13.632-9.168-18.12c-9.784-8-24.776-6.936-34.112,2.4l-33.6,33.6c-1.504-2.752-3.44-5.264-5.696-7.48
		c10.632-7.2,17.64-19.376,17.64-33.152c0-22.056-17.944-40-40-40s-40,17.944-40,40c0,13.896,7.144,26.136,17.928,33.312
		c-6.088,6.08-9.928,14.576-9.928,24.048V184c0,13.016,6.344,24.488,16,31.792V352h-80v16h88H120.003z M432.003,18.24L449.195,32
		h-34.392L432.003,18.24z M144.003,272c-4.424,0-8,3.576-8,8v72h-8V224h24v48H144.003z M160.003,192c13.232,0,24,10.768,24,24v56
		h-16v-56c0-4.424-3.576-8-8-8h-32v-16H160.003z M125.659,101.656l43.312-43.312c3.608-3.608,9.176-4.192,12.672-1.32
		c2.016,1.648,3.192,3.96,3.32,6.52c0.128,2.568-0.808,4.976-2.616,6.8l-68,68c-1.504,1.496-2.344,3.528-2.344,5.656v40v24h-8
		c-1.976,0-3.928-0.288-5.856-0.808c-0.208-0.056-0.408-0.136-0.616-0.192c-1.872-0.56-3.712-1.312-5.504-2.352
		c-0.064-0.04-0.144-0.048-0.208-0.088c-7.04-4.184-11.816-11.792-11.816-20.56V97.36c0-9.128,6.792-16.896,15.128-17.336
		C95.419,80.008,95.707,80,95.995,80c4.128,0,8.016,1.536,11.024,4.4c3.208,3.056,4.984,7.168,4.984,11.6
		c0,3.232,1.944,6.16,4.936,7.392C119.931,104.632,123.363,103.944,125.659,101.656z M96.003,16c13.232,0,24,10.768,24,24
		s-10.768,24-24,24s-24-10.768-24-24S82.771,16,96.003,16z M96.003,223.192c2.584,0.528,5.264,0.808,8,0.808h8v128h-16V223.192z"/>
	<rect x="336.003" style="fill:#232323;" width="16" height="16"/>
	<rect x="320.003" y="16" style="fill:#232323;" width="16" height="16"/>
	<rect x="352.003" y="16" style="fill:#232323;" width="16" height="16"/>
	<rect x="336.003" y="32" style="fill:#232323;" width="16" height="16"/>
	<rect x="248.003" y="48" style="fill:#232323;" width="16" height="16"/>
	<rect x="232.003" y="64" style="fill:#232323;" width="16" height="16"/>
	<rect x="264.003" y="64" style="fill:#232323;" width="16" height="16"/>
	<rect x="248.003" y="80" style="fill:#232323;" width="16" height="16"/>
</g>
<g>
</g>
<g>
</g>
<g>
</g>
<g>
</g>
<g>
</g>
<g>
</g>
<g>
</g>
<g>
</g>
<g>
</g>
<g>
</g>
<g>
</g>
<g>
</g>
<g>
</g>
<g>
</g>
<g>
</g>
</svg>
