<?xml version="1.0" encoding="iso-8859-1"?>
<!-- Generator: Adobe Illustrator 19.0.0, SVG Export Plug-In . SVG Version: 6.00 Build 0)  -->
<svg version="1.1" id="Capa_1" xmlns="http://www.w3.org/2000/svg" xmlns:xlink="http://www.w3.org/1999/xlink" x="0px" y="0px"
	 viewBox="0 0 480 480" style="enable-background:new 0 0 480 480;" xml:space="preserve">
<path style="fill:#DD763E;" d="M127.417,364.048c3.96,2.632,8.016,5.128,12.208,7.424c0.168,0.088,0.32,0.192,0.488,0.28
	c4.464,2.424,9.064,4.624,13.76,6.64c0.712,0.304,1.44,0.592,2.16,0.888c19.728,8.152,41.32,12.72,63.968,12.72
	s44.24-4.568,63.976-12.728c0.72-0.296,1.448-0.576,2.16-0.888c4.696-2.016,9.296-4.216,13.76-6.64
	c0.168-0.088,0.32-0.192,0.488-0.28c4.184-2.288,8.24-4.792,12.208-7.424c0.784-0.52,1.56-1.04,2.336-1.568
	c44.08-30.312,73.072-81.048,73.072-138.472c0-43.44-16.72-82.96-43.872-112.808l-16.96,16.96
	c22.816,25.488,36.832,59.024,36.832,95.848c0,79.4-64.6,144-144,144s-144-64.6-144-144s64.6-144,144-144
	c36.824,0,70.36,14.016,95.848,36.84l16.96-16.96C302.961,72.72,263.441,56,220.001,56c-92.632,0-168,75.368-168,168
	c0,57.424,28.992,108.16,73.08,138.48C125.849,363.008,126.633,363.528,127.417,364.048z"/>
<path style="fill:#827ED9;" d="M319.801,378.464c-2.936,1.904-5.928,3.72-8.968,5.456c-0.952,0.544-1.896,1.12-2.856,1.648
	c-3.52,1.928-7.128,3.704-10.784,5.4c-0.656,0.304-1.28,0.672-1.936,0.968l68.744,68.752L384.689,440l-62.808-62.808
	C321.209,377.648,320.481,378.024,319.801,378.464z"/>
<path style="fill:#FED27C;" d="M220.001,176c-26.472,0-48,21.528-48,48s21.528,48,48,48s48-21.528,48-48
	c0-10.352-3.328-19.92-8.92-27.768l-33.424,33.424l-11.312-11.312l33.424-33.424C239.921,179.328,230.353,176,220.001,176z"/>
<path style="fill:#DD763E;" d="M220.001,136c-48.52,0-88,39.48-88,88s39.48,88,88,88s88-39.48,88-88
	c0-21.384-7.688-41-20.416-56.272l-17.088,17.088c8.432,10.848,13.504,24.416,13.504,39.184c0,35.288-28.712,64-64,64
	s-64-28.712-64-64s28.712-64,64-64c14.768,0,28.336,5.072,39.184,13.504l17.088-17.088C261.001,143.688,241.385,136,220.001,136z"/>
<path style="fill:#FED27C;" d="M220.001,96c-70.576,0-128,57.424-128,128s57.424,128,128,128s128-57.424,128-128
	c0-32.416-12.208-61.968-32.144-84.544l-16.96,16.96c15.608,18.2,25.104,41.784,25.104,67.584c0,57.344-46.656,104-104,104
	s-104-46.656-104-104s46.656-104,104-104c25.8,0,49.384,9.496,67.576,25.112l16.96-16.96C281.969,108.208,252.417,96,220.001,96z"/>
<path style="fill:#827ED9;" d="M144.753,391.936c-0.656-0.296-1.28-0.664-1.936-0.968c-3.656-1.696-7.264-3.48-10.784-5.4
	c-0.96-0.528-1.904-1.096-2.856-1.648c-3.048-1.736-6.032-3.552-8.968-5.456c-0.68-0.44-1.408-0.816-2.08-1.264L55.313,440
	l20.688,20.688L144.753,391.936z"/>
<path style="fill:#232323;" d="M38.345,445.656l32,32c1.56,1.56,3.608,2.344,5.656,2.344s4.096-0.784,5.656-2.344l79.4-79.4
	c18.52,6.288,38.328,9.744,58.944,9.744s40.424-3.456,58.944-9.744l79.4,79.4c1.56,1.56,3.608,2.344,5.656,2.344
	s4.096-0.784,5.656-2.344l32-32c3.128-3.128,3.128-8.184,0-11.312l-66.768-66.768c42.088-33.752,69.112-85.552,69.112-143.576
	c0-47.856-18.376-91.496-48.432-124.256L375.313,80h44.688V64h-28.688l8-8h44.688V40h-28.688l26.344-26.344L430.345,2.344
	l-26.344,26.344V0h-16v44.688l-8,8V24h-16v44.688l-19.744,19.744C311.497,58.376,267.857,40,220.001,40
	c-101.464,0-184,82.536-184,184c0,58.024,27.024,109.824,69.112,143.576l-66.768,66.768
	C35.217,437.472,35.217,442.528,38.345,445.656z M321.881,377.192L384.689,440l-20.688,20.688l-68.752-68.752
	c0.656-0.296,1.28-0.664,1.936-0.968c3.656-1.696,7.264-3.48,10.784-5.4c0.96-0.528,1.904-1.096,2.856-1.648
	c3.048-1.736,6.032-3.552,8.968-5.456C320.481,378.024,321.209,377.648,321.881,377.192z M52.001,224c0-92.632,75.368-168,168-168
	c43.44,0,82.96,16.72,112.808,43.872l-16.96,16.96C290.361,94.016,256.825,80,220.001,80c-79.4,0-144,64.6-144,144s64.6,144,144,144
	s144-64.6,144-144c0-36.824-14.016-70.36-36.84-95.848l16.96-16.96c27.16,29.848,43.88,69.368,43.88,112.808
	c0,57.424-28.992,108.16-73.08,138.48c-0.776,0.536-1.552,1.048-2.336,1.568c-3.96,2.632-8.016,5.128-12.208,7.424
	c-0.168,0.088-0.32,0.192-0.488,0.28c-4.464,2.424-9.064,4.624-13.76,6.64c-0.712,0.304-1.44,0.592-2.16,0.888
	c-19.728,8.152-41.32,12.72-63.968,12.72s-44.24-4.568-63.976-12.728c-0.72-0.296-1.448-0.576-2.16-0.888
	c-4.696-2.016-9.296-4.216-13.76-6.64c-0.168-0.088-0.32-0.192-0.488-0.28c-4.184-2.288-8.24-4.792-12.208-7.424
	c-0.784-0.52-1.56-1.04-2.336-1.568C80.993,332.16,52.001,281.424,52.001,224z M268.001,224c0,26.472-21.528,48-48,48
	s-48-21.528-48-48s21.528-48,48-48c10.352,0,19.92,3.328,27.768,8.92l-33.424,33.424l11.312,11.312l33.424-33.424
	C264.673,204.08,268.001,213.648,268.001,224z M259.185,173.504C248.337,165.072,234.769,160,220.001,160c-35.288,0-64,28.712-64,64
	s28.712,64,64,64s64-28.712,64-64c0-14.768-5.072-28.336-13.504-39.184l17.088-17.088C300.313,183,308.001,202.616,308.001,224
	c0,48.52-39.48,88-88,88s-88-39.48-88-88s39.48-88,88-88c21.384,0,41,7.688,56.272,20.416L259.185,173.504z M287.577,145.112
	C269.385,129.496,245.801,120,220.001,120c-57.344,0-104,46.656-104,104s46.656,104,104,104s104-46.656,104-104
	c0-25.8-9.496-49.384-25.112-67.576l16.96-16.96c19.944,22.568,32.152,52.12,32.152,84.536c0,70.576-57.424,128-128,128
	s-128-57.424-128-128s57.424-128,128-128c32.416,0,61.968,12.208,84.544,32.144L287.577,145.112z M118.121,377.192
	c0.68,0.448,1.4,0.824,2.08,1.264c2.936,1.904,5.928,3.72,8.968,5.456c0.952,0.544,1.896,1.12,2.856,1.648
	c3.52,1.928,7.128,3.704,10.784,5.4c0.656,0.304,1.28,0.672,1.936,0.968l-68.744,68.76L55.313,440L118.121,377.192z"/>
<g>
</g>
<g>
</g>
<g>
</g>
<g>
</g>
<g>
</g>
<g>
</g>
<g>
</g>
<g>
</g>
<g>
</g>
<g>
</g>
<g>
</g>
<g>
</g>
<g>
</g>
<g>
</g>
<g>
</g>
</svg>
