<?xml version="1.0" encoding="iso-8859-1"?>
<!-- Generator: Adobe Illustrator 19.0.0, SVG Export Plug-In . SVG Version: 6.00 Build 0)  -->
<svg version="1.1" id="Capa_1" xmlns="http://www.w3.org/2000/svg" xmlns:xlink="http://www.w3.org/1999/xlink" x="0px" y="0px"
	 viewBox="0 0 480 480" style="enable-background:new 0 0 480 480;" xml:space="preserve">
<g>
	<path style="fill:#FFFFFF;" d="M320,40v392h16V16H48v16h264C316.424,32,320,35.584,320,40z"/>
	<path style="fill:#FFFFFF;" d="M304,440V48H40H16v416h288V440z M80,72h160v16H80V72z M144,152v-16h88v16H144z M208,168v16h-80v-16
		H208z M80,136h48v16H80V136z M48,168h64v16H48V168z M48,232h48v16H48V232z M96,376H48v-16h48V376z M272,448h-96v-16h96V448z
		 M272,376H112v-16h160V376z M272,344H48v-16h224V344z M80,312v-16h128v16H80z M272,312h-48v-16h48V312z M272,280H48v-16h224V280z
		 M272,248H112v-16h160V248z M272,216H48v-16h224V216z M272,184h-48v-16h48V184z M272,152h-24v-16h24V152z"/>
</g>
<g>
	<rect x="384" y="16" style="fill:#DD763E;" width="48" height="192"/>
	<polygon style="fill:#DD763E;" points="384,421.576 408,457.576 432,421.576 432,224 384,224 	"/>
</g>
<g>
	<path style="fill:#232323;" d="M8,480h304c4.424,0,8-3.584,8-8v-24h24c4.424,0,8-3.584,8-8V8c0-4.416-3.576-8-8-8H40
		c-4.424,0-8,3.584-8,8v24H8c-4.424,0-8,3.584-8,8v432C0,476.416,3.576,480,8,480z M48,16h288v416h-16V40c0-4.416-3.576-8-8-8H48V16
		z M16,48h24h264v392v24H16V48z"/>
	<path style="fill:#232323;" d="M448,32.808V8c0-4.416-3.576-8-8-8h-64c-4.424,0-8,3.584-8,8v208v208
		c0,1.576,0.472,3.128,1.344,4.44l32,48c1.488,2.224,3.984,3.56,6.656,3.56s5.168-1.336,6.656-3.56l32-48
		c0.872-1.312,1.344-2.864,1.344-4.44V216V49.472c9.288,3.312,16,12.112,16,22.528v80h16V72C480,52.688,466.232,36.528,448,32.808z
		 M384,16h48v192h-48V16z M432,421.576l-24,36l-24-36V224h48V421.576z"/>
	<rect x="80" y="72" style="fill:#232323;" width="160" height="16"/>
	<rect x="80" y="136" style="fill:#232323;" width="48" height="16"/>
	<rect x="144" y="136" style="fill:#232323;" width="88" height="16"/>
	<rect x="48" y="168" style="fill:#232323;" width="64" height="16"/>
	<rect x="128" y="168" style="fill:#232323;" width="80" height="16"/>
	<rect x="48" y="200" style="fill:#232323;" width="224" height="16"/>
	<rect x="48" y="232" style="fill:#232323;" width="48" height="16"/>
	<rect x="112" y="232" style="fill:#232323;" width="160" height="16"/>
	<rect x="48" y="264" style="fill:#232323;" width="224" height="16"/>
	<rect x="248" y="136" style="fill:#232323;" width="24" height="16"/>
	<rect x="224" y="168" style="fill:#232323;" width="48" height="16"/>
	<rect x="176" y="432" style="fill:#232323;" width="96" height="16"/>
	<rect x="80" y="296" style="fill:#232323;" width="128" height="16"/>
	<rect x="48" y="328" style="fill:#232323;" width="224" height="16"/>
	<rect x="48" y="360" style="fill:#232323;" width="48" height="16"/>
	<rect x="112" y="360" style="fill:#232323;" width="160" height="16"/>
	<rect x="224" y="296" style="fill:#232323;" width="48" height="16"/>
</g>
<g>
</g>
<g>
</g>
<g>
</g>
<g>
</g>
<g>
</g>
<g>
</g>
<g>
</g>
<g>
</g>
<g>
</g>
<g>
</g>
<g>
</g>
<g>
</g>
<g>
</g>
<g>
</g>
<g>
</g>
</svg>
