<?xml version="1.0" encoding="iso-8859-1"?>
<!-- Generator: Adobe Illustrator 19.0.0, SVG Export Plug-In . SVG Version: 6.00 Build 0)  -->
<svg version="1.1" id="Capa_1" xmlns="http://www.w3.org/2000/svg" xmlns:xlink="http://www.w3.org/1999/xlink" x="0px" y="0px"
	 viewBox="0 0 480 480" style="enable-background:new 0 0 480 480;" xml:space="preserve">
<path style="fill:#827ED9;" d="M347.504,205.624l-77.424,37.76c-0.256,0.128-0.52,0.24-0.8,0.336c-3.152,1.136-5.28,4.16-5.28,7.528
	V256v96v4.752c0,3.36,2.128,6.384,5.288,7.528c0.272,0.096,0.536,0.208,0.8,0.336l77.424,37.76l0,0L464,459.2V148.8L347.504,205.624
	C347.512,205.616,347.512,205.624,347.504,205.624z M448,304c0,48.52-39.48,88-88,88s-88-39.48-88-88s39.48-88,88-88
	S448,255.48,448,304z"/>
<path style="fill:#FED27C;" d="M360,376c39.704,0,72-32.304,72-72s-32.296-72-72-72s-72,32.304-72,72S320.296,376,360,376z M336,256
	c0-3.128,1.824-5.96,4.656-7.272c2.84-1.288,6.176-0.832,8.544,1.192l56,48c1.776,1.528,2.8,3.744,2.8,6.08s-1.024,4.552-2.8,6.072
	l-56,48c-1.472,1.264-3.328,1.928-5.2,1.928c-1.136,0-2.272-0.24-3.344-0.728C337.824,357.96,336,355.128,336,352V256z"/>
<polygon style="fill:#827ED9;" points="214.248,440 245.752,440 225.752,360 194.248,360 "/>
<path style="fill:#FFFFFF;" d="M248.248,360h-6.008l21.512,86.056c0.6,2.392,0.064,4.92-1.456,6.864S258.464,456,256,456h-48
	c-3.672,0-6.864-2.504-7.76-6.056l-22.584-90.328C149.76,356.456,128,332.736,128,304c0-30.88,25.128-56,56-56h64.248
	c1.184-8.592,6.952-16.024,15.168-19.168l72.584-35.4V16H16v448h320v-49.432l-72.576-35.4
	C255.2,376.024,249.432,368.592,248.248,360z M304,208h-80v-16h80V208z M304,144H112v-16h192V144z M304,80h-80V64h80V80z M144,32
	h160v16H144V32z M208,64v16h-80V64H208z M80,32h48v16H80V32z M48,64h64v16H48V64z M48,96h256v16H48V96z M48,128h48v16H48V128z
	 M48,160h256v16H48V160z M208,192v16H80v-16H208z M48,224h184v16H48V224z M80,320H48v32H32v-40c0-4.416,3.576-8,8-8h40V320z
	 M160,440c0,4.416-3.576,8-8,8h-40v-16h32v-32h16V440z"/>
<polygon style="fill:#827ED9;" points="248,264 192,264 192,344 232,344 248,344 "/>
<polygon style="fill:#DD763E;" points="352,273.392 352,334.608 387.712,304 "/>
<path style="fill:#827ED9;" d="M176,343.192V264.8c-18.232,3.712-32,19.88-32,39.192S157.768,339.48,176,343.192z"/>
<g>
	<path style="fill:#232323;" d="M272,304c0,48.52,39.48,88,88,88s88-39.48,88-88s-39.48-88-88-88S272,255.48,272,304z M432,304
		c0,39.696-32.296,72-72,72s-72-32.304-72-72s32.296-72,72-72S432,264.304,432,304z"/>
	<path style="fill:#232323;" d="M340.656,248.728C337.824,250.04,336,252.872,336,256v96c0,3.128,1.824,5.96,4.656,7.272
		C341.728,359.76,342.864,360,344,360c1.872,0,3.728-0.664,5.2-1.928l56-48c1.776-1.52,2.8-3.736,2.8-6.072s-1.024-4.552-2.8-6.072
		l-56-48C346.832,247.904,343.496,247.44,340.656,248.728z M352,273.392L387.712,304L352,334.608V273.392z"/>
	<path style="fill:#232323;" d="M476.24,129.216c-2.344-1.456-5.264-1.608-7.752-0.408L352,185.624V8c0-4.416-3.576-8-8-8H8
		C3.576,0,0,3.584,0,8v464c0,4.416,3.576,8,8,8h336c4.424,0,8-3.584,8-8v-49.624l116.496,56.816C469.6,479.728,470.808,480,472,480
		c1.48,0,2.944-0.408,4.24-1.216c2.336-1.456,3.76-4.024,3.76-6.784V136C480,133.24,478.576,130.672,476.24,129.216z M336,414.568
		V464H16V16h320v177.432l-72.576,35.4c-8.224,3.144-13.992,10.576-15.176,19.168H184c-30.872,0-56,25.12-56,56
		c0,28.736,21.76,52.456,49.664,55.616l22.584,90.328c0.888,3.56,4.08,6.056,7.752,6.056h48c2.464,0,4.792-1.136,6.304-3.08
		s2.056-4.472,1.456-6.864L242.24,360h6.008c1.184,8.592,6.952,16.024,15.168,19.168L336,414.568z M144,304
		c0-19.32,13.768-35.48,32-39.192V343.2C157.768,339.48,144,323.32,144,304z M232,344h-40v-80h56v80H232z M225.752,360l20,80
		h-31.504l-20-80H225.752z M464,459.2l-116.488-56.816c0,0,0,0-0.008,0l-77.424-37.76c-0.256-0.128-0.52-0.24-0.8-0.336
		c-3.152-1.144-5.28-4.168-5.28-7.536V352v-96v-4.752c0-3.36,2.128-6.384,5.288-7.528c0.272-0.096,0.536-0.208,0.8-0.336
		l77.424-37.76l0,0L464,148.8V459.2z"/>
	<rect x="80" y="32" style="fill:#232323;" width="48" height="16"/>
	<rect x="144" y="32" style="fill:#232323;" width="160" height="16"/>
	<rect x="48" y="64" style="fill:#232323;" width="64" height="16"/>
	<rect x="128" y="64" style="fill:#232323;" width="80" height="16"/>
	<rect x="48" y="96" style="fill:#232323;" width="256" height="16"/>
	<rect x="48" y="128" style="fill:#232323;" width="48" height="16"/>
	<rect x="112" y="128" style="fill:#232323;" width="192" height="16"/>
	<rect x="48" y="160" style="fill:#232323;" width="256" height="16"/>
	<rect x="224" y="64" style="fill:#232323;" width="80" height="16"/>
	<rect x="80" y="192" style="fill:#232323;" width="128" height="16"/>
	<rect x="48" y="224" style="fill:#232323;" width="184" height="16"/>
	<rect x="224" y="192" style="fill:#232323;" width="80" height="16"/>
	<path style="fill:#232323;" d="M32,312v40h16v-32h32v-16H40C35.576,304,32,307.584,32,312z"/>
	<path style="fill:#232323;" d="M144,432h-32v16h40c4.424,0,8-3.584,8-8v-40h-16V432z"/>
</g>
<g>
</g>
<g>
</g>
<g>
</g>
<g>
</g>
<g>
</g>
<g>
</g>
<g>
</g>
<g>
</g>
<g>
</g>
<g>
</g>
<g>
</g>
<g>
</g>
<g>
</g>
<g>
</g>
<g>
</g>
</svg>
