<?xml version="1.0" encoding="iso-8859-1"?>
<!-- Generator: Adobe Illustrator 19.0.0, SVG Export Plug-In . SVG Version: 6.00 Build 0)  -->
<svg version="1.1" id="Capa_1" xmlns="http://www.w3.org/2000/svg" xmlns:xlink="http://www.w3.org/1999/xlink" x="0px" y="0px"
	 viewBox="0 0 480 480" style="enable-background:new 0 0 480 480;" xml:space="preserve">
<g>
	<path style="fill:#FED27C;" d="M40,48.024c2.28-3.032,4.984-5.744,8.024-8.024c-3.04-2.28-5.744-4.992-8.024-8.024
		c-2.28,3.032-4.984,5.744-8.024,8.024C35.016,42.28,37.72,44.992,40,48.024z"/>
	<path style="fill:#FED27C;" d="M144,112.024c2.28-3.032,4.984-5.744,8.024-8.024c-3.04-2.28-5.744-4.992-8.024-8.024
		c-2.28,3.032-4.984,5.744-8.024,8.024C139.016,106.28,141.72,108.992,144,112.024z"/>
</g>
<polygon style="fill:#DD763E;" points="384,384 384,421.576 408,457.576 432,421.576 432,384 432,224 384,224 "/>
<g>
	<rect x="48" y="216" style="fill:#FFFFFF;" width="96" height="16"/>
	<path style="fill:#FFFFFF;" d="M16,376h352V216v-32H16V376z M352,360h-96v-16h96V360z M72,320v-16h256v16H72z M328,288H72v-16h256
		V288z M32,208c0-4.416,3.576-8,8-8h112c4.424,0,8,3.584,8,8v32c0,4.416-3.576,8-8,8H40c-4.424,0-8-3.584-8-8V208z"/>
</g>
<polygon style="fill:#DD763E;" points="384,176 384,208 432,208 432,176 432,16 384,16 "/>
<polygon style="fill:#FFFFFF;" points="448,216 448,376 464,376 464,184 448,184 "/>
<g>
	<path style="fill:#232323;" d="M448,32.808V8c0-4.416-3.576-8-8-8h-64c-4.424,0-8,3.584-8,8v160H8c-4.424,0-8,3.584-8,8v208
		c0,4.416,3.576,8,8,8h360v32c0,1.576,0.472,3.128,1.344,4.44l32,48c1.488,2.224,3.984,3.56,6.656,3.56s5.168-1.336,6.656-3.56
		l32-48c0.872-1.312,1.344-2.864,1.344-4.44v-32h24c4.424,0,8-3.584,8-8V176c0-4.416-3.576-8-8-8h-24V49.472
		c9.288,3.312,16,12.112,16,22.528v80h16V72C480,52.688,466.232,36.528,448,32.808z M384,16h48v160v32h-48v-32V16z M16,376V184h352
		v32v160H16z M432,421.576l-24,36l-24-36V384V224h48v160V421.576z M464,184v192h-16V216v-32H464z"/>
	<path style="fill:#232323;" d="M160,240v-32c0-4.416-3.576-8-8-8H40c-4.424,0-8,3.584-8,8v32c0,4.416,3.576,8,8,8h112
		C156.424,248,160,244.416,160,240z M144,232H48v-16h96V232z"/>
	<rect x="72" y="272" style="fill:#232323;" width="256" height="16"/>
	<rect x="72" y="304" style="fill:#232323;" width="256" height="16"/>
	<rect x="256" y="344" style="fill:#232323;" width="96" height="16"/>
	<path style="fill:#232323;" d="M8,48c13.232,0,24,10.768,24,24c0,4.416,3.576,8,8,8s8-3.584,8-8c0-13.232,10.768-24,24-24
		c4.424,0,8-3.584,8-8s-3.576-8-8-8C58.768,32,48,21.232,48,8c0-4.416-3.576-8-8-8s-8,3.584-8,8c0,13.232-10.768,24-24,24
		c-4.424,0-8,3.584-8,8S3.576,48,8,48z M40,31.976c2.28,3.032,4.984,5.744,8.024,8.024c-3.04,2.28-5.744,4.992-8.024,8.024
		c-2.28-3.032-4.984-5.744-8.024-8.024C35.016,37.72,37.72,35.008,40,31.976z"/>
	<path style="fill:#232323;" d="M112,112c13.232,0,24,10.768,24,24c0,4.416,3.576,8,8,8s8-3.584,8-8c0-13.232,10.768-24,24-24
		c4.424,0,8-3.584,8-8s-3.576-8-8-8c-13.232,0-24-10.768-24-24c0-4.416-3.576-8-8-8s-8,3.584-8,8c0,13.232-10.768,24-24,24
		c-4.424,0-8,3.584-8,8S107.576,112,112,112z M144,95.976c2.28,3.032,4.984,5.744,8.024,8.024c-3.04,2.28-5.744,4.992-8.024,8.024
		c-2.28-3.032-4.984-5.744-8.024-8.024C139.016,101.72,141.72,99.008,144,95.976z"/>
</g>
<g>
</g>
<g>
</g>
<g>
</g>
<g>
</g>
<g>
</g>
<g>
</g>
<g>
</g>
<g>
</g>
<g>
</g>
<g>
</g>
<g>
</g>
<g>
</g>
<g>
</g>
<g>
</g>
<g>
</g>
</svg>
