<?xml version="1.0" encoding="iso-8859-1"?>
<!-- Generator: Adobe Illustrator 19.0.0, SVG Export Plug-In . SVG Version: 6.00 Build 0)  -->
<svg version="1.1" id="Capa_1" xmlns="http://www.w3.org/2000/svg" xmlns:xlink="http://www.w3.org/1999/xlink" x="0px" y="0px"
	 viewBox="0 0 480 480" style="enable-background:new 0 0 480 480;" xml:space="preserve">
<g>
	<path style="fill:#827ED9;" d="M398.4,138.176c7.552-7.552,11.72-17.6,11.72-28.288c0-10.68-4.168-20.728-11.72-28.28
		s-17.6-11.72-28.28-11.72c-10.688,0-20.736,4.168-28.288,11.72c-15.592,15.592-15.592,40.968,0,56.568
		C357.424,153.776,382.808,153.776,398.4,138.176z"/>
	<path style="fill:#827ED9;" d="M109.896,69.888c-10.68,0-20.728,4.168-28.28,11.72s-11.72,17.6-11.72,28.28
		c0,10.688,4.168,20.736,11.72,28.288c15.592,15.592,40.976,15.592,56.568,0c15.592-15.6,15.592-40.976,0-56.568
		C130.632,74.056,120.584,69.888,109.896,69.888z"/>
	<circle style="fill:#827ED9;" cx="240.008" cy="56" r="40"/>
</g>
<g>
	<path style="fill:#DD763E;" d="M284.24,276.44c-4.352-2.912-9.416-4.44-14.656-4.44h-17.76l11.616,29.032
		c0.968,2.432,0.624,5.104-0.76,7.256c0.88-0.296,1.736-0.632,2.6-0.952c1.128-0.424,2.256-0.824,3.36-1.304
		c1.12-0.488,2.2-1.048,3.288-1.584c1.08-0.536,2.176-1.072,3.232-1.664c1-0.56,1.968-1.184,2.944-1.792
		c1.112-0.696,2.224-1.408,3.296-2.168c0.832-0.592,1.64-1.208,2.448-1.832c1.192-0.92,2.36-1.872,3.496-2.872
		c0.632-0.552,1.256-1.128,1.872-1.704c1.272-1.2,2.512-2.456,3.704-3.76c0.272-0.296,0.536-0.584,0.8-0.88
		C291.72,283.176,288.44,279.232,284.24,276.44z"/>
	<path style="fill:#DD763E;" d="M279.632,220.304l-28.592-17.16c-11.496,15.16-36.224,19.312-49.92,20.44
		c5.16,18.08,27.296,32.416,38.888,32.416C252.288,256,276.424,239.896,279.632,220.304z"/>
</g>
<path style="fill:#FED27C;" d="M296.008,216c0,15.712-9.224,30.112-21.096,40.392c6.488,0.816,12.712,3.064,18.2,6.736
	c4.16,2.768,7.728,6.256,10.64,10.232c5.248-9.984,8.256-21.32,8.256-33.36c0-18.568-7.12-35.456-18.696-48.232
	C295.016,198.672,296.008,206.656,296.008,216z"/>
<g>
	<circle style="fill:#827ED9;" cx="56.008" cy="240" r="40"/>
	<circle style="fill:#827ED9;" cx="424.008" cy="240" r="40"/>
	<path style="fill:#827ED9;" d="M370.12,410.112c10.68,0,20.728-4.168,28.28-11.72s11.72-17.6,11.72-28.28
		c0-10.688-4.168-20.736-11.72-28.288c-7.8-7.8-18.04-11.696-28.28-11.696s-20.496,3.896-28.288,11.696
		c-15.592,15.6-15.592,40.976,0,56.568C349.384,405.944,359.432,410.112,370.12,410.112z"/>
</g>
<path style="fill:#DD763E;" d="M240.424,189.472c0.768-2.296,2.528-4.136,4.816-4.968c2.264-0.848,4.808-0.608,6.888,0.64
	l26.656,15.992c-3.6-22.4-16.072-33.136-38.776-33.136c-24.768,0-37.416,12.72-39.56,39.536
	C214.52,206.208,236.376,201.616,240.424,189.472z"/>
<g>
	<path style="fill:#827ED9;" d="M109.896,330.128c-10.24,0-20.488,3.896-28.28,11.696c-7.552,7.552-11.72,17.6-11.72,28.288
		c0,10.68,4.168,20.728,11.72,28.28s17.6,11.72,28.28,11.72c10.688,0,20.736-4.168,28.288-11.72
		c15.592-15.592,15.592-40.968,0-56.568C130.392,334.024,120.144,330.128,109.896,330.128z"/>
	<circle style="fill:#827ED9;" cx="240.008" cy="424" r="40"/>
</g>
<path style="fill:#FED27C;" d="M205.104,256.392c-11.872-10.28-21.096-24.68-21.096-40.392c0-9.344,0.992-17.328,2.696-24.232
	c-11.576,12.776-18.696,29.664-18.696,48.232c0,12.04,3.008,23.376,8.248,33.36c2.912-3.976,6.48-7.464,10.64-10.232
	C192.392,259.456,198.608,257.208,205.104,256.392z"/>
<g>
	<path style="fill:#DD763E;" d="M195.776,276.44c-4.2,2.792-7.472,6.744-9.496,11.328c0.264,0.296,0.536,0.592,0.8,0.88
		c1.192,1.304,2.432,2.56,3.704,3.76c0.616,0.576,1.24,1.144,1.872,1.704c1.136,1,2.304,1.944,3.496,2.872
		c0.808,0.624,1.616,1.248,2.448,1.832c1.08,0.76,2.184,1.472,3.296,2.168c0.976,0.608,1.944,1.224,2.944,1.792
		c1.056,0.592,2.144,1.128,3.224,1.664c1.088,0.544,2.176,1.104,3.296,1.592c1.096,0.48,2.232,0.88,3.352,1.304
		c0.864,0.328,1.728,0.664,2.608,0.96c-1.376-2.144-1.728-4.824-0.76-7.256L228.192,272h-17.76
		C205.192,272,200.128,273.528,195.776,276.44z"/>
	<polygon style="fill:#DD763E;" points="246.616,302.072 240.008,285.536 233.4,302.072 240.008,308.688 	"/>
</g>
<path style="fill:#232323;" d="M424.008,184c-28.152,0-51.456,20.912-55.36,48H327.6c-1.656-18.264-8.888-34.928-20.008-48.272
	l29.032-29.032c9.904,7.408,21.68,11.168,33.496,11.168c14.336,0,28.68-5.464,39.592-16.376c10.576-10.576,16.408-24.64,16.408-39.6
	s-5.832-29.024-16.408-39.592C399.144,59.72,385.08,53.888,370.12,53.888s-29.024,5.832-39.6,16.408
	c-19.904,19.904-21.6,51.168-5.2,73.088l-29.032,29.032c-13.336-11.128-30.008-18.352-48.272-20.008V111.36
	c27.088-3.904,48-27.208,48-55.36c0-30.872-25.128-56-56-56s-56,25.128-56,56c0,28.152,20.912,51.456,48,55.36v41.048
	c-18.264,1.656-34.928,8.888-48.272,20.008l-29.032-29.032c16.392-21.92,14.696-53.184-5.2-73.088
	c-10.576-10.576-24.64-16.408-39.6-16.408S80.888,59.72,70.32,70.296c-10.576,10.568-16.408,24.632-16.408,39.592
	s5.832,29.024,16.408,39.6c10.912,10.912,25.248,16.376,39.592,16.376c11.816,0,23.592-3.768,33.496-11.168l29.032,29.032
	c-11.128,13.336-18.352,30.008-20.008,48.272h-41.064c-3.904-27.088-27.208-48-55.36-48c-30.872,0-56,25.128-56,56s25.128,56,56,56
	c28.152,0,51.456-20.912,55.36-48h41.048c1.576,17.36,8.224,33.24,18.432,46.224c0.048,0.064,0.048,0.144,0.096,0.2
	c0.12,0.152,0.256,0.272,0.376,0.424c0.376,0.472,0.728,0.96,1.112,1.416L143.4,325.296c-21.92-16.392-53.176-14.704-73.088,5.2
	c-10.576,10.576-16.408,24.64-16.408,39.6c0,14.952,5.832,29.016,16.408,39.592s24.64,16.408,39.592,16.408
	c14.96,0,29.024-5.832,39.6-16.408c19.904-19.904,21.6-51.168,5.2-73.088l29.032-29.032c0.264,0.224,0.536,0.432,0.8,0.648
	c0.928,0.76,1.912,1.432,2.872,2.152c1.456,1.096,2.92,2.184,4.44,3.184c1.24,0.816,2.52,1.56,3.8,2.312
	c1.344,0.792,2.696,1.56,4.08,2.28c1.36,0.704,2.744,1.368,4.144,2c1.424,0.64,2.864,1.24,4.32,1.808
	c1.392,0.544,2.776,1.072,4.192,1.536c1.608,0.536,3.248,0.984,4.904,1.424c1.32,0.352,2.632,0.736,3.968,1.024
	c1.952,0.424,3.944,0.728,5.936,1.016c1.096,0.16,2.176,0.384,3.28,0.504c0.504,0.056,1.016,0.088,1.528,0.136v41.048
	c-27.088,3.904-48,27.208-48,55.36c0,30.872,25.128,56,56,56s56-25.128,56-56c0-28.152-20.912-51.456-48-55.36v-41.048
	c0.512-0.048,1.024-0.08,1.528-0.136c1.104-0.12,2.184-0.344,3.28-0.504c2-0.296,3.992-0.592,5.936-1.016
	c1.344-0.288,2.648-0.672,3.968-1.024c1.648-0.44,3.288-0.888,4.904-1.424c1.416-0.472,2.808-1,4.192-1.536
	c1.456-0.568,2.904-1.16,4.32-1.808c1.4-0.632,2.776-1.296,4.144-2c1.384-0.72,2.736-1.488,4.08-2.28
	c1.28-0.752,2.56-1.496,3.8-2.312c1.528-1,2.984-2.088,4.44-3.184c0.96-0.72,1.944-1.392,2.872-2.152
	c0.264-0.216,0.536-0.432,0.8-0.648l29.032,29.032c-16.392,21.92-14.696,53.184,5.2,73.088c10.576,10.576,24.64,16.408,39.6,16.408
	s29.024-5.832,39.592-16.408c10.576-10.568,16.408-24.632,16.408-39.592s-5.832-29.024-16.408-39.6
	c-19.904-19.904-51.16-21.6-73.088-5.2l-29.032-29.032c0.384-0.464,0.736-0.952,1.112-1.416c0.12-0.144,0.256-0.272,0.376-0.424
	c0.048-0.064,0.048-0.144,0.096-0.2c10.208-12.984,16.856-28.872,18.432-46.224h41.048c3.904,27.088,27.208,48,55.36,48
	c30.872,0,56-25.128,56-56S454.88,184,424.008,184z M341.832,81.608c7.552-7.552,17.6-11.72,28.288-11.72
	c10.68,0,20.728,4.168,28.28,11.72s11.72,17.6,11.72,28.28c0,10.688-4.168,20.736-11.72,28.288
	c-15.592,15.592-40.976,15.592-56.568,0C326.232,122.576,326.232,97.2,341.832,81.608z M292.928,288.648
	c-1.192,1.304-2.432,2.56-3.704,3.76c-0.616,0.576-1.24,1.144-1.872,1.704c-1.136,1-2.304,1.944-3.496,2.872
	c-0.808,0.624-1.616,1.248-2.448,1.832c-1.08,0.76-2.184,1.472-3.296,2.168c-0.976,0.608-1.944,1.224-2.944,1.792
	c-1.056,0.592-2.144,1.128-3.232,1.664c-1.088,0.544-2.168,1.096-3.288,1.584c-1.104,0.48-2.232,0.88-3.36,1.304
	c-0.864,0.328-1.72,0.664-2.6,0.952c1.376-2.144,1.728-4.824,0.76-7.256L251.824,272h17.76c5.232,0,10.304,1.528,14.656,4.44
	c4.2,2.792,7.472,6.744,9.496,11.328C293.472,288.064,293.2,288.36,292.928,288.648z M211.376,306.024
	c-1.12-0.488-2.208-1.048-3.296-1.592c-1.08-0.536-2.168-1.072-3.224-1.664c-1-0.56-1.968-1.184-2.944-1.792
	c-1.112-0.696-2.224-1.408-3.296-2.168c-0.832-0.592-1.64-1.208-2.448-1.832c-1.192-0.92-2.36-1.872-3.496-2.872
	c-0.632-0.552-1.256-1.128-1.872-1.704c-1.272-1.2-2.512-2.456-3.704-3.76c-0.272-0.296-0.536-0.584-0.8-0.88
	c2.016-4.592,5.296-8.536,9.496-11.328c4.336-2.904,9.4-4.432,14.64-4.432h17.76l-11.616,29.032
	c-0.968,2.432-0.624,5.104,0.76,7.256c-0.88-0.296-1.744-0.632-2.608-0.96C213.608,306.904,212.472,306.504,211.376,306.024z
	 M240.008,308.688l-6.608-6.616l6.608-16.536l6.608,16.528L240.008,308.688z M240.008,256c-11.592,0-33.728-14.336-38.888-32.416
	c13.696-1.128,38.424-5.272,49.92-20.44l28.592,17.16C276.424,239.896,252.288,256,240.008,256z M278.784,201.136l-26.656-15.992
	c-2.088-1.248-4.624-1.496-6.888-0.64c-2.28,0.832-4.048,2.672-4.816,4.968c-4.048,12.144-25.904,16.736-39.968,18.072
	C202.592,180.72,215.24,168,240.008,168C262.712,168,275.184,178.736,278.784,201.136z M200.008,56c0-22.056,17.944-40,40-40
	s40,17.944,40,40s-17.944,40-40,40S200.008,78.056,200.008,56z M81.616,138.176c-7.552-7.552-11.72-17.6-11.72-28.288
	c0-10.68,4.168-20.728,11.72-28.28s17.6-11.72,28.28-11.72c10.688,0,20.736,4.168,28.288,11.72
	c15.592,15.592,15.592,40.968,0,56.568S97.208,153.776,81.616,138.176z M56.008,280c-22.056,0-40-17.944-40-40s17.944-40,40-40
	s40,17.944,40,40S78.064,280,56.008,280z M186.704,191.768c-1.704,6.904-2.696,14.888-2.696,24.232
	c0,15.712,9.224,30.112,21.096,40.392c-6.488,0.816-12.712,3.064-18.2,6.736c-4.152,2.768-7.728,6.256-10.64,10.232
	c-5.248-9.984-8.256-21.32-8.256-33.36C168.008,221.432,175.128,204.544,186.704,191.768z M138.184,398.392
	c-7.552,7.552-17.6,11.72-28.288,11.72c-10.68,0-20.728-4.168-28.28-11.72s-11.72-17.6-11.72-28.28
	c0-10.688,4.168-20.736,11.72-28.288c7.8-7.8,18.04-11.696,28.28-11.696s20.496,3.896,28.288,11.696
	C153.784,357.424,153.784,382.8,138.184,398.392z M280.008,424c0,22.056-17.944,40-40,40s-40-17.944-40-40s17.944-40,40-40
	S280.008,401.944,280.008,424z M398.4,341.824c7.552,7.552,11.72,17.6,11.72,28.288c0,10.68-4.168,20.728-11.72,28.28
	s-17.6,11.72-28.28,11.72c-10.688,0-20.736-4.168-28.288-11.72c-15.592-15.592-15.592-40.968,0-56.568
	c7.8-7.8,18.048-11.696,28.288-11.696S390.6,334.024,398.4,341.824z M303.76,273.36c-2.912-3.976-6.48-7.464-10.64-10.232
	c-5.496-3.672-11.712-5.92-18.2-6.736c11.864-10.28,21.088-24.68,21.088-40.392c0-9.344-0.992-17.328-2.696-24.232
	c11.576,12.776,18.696,29.664,18.696,48.232C312.008,252.04,309,263.376,303.76,273.36z M424.008,280c-22.056,0-40-17.944-40-40
	s17.944-40,40-40s40,17.944,40,40S446.064,280,424.008,280z"/>
<g>
</g>
<g>
</g>
<g>
</g>
<g>
</g>
<g>
</g>
<g>
</g>
<g>
</g>
<g>
</g>
<g>
</g>
<g>
</g>
<g>
</g>
<g>
</g>
<g>
</g>
<g>
</g>
<g>
</g>
</svg>
