<?xml version="1.0" encoding="iso-8859-1"?>
<!-- Generator: Adobe Illustrator 19.0.0, SVG Export Plug-In . SVG Version: 6.00 Build 0)  -->
<svg version="1.1" id="Capa_1" xmlns="http://www.w3.org/2000/svg" xmlns:xlink="http://www.w3.org/1999/xlink" x="0px" y="0px"
	 viewBox="0 0 480 480" style="enable-background:new 0 0 480 480;" xml:space="preserve">
<path style="fill:#FFFFFF;" d="M55.336,112H16v39.336C36.072,147.952,51.952,132.072,55.336,112z"/>
<g>
	<circle style="fill:#DD763E;" cx="104" cy="432" r="8"/>
	<path style="fill:#DD763E;" d="M126.528,424c0.896,2.512,1.472,5.184,1.472,8c0,13.232-10.768,24-24,24s-24-10.768-24-24
		c0-2.816,0.576-5.488,1.472-8h-8.44c-0.688,2.616-1.032,5.296-1.032,8c0,17.648,14.352,32,32,32s32-14.352,32-32
		c0-2.704-0.344-5.384-1.032-8H126.528z"/>
	<path style="fill:#DD763E;" d="M310.528,424c0.896,2.512,1.472,5.184,1.472,8c0,13.232-10.768,24-24,24s-24-10.768-24-24
		c0-2.816,0.576-5.488,1.472-8h-8.44c-0.688,2.616-1.032,5.296-1.032,8c0,17.648,14.352,32,32,32s32-14.352,32-32
		c0-2.704-0.344-5.384-1.032-8H310.528z"/>
</g>
<g>
	<rect x="16" y="16" style="fill:#827ED9;" width="448" height="16"/>
	<rect x="16" y="48" style="fill:#827ED9;" width="448" height="16"/>
</g>
<circle style="fill:#DD763E;" cx="288" cy="432" r="8"/>
<polygon style="fill:#827ED9;" points="16,96 64,96 416,96 464,96 464,80 16,80 "/>
<path style="fill:#DD763E;" d="M312,368v-40h-24c-2.608,0-5.056-1.272-6.552-3.416l-20.592-29.424c0,0,0-0.008-0.008-0.008
	l-21.064-30.096c-7.48-10.68-19.736-17.056-32.776-17.056H169.84H64h-2.856c-0.84,0-1.664,0.072-2.472,0.216
	c-5.616,0.984-10.08,5.256-10.608,10.52c-0.048,0.448,0,0.88,0,1.328c0,0.416-0.04,0.84,0.008,1.256
	c0.032,0.28,0.128,0.552,0.176,0.824c0.104,0.56,0.192,1.128,0.376,1.672c0.112,0.344,0.296,0.656,0.44,0.992
	c0.184,0.424,0.344,0.864,0.576,1.256c0.016,0.032,0.048,0.064,0.064,0.096c0.824,1.368,1.92,2.576,3.208,3.528
	c0.024,0.016,0.04,0.04,0.064,0.056c0.888,0.648,1.872,1.104,2.888,1.48c0.288,0.104,0.576,0.2,0.872,0.288
	C57.8,271.784,58.88,272,60,272h4h27.904C107.392,272,120,284.608,120,300.096c0,7.544-2.944,14.632-8.28,19.944
	c-5.328,5.296-12.544,7.952-19.912,8.152l-63.832-0.152c-0.008,0-0.016,0-0.024,0c-3.184,0-6.176,1.24-8.432,3.488
	c-2.272,2.256-3.52,5.28-3.52,8.488c0,0.816,0.088,1.616,0.24,2.392v0.008C17.352,347.88,22.192,352,27.984,352H56
	c4.416,0,8,3.584,8,8v48h3.376H112h28.624h110.752h73.248H360v-32h-40C315.584,376,312,372.416,312,368z M224,336h-80
	c-4.416,0-8-3.584-8-8v-56c0-4.416,3.584-8,8-8h24c35.288,0,64,28.712,64,64C232,332.416,228.416,336,224,336z"/>
<path style="fill:#FED27C;" d="M168,280h-16v40h63.336C211.512,297.328,191.744,280,168,280z"/>
<path style="fill:#FFFFFF;" d="M245.384,247.336c2.744,2.584,5.304,5.4,7.504,8.544l17.208,24.592
	C290.88,269.424,304,247.888,304,224c0-35.288-28.712-64-64-64s-64,28.712-64,64c0,2.624,0.176,5.296,0.528,8h30.48
	C221.424,232,235.088,237.632,245.384,247.336z"/>
<path style="fill:#FED27C;" d="M359.128,359.768c-0.48-2.272-1.2-4.456-2.04-6.568c-0.264-0.648-0.568-1.28-0.864-1.912
	c-0.72-1.56-1.536-3.064-2.448-4.504c-0.072-0.12-0.144-0.232-0.224-0.344c-0.352-0.544-0.712-1.096-1.088-1.624
	c-1.152-1.608-2.4-3.144-3.768-4.568c-0.4-0.416-0.824-0.792-1.232-1.176c-1.416-1.344-2.92-2.6-4.52-3.728
	c-0.56-0.392-1.152-0.744-1.728-1.104c-1.44-0.912-2.944-1.728-4.504-2.448c-0.624-0.288-1.24-0.592-1.872-0.848
	c-0.04-0.016-0.072-0.024-0.112-0.04c-1.848-0.736-3.768-1.328-5.736-1.784c-0.328-0.072-0.656-0.136-0.992-0.2V360h31.192
	c0-0.008,0-0.016,0-0.024C359.176,359.904,359.144,359.84,359.128,359.768z"/>
<path style="fill:#827ED9;" d="M408.552,112H71.448C67.816,140.896,44.896,163.816,16,167.448v147.256
	c0.192-0.096,0.416-0.12,0.608-0.208c1.176-0.52,2.4-0.896,3.64-1.248c0.624-0.176,1.224-0.424,1.864-0.56
	c1.904-0.4,3.848-0.64,5.84-0.64c0.016,0,0.032,0,0.048,0c9.984,0.016,22.368,0.04,33.936,0.064h2.088
	c10.632,0.016,20.68,0.048,27.864,0.088c0.024,0,0.04,0,0.064,0c3.2,0,6.216-1.24,8.48-3.496c2.304-2.296,3.568-5.352,3.568-8.608
	C104,293.424,98.576,288,91.904,288H64h-4c-1.816,0-3.592-0.224-5.336-0.568c-0.432-0.08-0.848-0.2-1.272-0.304
	c-1.376-0.336-2.712-0.768-4.016-1.304c-0.384-0.16-0.768-0.304-1.144-0.48c-1.584-0.736-3.12-1.584-4.56-2.624
	c-0.024-0.016-0.048-0.024-0.072-0.04c-0.024-0.016-0.048-0.024-0.072-0.048c-1.576-1.144-3-2.44-4.288-3.856l0,0
	c-0.04-0.048-0.072-0.104-0.112-0.152c-1.208-1.352-2.296-2.8-3.232-4.376c-0.024-0.048-0.04-0.096-0.064-0.144
	c-0.272-0.464-0.432-0.984-0.672-1.464c-0.608-1.192-1.248-2.376-1.68-3.648c-0.024-0.064-0.024-0.144-0.048-0.208
	c-0.192-0.584-0.248-1.2-0.4-1.792c-0.336-1.312-0.712-2.616-0.856-3.96c-0.032-0.264,0.016-0.536-0.008-0.808
	c-0.136-1.68-0.2-3.368-0.032-5.08c0.176-1.76,0.528-3.48,1.04-5.136C36.768,240.456,48.144,232,61.144,232H64h96.472
	c-0.288-2.688-0.472-5.368-0.472-8c0-44.112,35.888-80,80-80s80,35.888,80,80c0,29.208-15.712,55.552-40.704,69.616L292.168,312H320
	c2.296,0,4.544,0.184,6.776,0.448c0.032,0,0.064,0,0.088,0.008l1.712,0.256c0.112,0.016,0.192,0.048,0.304,0.064
	c1.592,0.256,3.16,0.576,4.704,0.96c0.088,0.024,0.192,0.032,0.272,0.056l1.656,0.424c0.056,0.016,0.104,0.04,0.16,0.056
	c4.224,1.232,8.232,2.952,11.976,5.088c0.096,0.056,0.2,0.096,0.296,0.152c0.08,0.048,0.72,0.432,0.792,0.48
	c0.184,0.112,0.312,0.224,0.488,0.328c1.416,0.872,2.792,1.8,4.12,2.792c0.184,0.136,0.408,0.264,0.592,0.4
	c0.12,0.088,0.2,0.184,0.312,0.28c3.656,2.84,6.952,6.12,9.808,9.768c0.088,0.112,0.2,0.208,0.28,0.32
	c0.544,0.72,1.056,1.424,1.544,2.112h42.656c3.624-28.896,26.552-51.816,55.448-55.448V167.448
	C435.104,163.816,412.184,140.896,408.552,112z"/>
<g>
	<path style="fill:#FFFFFF;" d="M464,151.336V112h-39.336C428.048,132.072,443.928,147.952,464,151.336z"/>
	<path style="fill:#FFFFFF;" d="M424.664,336H464v-39.336C443.928,300.048,428.048,315.928,424.664,336z"/>
</g>
<g>
	<rect y="408" style="fill:#232323;" width="16" height="16"/>
	<path style="fill:#232323;" d="M168,264h-24c-4.416,0-8,3.584-8,8v56c0,4.416,3.584,8,8,8h80c4.416,0,8-3.584,8-8
		C232,292.712,203.288,264,168,264z M152,320v-40h16c23.744,0,43.512,17.328,47.336,40H152z"/>
	<path style="fill:#232323;" d="M472,0H8C3.584,0,0,3.584,0,8v96v56v180.016V344c0,1.576,0.576,2.96,1.36,4.2
		C4.888,359.624,15.416,368,27.984,368H48v40H32v16h24h0.736c-0.448,2.64-0.736,5.304-0.736,8c0,26.472,21.528,48,48,48
		s48-21.528,48-48c0-2.696-0.288-5.36-0.736-8h89.472c-0.448,2.64-0.736,5.304-0.736,8c0,26.472,21.528,48,48,48s48-21.528,48-48
		c0-2.696-0.288-5.36-0.736-8H368c4.416,0,8-3.584,8-8v-48c0-5.56-0.84-10.928-2.36-16H416h56c4.416,0,8-3.584,8-8v-56V160v-56V8
		C480,3.584,476.416,0,472,0z M16,112h39.336C51.952,132.072,36.072,147.952,16,151.336V112z M64,96H16V80h448v16h-48H64z M464,64
		H16V48h448V64z M464,112v39.336c-20.072-3.376-35.952-19.264-39.336-39.336H464z M464,16v16H16V16H464z M136,432
		c0,17.648-14.352,32-32,32s-32-14.352-32-32c0-2.704,0.344-5.384,1.032-8h8.44c-0.896,2.512-1.472,5.184-1.472,8
		c0,13.232,10.768,24,24,24s24-10.768,24-24c0-2.816-0.576-5.488-1.472-8h8.44C135.656,426.616,136,429.296,136,432z M112,432
		c0,4.408-3.592,8-8,8s-8-3.592-8-8s3.592-8,8-8S112,427.592,112,432z M320,432c0,17.648-14.352,32-32,32s-32-14.352-32-32
		c0-2.704,0.344-5.384,1.032-8h8.44c-0.896,2.512-1.472,5.184-1.472,8c0,13.232,10.768,24,24,24s24-10.768,24-24
		c0-2.816-0.576-5.488-1.472-8h8.44C319.656,426.616,320,429.296,320,432z M296,432c0,4.408-3.592,8-8,8s-8-3.592-8-8s3.592-8,8-8
		S296,427.592,296,432z M324.624,408h-73.248H140.624H112H67.376H64v-48c0-4.416-3.584-8-8-8H27.984
		c-5.784,0-10.624-4.12-11.736-9.584v-0.008c-0.16-0.776-0.248-1.576-0.248-2.392c0-3.216,1.248-6.232,3.512-8.496
		c2.248-2.248,5.248-3.488,8.432-3.488c0.008,0,0.016,0,0.024,0l63.832,0.152c7.368-0.2,14.584-2.856,19.912-8.152
		c5.344-5.304,8.288-12.384,8.288-19.936C120,284.608,107.392,272,91.904,272H64h-4c-1.12,0-2.2-0.216-3.256-0.512
		c-0.296-0.08-0.584-0.176-0.872-0.288c-1.016-0.376-2-0.832-2.888-1.48c-0.024-0.016-0.04-0.04-0.064-0.056
		c-1.288-0.952-2.384-2.16-3.208-3.528c-0.016-0.032-0.048-0.064-0.064-0.096c-0.232-0.392-0.392-0.832-0.576-1.256
		c-0.144-0.328-0.328-0.648-0.44-0.992c-0.184-0.544-0.272-1.112-0.376-1.672c-0.048-0.28-0.144-0.544-0.176-0.824
		c-0.04-0.408,0-0.832-0.008-1.256c0-0.44-0.048-0.872,0-1.328c0.528-5.264,4.992-9.528,10.608-10.52
		c0.792-0.12,1.616-0.192,2.464-0.192H64h105.84h37.168c13.04,0,25.296,6.376,32.768,17.056l21.064,30.096v0.008l20.6,29.424
		c1.504,2.144,3.952,3.416,6.56,3.416h24v40c0,4.416,3.584,8,8,8h40v32H324.624z M176,224c0-35.288,28.712-64,64-64s64,28.712,64,64
		c0,23.888-13.12,45.424-33.904,56.472l-17.208-24.592c-2.208-3.144-4.76-5.96-7.504-8.544C235.088,237.632,221.424,232,207.008,232
		h-30.48C176.176,229.296,176,226.624,176,224z M328,328.904c0.328,0.064,0.664,0.128,0.992,0.2
		c1.968,0.456,3.888,1.048,5.736,1.784c0.04,0.016,0.072,0.024,0.112,0.04c0.64,0.256,1.256,0.56,1.872,0.848
		c1.56,0.72,3.064,1.536,4.504,2.448c0.576,0.368,1.168,0.712,1.728,1.104c1.6,1.128,3.104,2.384,4.52,3.728
		c0.408,0.392,0.832,0.768,1.232,1.176c1.376,1.416,2.616,2.96,3.768,4.568c0.384,0.528,0.736,1.08,1.088,1.624
		c0.072,0.112,0.152,0.232,0.224,0.344c0.912,1.44,1.728,2.944,2.448,4.504c0.296,0.632,0.6,1.256,0.864,1.912
		c0.848,2.112,1.568,4.296,2.04,6.568c0.016,0.072,0.048,0.136,0.056,0.208c0,0.008,0,0.016,0,0.024H328V328.904z M354.264,323.8
		c-0.112-0.088-0.2-0.184-0.312-0.28c-0.184-0.136-0.408-0.264-0.592-0.4c-1.328-0.992-2.704-1.92-4.12-2.792
		c-0.176-0.112-0.304-0.224-0.488-0.328c-0.072-0.048-0.712-0.432-0.792-0.48c-0.096-0.056-0.2-0.096-0.296-0.152
		c-3.744-2.136-7.752-3.856-11.976-5.088c-0.056-0.016-0.104-0.04-0.16-0.056l-1.656-0.424c-0.088-0.024-0.192-0.032-0.272-0.056
		c-1.544-0.384-3.112-0.704-4.704-0.96c-0.112-0.016-0.192-0.048-0.304-0.064l-1.712-0.256c-0.032,0-0.064,0-0.088-0.008
		C324.544,312.184,322.296,312,320,312h-27.832l-12.864-18.384C304.288,279.552,320,253.208,320,224c0-44.112-35.888-80-80-80
		s-80,35.888-80,80c0,2.632,0.184,5.312,0.464,8H64h-2.856c-13,0-24.376,8.456-27.96,20.016c-0.512,1.656-0.864,3.368-1.04,5.136
		c-0.168,1.712-0.104,3.4,0.032,5.08c0.024,0.264-0.024,0.544,0.008,0.808c0.144,1.344,0.52,2.648,0.856,3.96
		c0.152,0.592,0.208,1.216,0.4,1.792c0.024,0.064,0.024,0.144,0.048,0.208c0.432,1.28,1.072,2.456,1.68,3.648
		c0.24,0.48,0.4,1,0.672,1.464c0.024,0.048,0.04,0.096,0.064,0.144c0.928,1.576,2.024,3.024,3.232,4.376
		c0.04,0.048,0.072,0.104,0.112,0.152l0,0c1.28,1.416,2.712,2.712,4.288,3.856c0.024,0.016,0.048,0.024,0.072,0.048
		c0.024,0.016,0.048,0.024,0.072,0.04c1.44,1.04,2.976,1.88,4.56,2.624c0.376,0.176,0.76,0.32,1.144,0.48
		c1.304,0.536,2.648,0.976,4.016,1.304c0.424,0.104,0.84,0.224,1.272,0.304C56.408,287.776,58.184,288,60,288h4h27.904
		c6.672,0,12.096,5.424,12.096,12.096c0,3.256-1.264,6.312-3.568,8.6c-2.264,2.256-5.28,3.496-8.48,3.496c-0.024,0-0.04,0-0.064,0
		c-7.184-0.032-17.24-0.064-27.864-0.088h-2.088C50.368,312.08,37.984,312.056,28,312.04c-0.016,0-0.032,0-0.048,0
		c-1.992,0-3.936,0.24-5.84,0.64c-0.64,0.136-1.232,0.384-1.864,0.56c-1.24,0.352-2.464,0.728-3.64,1.248
		c-0.192,0.096-0.416,0.12-0.608,0.216V167.448c28.896-3.624,51.816-26.552,55.448-55.448H408.56
		c3.624,28.896,26.552,51.816,55.448,55.448V280.56c-28.896,3.624-51.816,26.552-55.448,55.448h-42.656
		c-0.488-0.688-1-1.392-1.544-2.112c-0.088-0.112-0.192-0.208-0.28-0.32C361.216,329.92,357.92,326.64,354.264,323.8z M464,336
		h-39.336c3.376-20.072,19.264-35.952,39.336-39.336V336z"/>
</g>
<g>
</g>
<g>
</g>
<g>
</g>
<g>
</g>
<g>
</g>
<g>
</g>
<g>
</g>
<g>
</g>
<g>
</g>
<g>
</g>
<g>
</g>
<g>
</g>
<g>
</g>
<g>
</g>
<g>
</g>
</svg>
