<?xml version="1.0" encoding="iso-8859-1"?>
<!-- Generator: Adobe Illustrator 19.0.0, SVG Export Plug-In . SVG Version: 6.00 Build 0)  -->
<svg version="1.1" id="Capa_1" xmlns="http://www.w3.org/2000/svg" xmlns:xlink="http://www.w3.org/1999/xlink" x="0px" y="0px"
	 viewBox="0 0 480 480" style="enable-background:new 0 0 480 480;" xml:space="preserve">
<path style="fill:#FFFFFF;" d="M208,440v-32c0-13.232,10.768-24,24-24h56v-24c0-4.416,3.576-8,8-8h8V248.224
	c0-13.088-5.648-25.536-15.504-34.16C257.68,187.104,240,148.144,240,107.184c0-3.232,0.192-6.416,0.472-9.584
	c0.064-0.768,0.144-1.536,0.224-2.296c0.344-3.128,0.768-6.224,1.368-9.264c0.032-0.152,0.072-0.296,0.104-0.448
	c0.592-2.92,1.328-5.792,2.144-8.624c0.208-0.712,0.416-1.424,0.632-2.128c0.904-2.912,1.896-5.784,3.032-8.592
	c0.104-0.248,0.216-0.48,0.32-0.728c1.08-2.6,2.272-5.136,3.536-7.632c0.328-0.64,0.648-1.28,0.984-1.912
	c1.408-2.64,2.896-5.224,4.504-7.72c0.2-0.304,0.416-0.592,0.616-0.896c1.48-2.248,3.048-4.424,4.68-6.544
	c0.432-0.56,0.856-1.12,1.296-1.672c1.84-2.296,3.76-4.528,5.776-6.656c0.312-0.328,0.64-0.64,0.96-0.96
	c1.8-1.856,3.68-3.64,5.608-5.36c0.528-0.472,1.04-0.944,1.576-1.4c2.208-1.888,4.48-3.704,6.84-5.408
	c0.44-0.32,0.896-0.608,1.336-0.92c1.184-0.824,2.352-1.664,3.56-2.44H16v384h56c4.424,0,8,3.584,8,8v56h144v-16h-8
	C211.576,448,208,444.416,208,440z M240,200H96v-16h144V200z M128,104V88h96v16H128z M192,120v16h-80v-16H192z M88,40h152v16H88V40z
	 M32,88h80v16H32V88z M32,120h64v16H32V120z M32,152h192v16H32V152z M32,184h48v16H32V184z M32,232v-16h208v16H32z"/>
<rect x="240" y="448" style="fill:#DD763E;" width="208" height="16"/>
<path style="fill:#FED27C;" d="M456,400h-64h-96h-64c-4.416,0-8,3.592-8,8v24h8h224h8v-24C464,403.592,460.416,400,456,400z"/>
<polygon style="fill:#FFFFFF;" points="64,452.688 64,416 27.312,416 "/>
<g>
	<polygon style="fill:#FED27C;" points="304,368 304,384 384,384 384,368 376,368 312,368 	"/>
	<path style="fill:#FED27C;" d="M256.448,98.032c-0.296,3.008-0.448,6.064-0.448,9.152c0,36.336,15.688,70.904,43.032,94.84
		C312.36,213.68,320,230.52,320,248.224V352h48V248.224c0-17.704,7.64-34.544,20.968-46.2C416.312,178.096,432,143.528,432,107.184
		V104c0-23.816-9.36-46.112-26.352-62.8c-16.576-16.28-38.416-25.232-61.592-25.144c-0.024,0-0.04,0.016-0.056,0.016l-1.256-0.04
		C297.736,16.832,260.88,52.832,256.448,98.032z M344,32h8c35.288,0,64,28.712,64,64h-16c0-26.472-21.528-48-48-48h-8V32z"/>
</g>
<g>
	<path style="fill:#232323;" d="M456,384h-56v-24c0-4.416-3.576-8-8-8h-8V248.224c0-13.088,5.648-25.536,15.496-34.16
		C430.32,187.104,448,148.144,448,107.184V104c0-28.144-11.064-54.496-31.144-74.216c-19.496-19.144-45.24-29.52-72.392-29.688
		C344.304,0.088,344.168,0,344,0H8C3.576,0,0,3.584,0,8v400c0,0.168,0.088,0.32,0.096,0.496c0.048,0.712,0.184,1.4,0.416,2.072
		c0.088,0.256,0.152,0.504,0.264,0.744c0.392,0.848,0.88,1.656,1.568,2.344l64,64c0.752,0.752,1.64,1.336,2.608,1.736
		C69.92,479.792,70.96,480,72,480h160h224c4.424,0,8-3.584,8-8v-24h8c4.424,0,8-3.584,8-8v-32C480,394.768,469.232,384,456,384z
		 M312,368h64h8v16h-80v-16H312z M432,104v3.184c0,36.344-15.688,70.912-43.032,94.84C375.64,213.68,368,230.52,368,248.224V352h-48
		V248.224c0-17.704-7.64-34.544-20.968-46.2C271.688,178.088,256,143.52,256,107.184c0-3.088,0.152-6.144,0.448-9.152
		c4.432-45.2,41.288-81.192,86.296-82l1.256,0.04c0.024,0,0.04-0.016,0.056-0.016c23.176-0.088,45.016,8.864,61.592,25.144
		C422.64,57.888,432,80.184,432,104z M289.568,16c-1.216,0.776-2.384,1.616-3.56,2.44c-0.44,0.312-0.896,0.6-1.336,0.92
		c-2.352,1.704-4.632,3.512-6.84,5.408c-0.536,0.456-1.048,0.928-1.576,1.4c-1.928,1.72-3.8,3.504-5.608,5.36
		c-0.312,0.328-0.648,0.632-0.96,0.96c-2.016,2.128-3.928,4.36-5.776,6.656c-0.44,0.552-0.864,1.112-1.296,1.672
		c-1.632,2.12-3.208,4.296-4.68,6.544c-0.2,0.304-0.416,0.592-0.616,0.896c-1.608,2.496-3.096,5.088-4.504,7.72
		c-0.336,0.632-0.664,1.272-0.984,1.912c-1.264,2.496-2.456,5.032-3.536,7.632c-0.104,0.248-0.216,0.48-0.32,0.728
		c-1.136,2.8-2.128,5.68-3.032,8.592c-0.216,0.704-0.424,1.416-0.632,2.128c-0.816,2.832-1.552,5.704-2.144,8.624
		c-0.032,0.152-0.072,0.296-0.104,0.448c-0.6,3.04-1.032,6.136-1.368,9.264c-0.08,0.768-0.16,1.528-0.224,2.296
		c-0.28,3.16-0.472,6.352-0.472,9.584c0,40.96,17.68,79.92,48.496,106.88c9.856,8.624,15.504,21.072,15.504,34.16V352h-8
		c-4.424,0-8,3.584-8,8v24h-56c-13.232,0-24,10.768-24,24v32c0,4.416,3.576,8,8,8h8v16H80v-56c0-4.416-3.576-8-8-8H16V16H289.568z
		 M27.312,416H64v36.688L27.312,416z M448,464H240v-16h208V464z M464,432h-8H232h-8v-24c0-4.408,3.584-8,8-8h64h96h64
		c4.416,0,8,3.592,8,8V432z"/>
	<rect x="88" y="40" style="fill:#232323;" width="152" height="16"/>
	<rect x="32" y="88" style="fill:#232323;" width="80" height="16"/>
	<rect x="128" y="88" style="fill:#232323;" width="96" height="16"/>
	<rect x="32" y="120" style="fill:#232323;" width="64" height="16"/>
	<rect x="112" y="120" style="fill:#232323;" width="80" height="16"/>
	<rect x="32" y="152" style="fill:#232323;" width="192" height="16"/>
	<rect x="32" y="184" style="fill:#232323;" width="48" height="16"/>
	<rect x="96" y="184" style="fill:#232323;" width="144" height="16"/>
	<rect x="32" y="216" style="fill:#232323;" width="208" height="16"/>
	<path style="fill:#232323;" d="M344,32v16h8c26.472,0,48,21.528,48,48h16c0-35.288-28.712-64-64-64H344z"/>
</g>
<g>
</g>
<g>
</g>
<g>
</g>
<g>
</g>
<g>
</g>
<g>
</g>
<g>
</g>
<g>
</g>
<g>
</g>
<g>
</g>
<g>
</g>
<g>
</g>
<g>
</g>
<g>
</g>
<g>
</g>
</svg>
