<?xml version="1.0" encoding="iso-8859-1"?>
<!-- Generator: Adobe Illustrator 19.0.0, SVG Export Plug-In . SVG Version: 6.00 Build 0)  -->
<svg version="1.1" id="Capa_1" xmlns="http://www.w3.org/2000/svg" xmlns:xlink="http://www.w3.org/1999/xlink" x="0px" y="0px"
	 viewBox="0 0 480 480" style="enable-background:new 0 0 480 480;" xml:space="preserve">
<g>
	<polygon style="fill:#DD763E;" points="384,56 384,16 336,16 336,56 336,80 384,80 	"/>
	<path style="fill:#DD763E;" d="M400,88c0,4.416-3.584,8-8,8h-64c-4.416,0-8-3.584-8-8V64H160v24c0,4.416-3.584,8-8,8H88
		c-4.416,0-8-3.584-8-8V64H16v56h448V64h-64V88z"/>
</g>
<path style="fill:#827ED9;" d="M176,200h16c28.152,0,51.456,20.904,55.36,48h16.2c-3.992-35.952-34.56-64-71.56-64h-16
	c-37,0-67.568,28.048-71.56,64h16.2C124.544,220.904,147.848,200,176,200z"/>
<polygon style="fill:#FFFFFF;" points="392.76,424 393.736,414.264 393.736,414.256 398.424,367.368 398.424,367.36 399.16,360 
	352.84,360 359.24,424 "/>
<path style="fill:#FED27C;" d="M424,392c0-6.872-4.36-12.752-10.456-15.008l-1.96,19.616l-1.12,11.208
	C418.12,406.624,424,399.984,424,392z"/>
<polygon style="fill:#DD763E;" points="144,56 144,16 96,16 96,56 96,80 144,80 "/>
<g>
	<path style="fill:#827ED9;" d="M304,314.88l-96,30V360c0,4.416-3.584,8-8,8h-32c-4.416,0-8-3.584-8-8v-15.12l-96-30V424h240V314.88
		z"/>
	<polygon style="fill:#827ED9;" points="176,352 192,352 192,339 192,328 176,328 176,339 	"/>
</g>
<path style="fill:#FED27C;" d="M176,216c-19.32,0-35.48,13.768-39.192,32H231.2c-3.712-18.232-19.88-32-39.192-32H176z"/>
<path style="fill:#827ED9;" d="M160,320c0-4.416,3.584-8,8-8h32c4.416,0,8,3.584,8,8v8.12l96-30V264h-32h-32H128H96H64v34.12l96,30
	V320z"/>
<path style="fill:#FED27C;" d="M16,464h448V136H16V464z M416,272v-24h16v24c0,13.232-10.768,24-24,24c-4.408,0-8,3.592-8,8v24h-16
	v-24c0-13.232,10.768-24,24-24C412.408,280,416,276.408,416,272z M344,296c0-13.232,10.768-24,24-24c4.408,0,8-3.592,8-8v-24h16v24
	c0,13.232-10.768,24-24,24c-4.408,0-8,3.592-8,8v24h-16V296z M338.072,346.632C339.584,344.96,341.736,344,344,344h64
	c2.264,0,4.416,0.96,5.928,2.632c1.52,1.672,2.256,3.912,2.032,6.168l-0.808,8.08C429.352,364.144,440,376.824,440,392
	c0,17.352-13.904,31.448-31.152,31.912l-0.888,8.88c-0.408,4.096-3.848,7.208-7.96,7.208h-48c-4.112,0-7.552-3.112-7.96-7.2l-8-80
	C335.816,350.544,336.552,348.312,338.072,346.632z M48,304v-48c0-4.416,3.584-8,8-8h32.408c4.056-44.784,41.768-80,87.592-80h16
	c45.824,0,83.536,35.216,87.592,80H312c4.416,0,8,3.584,8,8v48v128c0,4.416-3.584,8-8,8H56c-4.416,0-8-3.584-8-8V304z"/>
<g>
	<path style="fill:#232323;" d="M472,48h-72V8c0-4.416-3.584-8-8-8h-64c-4.416,0-8,3.584-8,8v40H160V8c0-4.416-3.584-8-8-8H88
		c-4.416,0-8,3.584-8,8v40H8c-4.416,0-8,3.584-8,8v72v344c0,4.416,3.584,8,8,8h464c4.416,0,8-3.584,8-8V128V56
		C480,51.584,476.416,48,472,48z M336,16h48v40v24h-48V56V16z M96,16h48v40v24H96V56V16z M16,64h64v24c0,4.416,3.584,8,8,8h64
		c4.416,0,8-3.584,8-8V64h160v24c0,4.416,3.584,8,8,8h64c4.416,0,8-3.584,8-8V64h64v56H16V64z M464,464H16V136h448V464z"/>
	<path style="fill:#232323;" d="M56,440h256c4.416,0,8-3.584,8-8V304v-48c0-4.416-3.584-8-8-8h-32.408
		c-4.056-44.784-41.768-80-87.592-80h-16c-45.824,0-83.536,35.216-87.592,80H56c-4.416,0-8,3.584-8,8v48v128
		C48,436.416,51.584,440,56,440z M64,424V314.88l96,30V360c0,4.416,3.584,8,8,8h32c4.416,0,8-3.584,8-8v-15.12l96-30V424H64z
		 M192,339v13h-16v-13v-11h16V339z M176,184h16c37,0,67.568,28.048,71.56,64h-16.2c-3.904-27.096-27.208-48-55.36-48h-16
		c-28.152,0-51.456,20.904-55.36,48h-16.2C108.432,212.048,139,184,176,184z M231.192,248h-94.384c3.712-18.232,19.88-32,39.192-32
		h16C211.32,216,227.48,229.768,231.192,248z M64,264h32h32h112h32h32v34.12l-96,30V320c0-4.416-3.584-8-8-8h-32
		c-4.416,0-8,3.584-8,8v8.12l-96-30V264z"/>
	<path style="fill:#232323;" d="M352,440h48c4.112,0,7.552-3.112,7.96-7.2l0.888-8.88C426.096,423.448,440,409.352,440,392
		c0-15.176-10.648-27.856-24.848-31.128l0.808-8.08c0.224-2.248-0.512-4.488-2.032-6.168C412.416,344.96,410.264,344,408,344h-64
		c-2.264,0-4.416,0.96-5.928,2.632c-1.52,1.672-2.256,3.912-2.032,6.168l8,80C344.448,436.888,347.888,440,352,440z M424,392
		c0,7.984-5.88,14.624-13.536,15.816l1.12-11.208l1.96-19.616C419.64,379.248,424,385.128,424,392z M399.16,360l-0.736,7.36v0.008
		l-4.688,46.888v0.008L392.76,424h-33.52l-6.4-64H399.16z"/>
	<path style="fill:#232323;" d="M360,296c0-4.408,3.592-8,8-8c13.232,0,24-10.768,24-24v-24h-16v24c0,4.408-3.592,8-8,8
		c-13.232,0-24,10.768-24,24v24h16V296z"/>
	<path style="fill:#232323;" d="M384,304v24h16v-24c0-4.408,3.592-8,8-8c13.232,0,24-10.768,24-24v-24h-16v24c0,4.408-3.592,8-8,8
		C394.768,280,384,290.768,384,304z"/>
</g>
<g>
</g>
<g>
</g>
<g>
</g>
<g>
</g>
<g>
</g>
<g>
</g>
<g>
</g>
<g>
</g>
<g>
</g>
<g>
</g>
<g>
</g>
<g>
</g>
<g>
</g>
<g>
</g>
<g>
</g>
</svg>
