<?xml version="1.0" encoding="iso-8859-1"?>
<!-- Generator: Adobe Illustrator 19.0.0, SVG Export Plug-In . SVG Version: 6.00 Build 0)  -->
<svg version="1.1" id="Capa_1" xmlns="http://www.w3.org/2000/svg" xmlns:xlink="http://www.w3.org/1999/xlink" x="0px" y="0px"
	 viewBox="0 0 480 480" style="enable-background:new 0 0 480 480;" xml:space="preserve">
<g>
	<path style="fill:#FED27C;" d="M440,31.976c-2.28,3.032-4.992,5.744-8.024,8.024c3.032,2.28,5.744,4.992,8.024,8.024
		c2.28-3.032,4.992-5.744,8.024-8.024C444.992,37.72,442.28,35.008,440,31.976z"/>
	<path style="fill:#FED27C;" d="M197.544,456h117.232c7.408,0,14.832-1.752,21.464-5.064L374.112,432H280c-17.648,0-32-14.352-32-32
		c0-9.6,4.336-18.128,11.056-24c-6.72-5.872-11.056-14.4-11.056-24s4.336-18.128,11.056-24c-6.72-5.872-11.056-14.4-11.056-24
		s4.336-18.128,11.056-24c-6.72-5.872-11.056-14.4-11.056-24c0-6.128,1.816-11.8,4.816-16.672C249.992,238.096,248,235.28,248,232
		v-85.2c0-29.232-14.2-56.824-37.984-73.808c-0.168-0.12-0.648-0.448-1.328-0.104C208,73.24,208,73.832,208,74.024v128.008
		c0,21.424-9.44,41.576-25.896,55.296L160,275.744V449.44l28.136,5.624C191.224,455.688,194.392,456,197.544,456z"/>
	<path style="fill:#FED27C;" d="M280,320h128c8.824,0,16-7.176,16-16s-7.176-16-16-16H280c-8.824,0-16,7.176-16,16
		S271.176,320,280,320z"/>
	<path style="fill:#FED27C;" d="M280,368h128c8.824,0,16-7.176,16-16s-7.176-16-16-16H280c-8.824,0-16,7.176-16,16
		S271.176,368,280,368z"/>
	<path style="fill:#FED27C;" d="M280,272h128c8.824,0,16-7.176,16-16s-7.176-16-16-16H288h-8c-8.824,0-16,7.176-16,16
		S271.176,272,280,272z"/>
</g>
<rect x="128" y="264" style="fill:#FFFFFF;" width="16" height="192"/>
<path style="fill:#FED27C;" d="M40,120.024c2.28-3.032,4.992-5.744,8.024-8.024c-3.032-2.28-5.744-4.992-8.024-8.024
	c-2.28,3.032-4.992,5.744-8.024,8.024C35.008,114.28,37.72,116.992,40,120.024z"/>
<rect x="16" y="256" style="fill:#827ED9;" width="96" height="208"/>
<g>
	<path style="fill:#FED27C;" d="M280,416h128c8.824,0,16-7.176,16-16s-7.176-16-16-16H280c-8.824,0-16,7.176-16,16
		S271.176,416,280,416z"/>
	<path style="fill:#FED27C;" d="M336,136.024c2.28-3.032,4.992-5.744,8.024-8.024c-3.032-2.28-5.744-4.992-8.024-8.024
		c-2.28,3.032-4.992,5.744-8.024,8.024C331.008,130.28,333.72,132.992,336,136.024z"/>
</g>
<g>
	<path style="fill:#232323;" d="M8,480h112c4.416,0,8-3.584,8-8h24c3.816,0,6.864-2.728,7.656-6.312l25.336,5.064
		c4.128,0.832,8.344,1.248,12.552,1.248h117.232c9.88,0,19.776-2.336,28.624-6.752l66.968-33.488
		C426.896,430.52,440,416.832,440,400c0-9.6-4.336-18.128-11.056-24c6.72-5.872,11.056-14.4,11.056-24s-4.336-18.128-11.056-24
		c6.72-5.872,11.056-14.4,11.056-24s-4.336-18.128-11.056-24c6.72-5.872,11.056-14.4,11.056-24c0-17.648-14.352-32-32-32H288h-8h-16
		v-77.2c0-34.384-16.704-66.848-44.68-86.832c-5.288-3.784-12.168-4.296-17.944-1.312C195.592,61.632,192,67.52,192,74.024v128.008
		c0,16.664-7.336,32.336-20.144,43l-12.048,10.04c-0.472-3.96-3.72-7.072-7.808-7.072h-24c0-4.416-3.584-8-8-8H8
		c-4.416,0-8,3.584-8,8v224C0,476.416,3.584,480,8,480z M424,400c0,8.824-7.176,16-16,16H280c-8.824,0-16-7.176-16-16
		s7.176-16,16-16h128C416.824,384,424,391.176,424,400z M424,352c0,8.824-7.176,16-16,16H280c-8.824,0-16-7.176-16-16
		s7.176-16,16-16h128C416.824,336,424,343.176,424,352z M424,304c0,8.824-7.176,16-16,16H280c-8.824,0-16-7.176-16-16
		s7.176-16,16-16h128C416.824,288,424,295.176,424,304z M288,240h120c8.824,0,16,7.176,16,16s-7.176,16-16,16H280
		c-8.824,0-16-7.176-16-16s7.176-16,16-16H288z M182.104,257.328C198.56,243.616,208,223.456,208,202.032V74.024
		c0-0.192,0-0.784,0.688-1.136c0.68-0.344,1.16-0.016,1.328,0.104C233.8,89.976,248,117.568,248,146.8V232
		c0,3.28,1.992,6.096,4.816,7.328C249.816,244.2,248,249.872,248,256c0,9.6,4.336,18.128,11.056,24
		c-6.72,5.872-11.056,14.4-11.056,24s4.336,18.128,11.056,24c-6.72,5.872-11.056,14.4-11.056,24s4.336,18.128,11.056,24
		c-6.72,5.872-11.056,14.4-11.056,24c0,17.648,14.352,32,32,32h94.112l-37.864,18.936c-6.632,3.312-14.056,5.064-21.464,5.064
		h-117.24c-3.16,0-6.328-0.312-9.416-0.928L160,449.44V275.744L182.104,257.328z M144,264v192h-16V264H144z M16,256h96v208H16V256z"
		/>
	<path style="fill:#232323;" d="M472,32c-13.232,0-24-10.768-24-24c0-4.416-3.584-8-8-8s-8,3.584-8,8c0,13.232-10.768,24-24,24
		c-4.416,0-8,3.584-8,8s3.584,8,8,8c13.232,0,24,10.768,24,24c0,4.416,3.584,8,8,8s8-3.584,8-8c0-13.232,10.768-24,24-24
		c4.416,0,8-3.584,8-8S476.416,32,472,32z M440,48.024c-2.28-3.032-4.992-5.744-8.024-8.024c3.032-2.28,5.744-4.992,8.024-8.024
		c2.28,3.032,4.992,5.744,8.024,8.024C444.992,42.28,442.28,44.992,440,48.024z"/>
	<path style="fill:#232323;" d="M304,136c13.232,0,24,10.768,24,24c0,4.416,3.584,8,8,8s8-3.584,8-8c0-13.232,10.768-24,24-24
		c4.416,0,8-3.584,8-8s-3.584-8-8-8c-13.232,0-24-10.768-24-24c0-4.416-3.584-8-8-8s-8,3.584-8,8c0,13.232-10.768,24-24,24
		c-4.416,0-8,3.584-8,8S299.584,136,304,136z M336,119.976c2.28,3.032,4.992,5.744,8.024,8.024c-3.032,2.28-5.744,4.992-8.024,8.024
		c-2.28-3.032-4.992-5.744-8.024-8.024C331.008,125.72,333.72,123.008,336,119.976z"/>
	<rect x="112" y="16" style="fill:#232323;" width="16" height="16"/>
	<rect x="48" y="16" style="fill:#232323;" width="16" height="16"/>
	<rect x="80" y="16" style="fill:#232323;" width="16" height="16"/>
	<path style="fill:#232323;" d="M8,120c13.232,0,24,10.768,24,24c0,4.416,3.584,8,8,8s8-3.584,8-8c0-13.232,10.768-24,24-24
		c4.416,0,8-3.584,8-8s-3.584-8-8-8c-13.232,0-24-10.768-24-24c0-4.416-3.584-8-8-8s-8,3.584-8,8c0,13.232-10.768,24-24,24
		c-4.416,0-8,3.584-8,8S3.584,120,8,120z M40,103.976c2.28,3.032,4.992,5.744,8.024,8.024c-3.032,2.28-5.744,4.992-8.024,8.024
		c-2.28-3.032-4.992-5.744-8.024-8.024C35.008,109.72,37.72,107.008,40,103.976z"/>
	<rect x="432" y="192" style="fill:#232323;" width="16" height="16"/>
	<rect x="400" y="192" style="fill:#232323;" width="16" height="16"/>
	<rect x="464" y="192" style="fill:#232323;" width="16" height="16"/>
	<rect x="304" style="fill:#232323;" width="16" height="16"/>
	<rect x="272" style="fill:#232323;" width="16" height="16"/>
	<rect x="336" style="fill:#232323;" width="16" height="16"/>
	<rect x="136" y="168" style="fill:#232323;" width="16" height="16"/>
	<rect x="72" y="168" style="fill:#232323;" width="16" height="16"/>
	<rect x="104" y="168" style="fill:#232323;" width="16" height="16"/>
</g>
<g>
</g>
<g>
</g>
<g>
</g>
<g>
</g>
<g>
</g>
<g>
</g>
<g>
</g>
<g>
</g>
<g>
</g>
<g>
</g>
<g>
</g>
<g>
</g>
<g>
</g>
<g>
</g>
<g>
</g>
</svg>
